<?xml version="1.0" encoding="UTF-8"?> <svg xmlns="http://www.w3.org/2000/svg" viewBox="0 0 44.005859375 12.85999870300293" fill="none"><path d="M1.9600035731152896 10.319995575123588V2.4199990587482345C1.9600035731152896 2.1399999689927616 1.9266635406735524 1.946670046345339 1.8600033654440327 1.83999934597899C1.8066642859507416 1.7333311318193856 1.7066640782794846 1.6799995109463277 1.5600027424302614 1.6799995109463277C1.4133339479608051 1.6799995109463277 1.1866639928716456 1.7333311318193856 0.8800028219897599 1.83999934597899C0.5733341924876413 1.9333290609551554 0.34000368953036725 2.0133302215748587 0.18000410311837922 2.080000341631356C0.06000012460275424 1.9866706266551908 0 1.87332943359375 0 1.7399991383077331C0 1.7399991383077331 0 1.7333311318193856 0 1.7200000912561795C0 1.6666709565898659 0.013333949425097105 1.6333309241481284 0.04000008306850283 1.6199998835849223C0.5733341924876413 1.3799988879325567 1.0933342778954802 1.140000378486935 1.6000033227401131 0.8999993828345692C2.120003408147952 0.6466698328257415 2.5466712923728814 0.43999892478813557 2.8799970305879237 0.27999908975547316C3.2266736990201275 0.1199990061021363 3.4066750673110873 0.03999908858580509 3.4200011354608053 0.03999908858580509H3.460004201977401C3.5266594047934325 0.03999908858580509 3.573325505384887 0.07999892303363347 3.6000025037517656 0.15999908917063912C3.6266546400512003 0.24000000116966808 3.6466686043432204 0.30666614329537434 3.659994672492938 0.3600002503751766C3.659994672492938 0.3600002503751766 3.6333425361935032 0.5266656056894421 3.5800134015271894 0.8599988025247176C3.5266594047934325 1.1800009587967868 3.5000072684939973 1.6399989306364762 3.5000072684939973 2.2400001766640183V10.319995575123588C3.5000072684939973 10.61329338475459 3.5000072684939973 10.886701540430792 3.5000072684939973 11.139996283545198C3.5133333366437145 11.393291026659604 3.5466733690854517 11.599994255384887 3.6000025037517656 11.760006521451272C3.6266546400512003 11.82671144840219 3.7266747373764124 11.886703617143361 3.900013071592514 11.940007889742231C4.073326543741173 11.993287300273659 4.253327912032133 12.033290366790254 4.439992314397952 12.059992227224576C4.640007646980933 12.073293433306851 4.780005948755297 12.080006191516595 4.860012081788488 12.080006191516595C4.9000151483050844 12.133310464115466 4.9200042505296615 12.226692389433262 4.9200042505296615 12.360002795065325C4.933330318679379 12.493288338629943 4.9133412164548025 12.586695126015185 4.860012081788488 12.639999398614053C4.4600062786899715 12.613297538179731 4.093340508033193 12.593308435955157 3.7600147698181496 12.580007229872882C3.426664169535664 12.55330536943856 3.066661432953743 12.540004163356285 2.6800065600723872 12.540004163356285C2.3066628381002823 12.540004163356285 1.9666641209834042 12.55330536943856 1.6600029501015183 12.580007229872882C1.3533343205993997 12.593308435955157 1.000004562919315 12.613297538179731 0.6000037322342868 12.639999398614053C0.5466646527409957 12.586695126015185 0.5200050578213277 12.493288338629943 0.5200050578213277 12.360002795065325C0.5333336121777895 12.226692389433262 0.5600031519244351 12.133310464115466 0.6000037322342868 12.080006191516595C0.6800048928539901 12.080006191516595 0.8133327019332628 12.073293433306851 1.000004562919315 12.059992227224576C1.2000049782618292 12.033290366790254 1.3866644082141595 11.993287300273659 1.5600027424302614 11.940007889742231C1.7333336180261298 11.886703617143361 1.8266633330022952 11.82671144840219 1.8400043183924788 11.760006521451272C1.8933334530587924 11.599994255384887 1.9266635406735524 11.393291026659604 1.940004526063736 11.139996283545198C1.9533330804201978 10.886701540430792 1.9600035731152896 10.61329338475459 1.9600035731152896 10.319995575123588ZM13.104547128795906 4.860012081788488C13.877832012491172 4.860012081788488 14.531232006973871 5.033325553937147 15.06454821570445 5.38000222236935C15.611240216719633 5.726678890801553 16.031235122042727 6.166662898349223 16.324532931673726 6.700003969147246C16.617855603372174 7.219994109728107 16.764541801288843 7.759998214600989 16.764541801288843 8.319991421698445C16.764541801288843 8.986667760195974 16.617855603372174 9.593302205817444 16.324532931673726 10.139994206832625C16.044536328124998 10.673310415563208 15.664544489318503 11.133308387402895 15.184532553186793 11.519988122351695C14.717846685204803 11.89329206501589 14.19124323468397 12.180001426774364 13.60454816715219 12.379991897289901C13.01785309962041 12.580007229872882 12.417856826006357 12.680002465130649 11.804534484242584 12.680002465130649C11.551239741128178 12.680002465130649 11.231240071062853 12.6467121568238 10.84453547404661 12.580007229872882C10.47125639344986 12.50000109683969 10.131242759092514 12.379991897289901 9.824544295109463 12.220004493290961C9.771240022510593 12.180001426774364 9.6912338894774 12.086694087658898 9.58455075807733 11.940007889742231C9.477842764609816 11.793296829758122 9.424538492010946 11.639997321901483 9.424538492010946 11.480009917902542C9.424538492010946 11.19998845228637 9.504544625044138 10.97329612133651 9.664532029043079 10.800007511255297C9.837845501191737 10.626694039106638 10.031247523834745 10.540000009931145 10.244539200432557 10.540000009931145C10.51123459789901 10.540000009931145 10.71783837835452 10.646708003398658 10.86454943833863 10.859999679996468C11.02453684233757 11.059990150512006 11.184549108403955 11.239991518802967 11.344536512402895 11.40000378486935C11.5312506389036 11.586693049302614 11.751255073711159 11.720003454934675 12.004549816825564 11.800009587967867C12.271245214292021 11.866689652851342 12.531252715616173 11.900004823225636 12.784547458730579 11.900004823225636C13.131248989230226 11.900004823225636 13.4778510714601 11.806697484110169 13.824552601959745 11.620008219676908C14.184555338541665 11.419992887093926 14.484541044314971 11.0999932170286 14.724534581347104 10.660009209480933C14.964552980446681 10.206699133783545 15.084537317929025 9.606702860169491 15.084537317929025 8.859995526571328C15.084537317929025 8.446663655323093 14.977854186528955 8.020005715925143 14.764537647863701 7.579996846310028C14.564547177348164 7.126661908545198 14.237834749073093 6.7466700697387 13.78454953544315 6.439996467823093C13.331239459745763 6.119996797757769 12.724555289989407 5.960009393758828 11.964546750308969 5.960009393758828C11.751255073711159 5.960009393758828 11.464545711952685 5.993324564133122 11.104542975370762 6.060004629016596C10.744540238788842 6.11333376368291 10.48453273746469 6.17998896649894 10.324545333465748 6.259995099532133C10.284542266949153 6.259995099532133 10.244539200432557 6.2333181011652545 10.204536133915962 6.17998896649894C10.177834273481638 6.11333376368291 10.164533067399363 6.046678560866879 10.164533067399363 5.979998495983405C10.311244127383475 5.246666954669845 10.45785573909781 4.513335413356286 10.604541937014478 3.7800038720427263C10.751252996998588 3.0466723307291668 10.884538540563206 2.3666699240819207 11.004547740112994 1.7399991383077331C11.137833283677612 1.0999997981770833 11.237853381002825 0.5799997127692444 11.3045334458863 0.1800001251875883H14.184555338541665C14.451250736008122 0.1800001251875883 14.724534581347104 0.16666610117628886 15.004556046963277 0.1399990476363877C15.284552650512007 0.11333298857918432 15.517833429334393 0.08666593503928319 15.704547555835099 0.0599991301200565C15.891236820268361 0.020000016672183967 15.984544159383828 0 15.984544159383828 0C16.051249086334746 0.03999908858580509 16.104553358933615 0.0733329055106815 16.14453156338277 0.09999995905058262C16.19783583598164 0.12666601810778602 16.22453769641596 0.16666610117628886 16.22453769641596 0.21999896515271894C16.22453769641596 0.2600000427039195 16.19783583598164 0.3666657706567797 16.14453156338277 0.5399991324593927C16.104553358933615 0.699998967492055 16.0378484319827 0.8800003357830155 15.944541092867233 1.0800007511255296C15.86453495983404 1.2800011664680437 15.764539724576272 1.4533295558571682 15.644555387093927 1.6000008365333687C15.37783512756003 1.626670376280014 15.057835457494704 1.6533299711996823 14.684556376897953 1.6799995109463277C14.311252434233758 1.7066690506929734 13.871243564618643 1.7200000912561795 13.364554630120058 1.7200000912561795H11.724553213276836C11.604544013727049 2.3066702967205157 11.484534814177259 2.9066740289548023 11.364550476694916 3.519996370718573C11.257842483227401 4.119992644332627 11.144546041887358 4.693336781647246 11.02453684233757 5.240003920594986C11.291232239804026 5.133320789194916 11.6378343220339 5.046676484154308 12.064541985566738 4.979996419270833C12.504550855181849 4.899990286237641 12.851252385681496 4.860012081788488 13.104547128795906 4.860012081788488ZM19.869043300891597 11.499999020127118C19.869043300891597 11.006710739980578 19.989052500441385 10.660009209480933 20.229046037473516 10.459993876897952C20.46903957450565 10.260003406382415 20.755748936264123 10.160008171124646 21.089049812411723 10.160008171124646C21.43575134291137 10.160008171124646 21.729049152542373 10.260003406382415 21.969042689574504 10.459993876897952C22.22243688095869 10.660009209480933 22.349034528381004 11.006710739980578 22.349034528381004 11.499999020127118C22.349034528381004 11.980010956258827 22.22243688095869 12.326712486758474 21.969042689574504 12.540004163356285C21.729049152542373 12.753295839954095 21.43575134291137 12.86000383342161 21.089049812411723 12.86000383342161C20.755748936264123 12.86000383342161 20.46903957450565 12.753295839954095 20.229046037473516 12.540004163356285C19.989052500441385 12.326712486758474 19.869043300891597 11.980010956258827 19.869043300891597 11.499999020127118ZM19.869043300891597 2.939989199329096C19.869043300891597 2.4333300993114406 19.989052500441385 2.080000341631356 20.229046037473516 1.8799999262888418C20.46903957450565 1.6799995109463277 20.755748936264123 1.5799993032750705 21.089049812411723 1.5799993032750705C21.43575134291137 1.5799993032750705 21.729049152542373 1.6799995109463277 21.969042689574504 1.8799999262888418C22.22243688095869 2.080000341631356 22.349034528381004 2.4333300993114406 22.349034528381004 2.939989199329096C22.349034528381004 3.4200011354608053 22.22243688095869 3.766677803893008 21.969042689574504 3.9799943425582622C21.729049152542373 4.19333574329096 21.43575134291137 4.299994012623587 21.089049812411723 4.299994012623587C20.755748936264123 4.299994012623587 20.46903957450565 4.19333574329096 20.229046037473516 3.9799943425582622C19.989052500441385 3.766677803893008 19.869043300891597 3.4200011354608053 19.869043300891597 2.939989199329096ZM29.280554069562147 0.03999908858580509C29.61395439397952 0.03999908858580509 29.980669888771185 0.1399990476363877 30.380700553937146 0.3399987171168785C30.780731219103107 0.5266656056894421 31.120595681055793 0.806669667858404 31.400542560469635 1.1800009587967868C31.693914956302965 1.5533297635284251 31.84060115421963 2.0066696737067446 31.84060115421963 2.540008258298023C31.84060115421963 2.953340129546257 31.733942884887007 3.3333319683527542 31.52062634622175 3.6800086367849576C31.32073532397599 4.0266604431497175 31.073854994262007 4.326671010990466 30.780731219103107 4.579990616172317C30.50053571901483 4.83333508342161 30.247191251765535 5.033325553937147 30.020697817355224 5.180011751853813C30.393877449682204 5.233340886520127 30.79390811484816 5.386665256444209 31.220541192178672 5.6400097236935025C31.64717426950918 5.893329328875353 32.007177006091105 6.246669031382415 32.300549401924435 6.700003969147246C32.60734731417726 7.139987976694915 32.76074627030368 7.6799920815677964 32.76074627030368 8.319991421698445C32.76074627030368 8.986667760195974 32.614060072387005 9.593302205817444 32.320687676553675 10.139994206832625C32.04074079713983 10.673310415563208 31.66059978592867 11.133308387402895 31.18076188426907 11.519988122351695C30.713852257680088 11.89329206501589 30.187273669226695 12.180001426774364 29.600528877560027 12.379991897289901C29.014032706567797 12.580007229872882 28.41386239848164 12.680002465130649 27.800763815324856 12.680002465130649C27.54717072740113 12.680002465130649 27.22719591940325 12.6467121568238 26.840590770656778 12.580007229872882C26.467162517655368 12.50000109683969 26.127298055702685 12.379991897289901 25.820748764124293 12.220004493290961C25.767295319120763 12.180001426774364 25.687239461952686 12.086694087658898 25.580581192620055 11.940007889742231C25.47392292328743 11.793296829758122 25.420718098958332 11.639997321901483 25.420718098958332 11.480009917902542C25.420718098958332 11.19998845228637 25.500525335451975 10.97329612133651 25.660637049788136 10.800007511255297C25.83392565986935 10.626694039106638 26.027352544579802 10.540000009931145 26.240669083245056 10.540000009931145C26.50719044623941 10.540000009931145 26.71404284736935 10.646708003398658 26.860729045286018 10.859999679996468C27.02059213894774 11.059990150512006 27.180703853283898 11.239991518802967 27.34056694694562 11.40000378486935C27.52728107344633 11.586693049302614 27.74731037032133 11.720003454934675 28.00065483757062 11.800009587967867C28.267176200564972 11.866689652851342 28.52723342602401 11.900004823225636 28.780577893273303 11.900004823225636C29.127155113435734 11.900004823225636 29.473980954272598 11.806697484110169 29.82055817443503 11.620008219676908C30.180560911016947 11.419992887093926 30.48064606506003 11.0999932170286 30.72056501588983 10.660009209480933C30.96073258739407 10.206699133783545 31.08056775247175 9.606702860169491 31.08056775247175 8.859995526571328C31.08056775247175 8.32667931784075 30.96073258739407 7.859993449858757 30.72056501588983 7.459987646760241C30.48064606506003 7.046680637579449 30.167135394597455 6.719993071371822 29.78053024585099 6.479999534339689C29.40735061352401 6.240005997307557 29.007319948358052 6.119996797757769 28.58068687102754 6.119996797757769C28.367121711687854 6.119996797757769 28.147341035487287 6.153336830199506 27.920598980402545 6.2199920330155365C27.707282441737288 6.286672097899012 27.54070658986582 6.333338198490466 27.420622804113698 6.359990334789901C27.34056694694562 6.253332065457275 27.300539018361583 6.126659831832628 27.300539018361583 5.979998495983405C27.300539018361583 5.886666294800494 27.31396453478107 5.820011091984463 27.34056694694562 5.780008025467867C27.8606813978637 5.659998825918079 28.353944815942796 5.479997457627118 28.820605821857345 5.240003920594986C29.287266827771894 5.000010383562853 29.660695080773305 4.693336781647246 29.940641960187147 4.3200079769156075C30.23401435602048 3.9333282419668083 30.380700553937146 3.460004201977401 30.380700553937146 2.9000109948799437C30.380700553937146 2.3800009646451272 30.200699185646187 1.946670046345339 29.840696449064268 1.6000008365333687C29.480693712482346 1.2533291405146538 29.020745464777544 1.0800007511255296 28.460603085275423 1.0800007511255296C28.047146903689974 1.0800007511255296 27.687144167108052 1.1800009587967868 27.38059487552966 1.3799988879325567C27.07404558395127 1.5666707489186087 26.827165254237286 1.7666711642611228 26.640699748411016 1.9800001339600988C26.467162517655368 2.1800005493026133 26.347327352577686 2.3066702967205157 26.280697011829098 2.359999431386829C26.227243566825564 2.359999431386829 26.17403874249647 2.31333084458863 26.120585297492937 2.2200011296124647C26.067131852489407 2.126668928429555 26.040529440324857 2.0333292686264124 26.040529440324857 1.9399995536502472C26.240669083245056 1.6333309241481284 26.494013550494348 1.3400007938294491 26.80056284207274 1.0599992178672315C27.120537650070624 0.7666690875485522 27.487253144862287 0.5266656056894421 27.90070932644774 0.3399987171168785C28.313916887358758 0.1399990476363877 28.77386513506356 0.03999908858580509 29.280554069562147 0.03999908858580509ZM39.745246877206924 0.0599991301200565C40.66514337261652 0.0599991301200565 41.438353670109464 0.346666723605226 42.06512639036017 0.9200009160928672C42.70507600635593 1.4933301361670197 43.18516252868997 2.259999223715572 43.50513733668785 3.220010664945268C43.83853766110523 4.166658744924082 44.0051135129767 5.2066638881532485 44.0051135129767 6.340001232565324C44.0051135129767 7.473338576977401 43.83853766110523 8.520006754281427 43.50513733668785 9.4800057644774C43.17173701227048 10.426703568591103 42.685186352401125 11.193300556144068 42.04523673640537 11.779995623675847C41.41846401615466 12.35329003685558 40.651966476871465 12.639999398614053 39.745246877206924 12.639999398614053C38.865129689706926 12.639999398614053 38.105096287959036 12.35329003685558 37.46514667196328 11.779995623675847C36.825197055967514 11.193300556144068 36.33193363788841 10.426703568591103 35.985107797051555 9.4800057644774C35.65195609330862 8.520006754281427 35.485131620762715 7.473338576977401 35.485131620762715 6.340001232565324C35.485131620762715 5.2066638881532485 35.65195609330862 4.166658744924082 35.985107797051555 3.220010664945268C36.31850812146893 2.259999223715572 36.80505878133828 1.4933301361670197 37.445257018008476 0.9200009160928672C38.08520663400424 0.346666723605226 38.851952793961864 0.0599991301200565 39.745246877206924 0.0599991301200565ZM39.8451923883298 0.7800001281117585C39.29847552524718 0.7800001281117585 38.82510176112288 1.033329678120586 38.42507109595692 1.5400012091719633C38.03846594721045 2.0333292686264124 37.73838079316737 2.6999956622969634 37.52506425450212 3.540010335010593C37.31174771583686 4.38000014565678 37.20508944650423 5.313322157485876 37.20508944650423 6.340001232565324C37.20508944650423 7.353329377427613 37.31174771583686 8.286676251324153 37.52506425450212 9.139992130120056C37.73838079316737 9.980006802833687 38.02504043079096 10.653296451271187 38.38504316737288 11.160010247837219C38.75847142037429 11.666699182335805 39.185104497704806 11.91999392545021 39.66519102003884 11.91999392545021C40.25193581170551 11.91999392545021 40.73848647157486 11.660011286193503 41.12509162032133 11.139996283545198C41.51194538974223 10.620006142964336 41.79835640669139 9.926702530234817 41.98507053319209 9.060010859154307C42.185210176112285 8.193319188073799 42.285155687235175 7.2533341421698445 42.285155687235175 6.240005997307557C42.285155687235175 5.213326922228108 42.17849741790254 4.293330978548728 41.96518087923729 3.4799933042019773C41.76504123631709 2.6533295617055086 41.4783815986935 1.9999991810116526 41.10520196636652 1.5199996759136654C40.7451992297846 1.0266691302524718 40.32503028998941 0.7800001281117585 39.8451923883298 0.7800001281117585Z" fill="#8D0000"></path></svg> 