<?xml version="1.0" encoding="UTF-8"?> <svg xmlns="http://www.w3.org/2000/svg" viewBox="0 0 173.404296875 22.06005859375" fill="none"><path d="M5.420008656790346 6.579993452528368H9.400012063220462V8.000009734949117H5.420008656790346V12.120010875585374H3.9800034064301153V8.000009734949117H0V6.579993452528368H3.9800034064301153V2.440000845331637H5.420008656790346V6.579993452528368ZM24.24511893799532 1.9799997233823396C24.498504092838168 1.9799997233823396 24.771803256990726 1.9733309039535303 25.065166347712537 1.9600007609588888C25.358504452224423 1.9333304804856357 25.531908749099422 1.9200003374909942 25.585129376238292 1.9200003374909942C25.665085247996217 1.9200003374909942 25.70506318387518 1.9799997233823396 25.70506318387518 2.1000009937860233C25.70506318387518 2.2333299085633556 25.645096280056737 2.419999384287194 25.525162472419847 2.660006922336545C25.405228664782964 2.886681818770263 25.2785485804665 3.1333206969335374 25.14512221947046 3.399998515456142L20.0051090310924 14.37998857703305C19.96510610900351 14.419991499121938 19.898517859555117 14.440005453271343 19.80511940685789 14.440005453271343C19.658500327021795 14.440005453271343 19.478499670726762 14.406698835442183 19.2651174379728 14.34001064115409C19.051810163848614 14.260004796976315 18.945119047471632 14.173302648538815 18.945119047471632 14.080004140681286C19.278510046492254 13.57330878962536 19.64510771850234 12.959997280822227 20.045111953181287 12.23999465564211C20.44511618786023 11.519992030461996 20.8518167267989 10.760011469402919 21.2651136251576 9.96000300004503C21.691803132035755 9.15999453068714 22.091807366714697 8.373328697428855 22.46510134298451 7.600005500270172C22.8518129139837 6.826682303111491 23.191800272424352 6.126668645870857 23.485113390726315 5.499989514758195C23.791819117547732 4.859992733755854 24.031811663871128 4.353322368909852 24.20511601590643 3.9800034064301153C24.391812976461186 3.5933418078507744 24.485111484318715 3.399998515456142 24.485111484318715 3.399998515456142H19.525123938445606C19.138512312286114 3.399998515456142 18.845124235354376 3.5200072817228025 18.645109624909942 3.7599998280461993C18.445120000675434 3.999992374369597 18.27181564864013 4.380007641109059 18.12512161017426 4.899995655844741C18.111803960284583 4.980001500022515 18.031823102316736 5.020004422111401 17.88510407764094 5.020004422111401C17.84510115555205 5.020004422111401 17.778512906103657 5.006661786011798 17.68511445340643 4.980001500022515C17.605108609228655 4.953341214033231 17.545116719200287 4.9266809280439485 17.505113797111402 4.899995655844741C17.6785180939864 4.366665005009455 17.838504796132025 3.826663036124369 17.985123875968117 3.279989749189481C18.145110578113744 2.7199988123649135 18.258522984960376 2.2866704695098616 18.325111234408773 1.9799997233823396H24.24511893799532ZM37.16948588346541 11.019992983665796C37.16948588346541 13.393308133330333 37.58950407229377 15.653310820987931 38.429540449950466 17.8000010466386C39.082929839472264 19.453288584913093 39.962944153007925 20.759992405326912 41.069583390557455 21.71998757683042L40.769499009365994 22.059999921480998C38.70288958652287 20.433297710566013 37.249441755223344 18.313292757114553 36.40940537756664 15.700010047336544C35.92942028491985 14.220001874887428 35.68955266964607 12.660012844470462 35.68955266964607 11.019992983665796C35.68955266964607 7.526670974142201 36.676258099558716 4.560008297404089 38.64941909728476 2.1199999562094742C38.96949244641571 1.733330861767156 39.302808486806555 1.3599994061824567 39.64961708055656 1.0000005922133914C40.009418503467224 0.6399992796233339 40.382962341836276 0.30666824750652916 40.769499009365994 0L41.069583390557455 0.4200006984814031C39.64287080387698 1.5666703429507385 38.58295577888599 3.366666911417057 37.88958845348523 5.819987905259366C37.40960336083844 7.500010688152918 37.16948588346541 9.23332905681511 37.16948588346541 11.019992983665796ZM43.809821032961096 13.900003484386257C44.223092945109876 13.766702054439842 44.68983534649676 13.580005093885086 45.209798375022515 13.340012547561688C45.74300409480818 13.099995015028368 46.27620981459384 12.779996624527199 46.80966539647875 12.379992389848253C47.34312097836365 11.979988155169307 47.82310607101044 11.47998910837311 48.24962067441913 10.879995249459654C48.68962783118696 10.266708726866446 49.01619759489824 9.526692147536924 49.22982968975144 8.65999548389094C48.89626378726135 8.939990952303223 48.50972711973162 9.15999453068714 48.069719962963795 9.320006219042687C47.64295549745587 9.466700257508556 47.26291524450649 9.540009797426602 46.92959920411563 9.540009797426602C46.249724432074025 9.540009797426602 45.67629091431016 9.413304726900217 45.209798375022515 9.15999453068714C44.75629866489553 8.906659348264139 44.389750965305296 8.586660957762968 44.10965555205331 8.199999359183629C43.843052692160484 7.799995124504683 43.649659427346 7.386673239936059 43.52972561970911 6.960008719267831C43.42303450333213 6.5200015625 43.36981387619326 6.126668645870857 43.36981387619326 5.780009969380403C43.36981387619326 5.046664708100685 43.54296831096902 4.373336323059258 43.88977690471902 3.7599998280461993C44.24982818972893 3.1466633330331413 44.72981328237572 2.6533356042867435 45.329732182659406 2.2799991514600597C45.92965108294308 1.8933300570177414 46.596283163724785 1.699999257728071 47.3296284250045 1.699999257728071C47.91630463402827 1.699999257728071 48.44301393923361 1.833330671126396 48.909756340620504 2.1000009937860233C49.38974143326729 2.3533286803460465 49.79626706873649 2.6933385263756304 50.129832971226584 3.1200030470438582C50.462899149518194 3.5466675677120856 50.71625931815112 4.026677646568804 50.889663615026116 4.560008297404089C51.06306791190112 5.0799963121397695 51.14977006033861 5.600009313085375 51.14977006033861 6.119997327821055C51.14977006033861 7.119995421413455 50.98960845472352 8.066672943027287 50.669784967691825 8.96000490645263C50.36295430982078 9.853311883668049 49.8962119084339 10.633306398876531 49.2698076256304 11.299988452078079C48.81630791550342 11.80670878934393 48.28310219571776 12.273301273471272 47.66969074207493 12.699990780349424C47.0562792884321 13.1267052734375 46.42962514352936 13.493302945447587 45.789728307366715 13.800008672269001C45.16307416246398 14.09329680436104 44.5763979534402 14.313300382744956 44.029699680295394 14.459994421210824C43.93625125517832 14.459994421210824 43.87628435135987 14.37998857703305 43.84979896884006 14.220001874887428C43.823063724221 14.05999018653188 43.809821032961096 13.9532990701549 43.809821032961096 13.900003484386257ZM49.38974143326729 7.799995124504683C49.416226815787105 7.5866628641705685 49.43621578372659 7.366659285786653 49.44970833708573 7.140009375562861C49.46295102834564 6.913334479129143 49.469697305025214 6.686659582695425 49.469697305025214 6.460009672471632C49.469697305025214 6.0200025157038 49.42297309246668 5.560006390996488 49.32977452944885 5.0799963121397695C49.23632610433177 4.600011219492975 49.0964033287554 4.153332744675342 48.909756340620504 3.740010860106718C48.723109352485594 3.32666398932817 48.48299187511257 2.9933229627273956 48.189653770600685 2.7399877803043946C47.896315666088796 2.4733299507497297 47.55625334901838 2.3400010359723975 47.16971668148865 2.3400010359723975C46.55630522784582 2.3400010359723975 46.04308847599964 2.6333216501373378 45.629816563850866 3.219997859161113C45.229787342962 3.806674068184888 45.02964780146794 4.539994343254683 45.02964780146794 5.420008656790346C45.02964780146794 5.966681943725234 45.10960367322587 6.486669958460914 45.26976527884096 6.979997687207313C45.429677022356806 7.460007766064031 45.689783467669315 7.846669364643372 46.04983475267921 8.14000746915526C46.40963617558988 8.433320587457223 46.88312485365634 8.579989639713167 47.46980106268012 8.579989639713167C47.74964661383286 8.579989639713167 48.056227409604645 8.540011703834203 48.38979331209474 8.46000585965643C48.7363520437455 8.366657379379053 49.069668084136346 8.146678787205062 49.38974143326729 7.799995124504683ZM57.394323644632564 12.080007953496487V4.179993030664625C57.394323644632564 3.8999975622523415 57.36084212333393 3.706679256067633 57.29412894283591 3.599988139690652C57.24090831569705 3.4933220095235953 57.14096347599964 3.4400014375450287 56.994294423743696 3.4400014375450287C56.84762537148775 3.4400014375450287 56.62100044747388 3.4933220095235953 56.31416978960284 3.599988139690652C56.00758899383105 3.6933366199680293 55.77421779313761 3.773342464145803 55.61430604962176 3.840005672223973C55.494122379885624 3.74668217815652 55.43415547606718 3.633319743729737 55.43415547606718 3.4999933275733968C55.43415547606718 3.4999933275733968 55.43415547606718 3.4933220095235953 55.43415547606718 3.4800043596339156C55.43415547606718 3.426658801445425 55.447398167327094 3.39332719740634 55.47413341194615 3.3800095475166607C56.00758899383105 3.1399920149833394 56.527552022356815 2.8999994686599426 57.03427235962266 2.660006922336545C57.55423538814841 2.406669241292552 57.980999853656336 2.200000803145263 58.31431589404719 2.039999109273685C58.66087462569794 1.8799999140230996 58.84102519925252 1.799999067087311 58.854267890512425 1.799999067087311H58.89424582639139C58.960959006889404 1.799999067087311 59.0074333573487 1.8399994905552055 59.03416860196776 1.9200003374909942C59.06090384658681 1.9999986858057908 59.0808928145263 2.0666693897469384 59.094135505786205 2.1199999562094742C59.094135505786205 2.1199999562094742 59.06740026116715 2.2866704695098616 59.01417963402828 2.6200040002476586C58.960959006889404 2.9400023907488295 58.93422376227035 3.399998515456142 58.93422376227035 3.999992374369597V12.080007953496487C58.93422376227035 12.373296085588526 58.93422376227035 12.646695194580781 58.93422376227035 12.900005390793858C58.947466453530254 13.15329060079701 58.980947974828894 13.36000151550117 59.03416860196776 13.519988217646794C59.06090384658681 13.586701398144813 59.160848686284226 13.64669328817318 59.33425298315922 13.699988873941821C59.50740741793498 13.753309445920388 59.687557991489555 13.793287381799352 59.87420497962446 13.819997640208483C60.07409465901927 13.833290303888239 60.214267296694885 13.84001159435789 60.29422316845281 13.84001159435789C60.334201104331775 13.893307180126532 60.35419007227126 13.986705632823757 60.35419007227126 14.120007062770174C60.36743276353116 14.253308492716588 60.34744379559168 14.346706945413816 60.29422316845281 14.400002531182457C59.89419394756394 14.373292272773325 59.52739638587446 14.353303304833842 59.19433020758285 14.34001064115409C58.861014167192 14.313300382744956 58.5009628821821 14.300007719065201 58.11417635255314 14.300007719065201C57.740882376283324 14.300007719065201 57.4008200592129 14.313300382744956 57.0942392634411 14.34001064115409C56.787408605570064 14.353303304833842 56.434103597239734 14.373292272773325 56.034324238450104 14.400002531182457C55.980853749211995 14.346706945413816 55.95411850459294 14.253308492716588 55.95411850459294 14.120007062770174C55.96761105795209 13.986705632823757 55.9940964404719 13.893307180126532 56.034324238450104 13.84001159435789C56.11428011020803 13.84001159435789 56.24745660910483 13.833290303888239 56.434103597239734 13.819997640208483C56.634243138733794 13.793287381799352 56.8208901268687 13.753309445920388 56.994294423743696 13.699988873941821C57.16744885851945 13.64669328817318 57.260897283636524 13.586701398144813 57.274139974896435 13.519988217646794C57.32761046413455 13.36000151550117 57.36084212333393 13.15329060079701 57.37433467669308 12.900005390793858C57.387577367952986 12.646695194580781 57.394323644632564 12.373296085588526 57.394323644632564 12.080007953496487ZM71.13873799981988 1.760001142240409C71.24542911619687 1.760001142240409 71.31863871127523 1.799999067087311 71.35861664715418 1.8799999140230996C71.41208713639229 1.9600007609588888 71.43882238101135 2.039999109273685 71.43882238101135 2.1199999562094742V9.820005265838885H72.59868224569975C72.66539542619776 9.820005265838885 72.72536233001621 9.90001111001666 72.77883281925432 10.059997812162283C72.83205344639319 10.22000950051783 72.85878869101225 10.406706461072586 72.85878869101225 10.61998874898685C72.85878869101225 10.766707773662645 72.83879972307277 10.87329894519993 72.7988217871938 10.940012125697946H71.43882238101135V14.359999609093569C71.43882238101135 14.359999609093569 71.3920981684528 14.373292272773325 71.29864974333573 14.400002531182457C71.2186938715778 14.440005453271343 70.98532267088437 14.459994421210824 70.59878600335465 14.459994421210824C70.13204360196775 14.459994421210824 69.89867240127433 14.406698835442183 69.89867240127433 14.300007719065201V10.940012125697946H64.39870787272605C64.33199469222804 10.90000920360906 64.27877406508915 10.846688631630494 64.23879612921019 10.780000437342398C64.21206088459114 10.699994593164625 64.19881819333123 10.633306398876531 64.19881819333123 10.58001081310789L70.5588080674757 2.2600001890366084C70.62552124797371 2.1799993421008192 70.71871981099153 2.0799995327415797 70.83865361862843 1.9600007609588888C70.95883728836456 1.8266693475605638 71.05878212806196 1.760001142240409 71.13873799981988 1.760001142240409ZM69.89867240127433 4.1000121726967755L65.51883966363474 9.820005265838885H69.89867240127433V4.1000121726967755ZM78.62335718265939 11.019992983665796C78.62335718265939 9.23332905681511 78.38323970528639 7.500010688152918 77.9032546126396 5.819987905259366C77.20988728723883 3.353324275317453 76.15671853892742 1.5533302054721272 74.74324864350685 0.4200006984814031L75.02334405675883 0C75.7966672539175 0.6133289991500811 76.51002354725775 1.3199989827145624 77.16341293677954 2.1199999562094742C79.12333124324567 4.533323025204881 80.10329039647874 7.500010688152918 80.10329039647874 11.019992983665796C80.10329039647874 12.660012844470462 79.86342278120497 14.220001874887428 79.38343768855817 15.700010047336544C78.54340131090147 18.313292757114553 77.08995347960195 20.433297710566013 75.02334405675883 22.059999921480998L74.74324864350685 21.71998757683042C75.82340249853657 20.773310055216587 76.69667053539266 19.466706179642472 77.36330261617435 17.8000010466386C78.20333899383105 15.653310820987931 78.62335718265939 13.393308133330333 78.62335718265939 11.019992983665796ZM93.68329549036383 12.080007953496487V4.179993030664625C93.68329549036383 3.8999975622523415 93.64981396906519 3.706679256067633 93.58335065066643 3.599988139690652C93.52988016142832 3.4933220095235953 93.42993532173091 3.4400014375450287 93.28326626947496 3.4400014375450287C93.13659721721902 3.4400014375450287 92.90997229320516 3.4933220095235953 92.60339149743335 3.599988139690652C92.29656083956232 3.6933366199680293 92.06343950096812 3.773342464145803 91.90327789535301 3.840005672223973C91.78334408771615 3.74668217815652 91.7233771838977 3.633319743729737 91.7233771838977 3.4999933275733968C91.7233771838977 3.4999933275733968 91.7233771838977 3.4933220095235953 91.7233771838977 3.4800043596339156C91.7233771838977 3.426658801445425 91.7366198751576 3.39332719740634 91.76335511977665 3.3800095475166607C92.29656083956232 3.1399920149833394 92.81652386808808 2.8999994686599426 93.32324420535393 2.660006922336545C93.84320723387968 2.406669241292552 94.26997169938761 2.200000803145263 94.60328773977847 2.039999109273685C94.94984647142923 1.8799999140230996 95.1299970449838 1.799999067087311 95.1432397362437 1.799999067087311H95.18321767212265C95.24993085262068 1.799999067087311 95.29665506517921 1.8399994905552055 95.32339030979827 1.9200003374909942C95.3498756923181 1.9999986858057908 95.36986466025756 2.0666693897469384 95.38335721361672 2.1199999562094742C95.38335721361672 2.1199999562094742 95.35662196899766 2.2866704695098616 95.30340134185879 2.6200040002476586C95.24993085262068 2.9400023907488295 95.22319560800162 3.399998515456142 95.22319560800162 3.999992374369597V12.080007953496487C95.22319560800162 12.373296085588526 95.22319560800162 12.646695194580781 95.22319560800162 12.900005390793858C95.23668816136076 13.15329060079701 95.26991982056016 13.36000151550117 95.32339030979827 13.519988217646794C95.3498756923181 13.586701398144813 95.4498205320155 13.64669328817318 95.62322482889049 13.699988873941821C95.79662912576549 13.753309445920388 95.97652983722082 13.793287381799352 96.16342668745497 13.819997640208483C96.36331636684979 13.833290303888239 96.50323914242615 13.84001159435789 96.58319501418407 13.84001159435789C96.62342281216229 13.893307180126532 96.64341178010176 13.986705632823757 96.64341178010176 14.120007062770174C96.65665447136166 14.253308492716588 96.6366655034222 14.346706945413816 96.58319501418407 14.400002531182457C96.18341565539446 14.373292272773325 95.81661809370497 14.353303304833842 95.48330205331412 14.34001064115409C95.14998601292328 14.313300382744956 94.78993472791338 14.300007719065201 94.40339806038365 14.300007719065201C94.02985422201459 14.300007719065201 93.69004176704341 14.313300382744956 93.38321110917236 14.34001064115409C93.07663031340057 14.353303304833842 92.72332530507025 14.373292272773325 92.32329608418138 14.400002531182457C92.26982559494327 14.346706945413816 92.24334021242346 14.253308492716588 92.24334021242346 14.120007062770174C92.25658290368337 13.986705632823757 92.28331814830241 13.893307180126532 92.32329608418138 13.84001159435789C92.4032519559393 13.84001159435789 92.53667831693534 13.833290303888239 92.72332530507025 13.819997640208483C92.92321498446506 13.793287381799352 93.10986197259996 13.753309445920388 93.28326626947496 13.699988873941821C93.45667056634997 13.64669328817318 93.54986912936779 13.586701398144813 93.56336168272693 13.519988217646794C93.61658230986582 13.36000151550117 93.64981396906519 13.15329060079701 93.66330652242435 12.900005390793858C93.67654921368425 12.646695194580781 93.68329549036383 12.373296085588526 93.68329549036383 12.080007953496487ZM105.0077954143777 1.799999067087311C105.34086159266931 1.799999067087311 105.70790901645803 1.8999988764465507 106.10768837524766 2.1000009937860233C106.50771759613653 2.2866704695098616 106.84777991320695 2.566658442059168 107.12787532645893 2.9400023907488295C107.42071370677233 3.313321353228566 107.56788248322677 3.766671146096001 107.56788248322677 4.300001796931285C107.56788248322677 4.713323681499911 107.4606916426513 5.0933389482393725 107.24780913409582 5.439997624729827C107.047919454701 5.786681287430206 106.80080583854918 6.08666572378197 106.50771759613653 6.3400009062049705C106.2278720449838 6.5933360886279715 105.9747617384501 6.793325712862482 105.747886952337 6.939994765118426C106.12093106650757 6.993340323306917 106.52071042529718 7.146680693612662 106.94772475290435 7.399990889825738C107.37473908051153 7.653326072248738 107.73479036552143 8.00668105299892 108.02787860793408 8.46000585965643C108.3347092658051 8.899988030214336 108.48787473264139 9.439989999099424 108.48787473264139 10.08001176631169C108.48787473264139 10.746693819513238 108.34070595618695 11.353309024056646 108.04786757587357 11.900007297201459C107.76777216262158 12.43331296182682 107.3877319096722 12.893309086534131 106.9077468170254 13.279995671323396C106.44075455353926 13.65328964759321 105.91479483463166 13.940006406475144 105.32786876350865 14.139996030709653C104.74069283028639 14.34001064115409 104.14077393000271 14.440005453271343 103.52786220055835 14.440005453271343C103.27475189402467 14.440005453271343 102.95492840699298 14.406698835442183 102.56789201526476 14.34001064115409C102.19484790109419 14.260004796976315 101.85478558402377 14.139996030709653 101.5477050640535 13.98000932856403C101.49473429901386 13.940006406475144 101.41477842725594 13.846707898617616 101.30783744877972 13.699988873941821C101.20089647030349 13.553294835475954 101.14792570526387 13.40000443759006 101.14792570526387 13.23999274923451C101.14792570526387 12.959997280822227 101.22788157702179 12.733297398178586 101.38779332053764 12.559993046143282C101.56069789321415 12.38668869410798 101.75484074432637 12.300011531880404 101.96772325288184 12.300011531880404C102.23482583697317 12.300011531880404 102.44071220674981 12.406702648257385 102.58788098320424 12.620009922381573C102.7477927267201 12.819999546616085 102.90770447023596 13.000000202911114 103.06786607585106 13.160011891266661C103.25476292608519 13.346708851821417 103.47489143551873 13.480010281767832 103.72775187995316 13.559991139735681C103.9948544640445 13.626704320233701 104.25471104725776 13.660010938062861 104.50782135379143 13.660010938062861C104.85487980964068 13.660010938062861 105.20068895499371 13.566712430205332 105.54774741084293 13.379990483440652C105.90779869585285 13.180000859206142 106.2078830770443 12.860002468704971 106.44775069231808 12.41999531193714C106.68786816969111 11.966695491489553 106.80780197732798 11.366701632576099 106.80780197732798 10.61998874898685C106.80780197732798 10.086708070571417 106.68786816969111 9.619990655394451 106.44775069231808 9.220011406925432C106.2078830770443 8.806664536146883 105.89480586669218 8.479994827595911 105.50776947496398 8.240002281272515C105.13472536079341 8.000009734949117 104.73469613990454 7.880000968682457 104.30793167439661 7.880000968682457C104.0947993037419 7.880000968682457 103.8749206564076 7.913332572721542 103.64779600819524 7.979995780799712C103.43491349963978 8.046658988877882 103.26775575524586 8.09333322901657 103.14782194760897 8.119993515005854C103.06786607585106 8.013327384838796 103.02788813997208 7.886672286732258 103.02788813997208 7.7400032344763146C103.02788813997208 7.646679740408862 103.04088096913274 7.579991546120767 103.06786607585106 7.5399886240318805C103.5878291043768 7.4200048439751445 104.08080702618426 7.240004187680115 104.5477992896704 7.000011641356719C105.01479155315651 6.759994108823397 105.38783566732708 6.45333835442183 105.66793108057907 6.079994405732169C105.96076946089246 5.693332807152828 106.10768837524766 5.219994046345912 106.10768837524766 4.660003109521344C106.10768837524766 4.139990108575738 105.92778766379233 3.706679256067633 105.56773637878243 3.359995593367255C105.20768509377251 3.0133369168768014 104.7476889690652 2.8400075786315746 104.18774800466048 2.8400075786315746C103.77472595461094 2.8400075786315746 103.41492453170028 2.9400023907488295 103.10784401173001 3.1399920149833394C102.80076349175972 3.32666398932817 102.55489918610411 3.5266785997726044 102.36775247377071 3.740010860106718C102.19484790109419 3.9400004843412284 102.07491409345731 4.0666805686576915 102.0077011887608 4.1200011406362576C101.95473042372117 4.1200011406362576 101.90076021028457 4.073326900497568 101.84778944524496 3.9800034064301153C101.79481868020532 3.8866799123626623 101.76783357348702 3.7933314320852842 101.76783357348702 3.7000079380178312C101.96772325288184 3.39332719740634 102.22083355941552 3.0999890928944525 102.52791407938581 2.8199936244821684C102.8477375664175 2.526680506180205 103.21478499020623 2.2866704695098616 103.62780704025576 2.1000009937860233C104.0408290903053 1.8999988764465507 104.5008252150126 1.799999067087311 105.0077954143777 1.799999067087311ZM118.11281265760086 1.9799997233823396C118.36592296413455 1.9799997233823396 118.63877237650847 1.9733309039535303 118.93286006731809 1.9600007609588888C119.22569844763149 1.9333304804856357 119.39885288240724 1.9200003374909942 119.45282309584384 1.9200003374909942C119.53277896760176 1.9200003374909942 119.57275690348072 1.9799997233823396 119.57275690348072 2.1000009937860233C119.57275690348072 2.2333299085633556 119.51278999966229 2.419999384287194 119.39285619202539 2.660006922336545C119.27292238438851 2.886681818770263 119.14574257587356 3.1333206969335374 119.01281593907602 3.399998515456142L113.87290269553765 14.37998857703305C113.8329247596587 14.419991499121938 113.76571185496218 14.440005453271343 113.6727631540436 14.440005453271343C113.5258442396884 14.440005453271343 113.34569366613383 14.406698835442183 113.13281115757835 14.34001064115409C112.9189292006259 14.260004796976315 112.81273780844741 14.173302648538815 112.81273780844741 14.080004140681286C113.14580398673903 13.57330878962536 113.51285141052774 12.959997280822227 113.91288063141661 12.23999465564211C114.31290985230548 11.519992030461996 114.7189357635762 10.760011469402919 115.13270739992346 9.96000300004503C115.55872227913365 9.15999453068714 115.95875150002252 8.373328697428855 116.33279506259007 7.600005500270172C116.71883200592129 6.826682303111491 117.05889432299172 6.126668645870857 117.3527321517021 5.499989514758195C117.65881322327539 4.859992733755854 117.8989307006484 4.353322368909852 118.0728347217219 3.9800034064301153C118.25873212355907 3.5933418078507744 118.35293013497389 3.399998515456142 118.35293013497389 3.399998515456142H113.39291760289085C113.00588121116265 3.399998515456142 112.71279296875001 3.5200072817228025 112.5129032893552 3.7599998280461993C112.31276374786114 3.999992374369597 112.13885972678764 4.380007641109059 111.99269039873019 4.899995655844741C111.97869812117254 4.980001500022515 111.89874224941462 5.020004422111401 111.75282278345641 5.020004422111401C111.71284484757746 5.020004422111401 111.64588180498018 5.006661786011798 111.55293310406161 4.980001500022515C111.47272737020442 4.953341214033231 111.41276046638599 4.9266809280439485 111.37278253050702 4.899995655844741C111.54568710318352 4.366665005009455 111.70584870879863 3.826663036124369 111.85276762315382 3.279989749189481C112.01292922876891 2.7199988123649135 112.12586689762698 2.2866704695098616 112.19282994022424 1.9799997233823396H118.11281265760086ZM121.59688976945245 9.759988389600595V8.199999359183629H126.43671863179935V9.759988389600595H121.59688976945245ZM132.56183813265488 1.8200005281317544C133.48183038206952 1.8200005281317544 134.25590316552595 2.106669813214833 134.88180772413097 2.6799958902760266C135.52170456029359 3.253329463200198 136.0016896529404 4.020006328519002 136.32176300207132 4.980001500022515C136.6558286287599 5.926679021636347 136.8217370626576 6.966680037317634 136.8217370626576 8.100004547066373C136.8217370626576 9.23332905681511 136.6558286287599 10.280001390546198 136.32176300207132 11.239996562049711C135.98869682377972 12.186699069873468 135.50171559235412 12.9533009765625 134.86181875619147 13.5400021717962C134.23591419758645 14.113310758510448 133.46883755290884 14.400002531182457 132.56183813265488 14.400002531182457C131.68182381911924 14.400002531182457 130.92174331322047 14.113310758510448 130.2818464770578 13.5400021717962C129.64169977879592 12.9533009765625 129.14872185698846 12.186699069873468 128.80191326323848 11.239996562049711C128.46884708494687 10.280001390546198 128.3019392026522 9.23332905681511 128.3019392026522 8.100004547066373C128.3019392026522 6.966680037317634 128.46884708494687 5.926679021636347 128.80191326323848 4.980001500022515C129.1357290278278 4.020006328519002 129.62171081085646 3.253329463200198 130.26185750911836 2.6799958902760266C130.90175434528098 2.106669813214833 131.66883098995856 1.8200005281317544 132.56183813265488 1.8200005281317544ZM132.6617829723523 2.5399981560698848C132.11583428550523 2.5399981560698848 131.64184588324025 2.793333338492886 131.2418166623514 3.300003703338887C130.85577971902018 3.7933314320852842 130.5556953378287 4.459988499076909 130.34181338087626 5.299999890523686C130.12893087232078 6.140011281970461 130.0217400317453 7.073321181274766 130.0217400317453 8.100004547066373C130.0217400317453 9.113320290548451 130.12893087232078 10.04670514848253 130.34181338087626 10.90000920360906C130.5556953378287 11.739995608845911 130.84178744146251 12.413299007677413 131.20183872647243 12.919994358733339C131.57588228904 13.426689709789265 132.00189716825017 13.679999906002342 132.48188226089698 13.679999906002342C133.06880833201998 13.679999906002342 133.55578956344561 13.419993405529539 133.94182650677683 12.900005390793858C134.32886289850504 12.379992389848253 134.61570458843659 11.686700023077268 134.801851852373 10.820003359431286C135.0017415317678 9.953306695785303 135.10168637146523 9.013325478431195 135.10168637146523 8.000009734949117C135.10168637146523 6.973326369157511 134.99574484138597 6.053334119742885 134.78186288443354 5.240008000495317C134.58172334293948 4.413339245148145 134.29588110140492 3.7599998280461993 133.92183753883734 3.279989749189481C133.56178625382745 2.7866620204430834 133.1417680649991 2.5399981560698848 132.6617829723523 2.5399981560698848ZM143.52678649585735 6.619996374617255C144.2069111299982 6.619996374617255 144.77384823318172 6.746676458933718 145.22684821911022 7.000011641356719C145.69384048259636 7.2533218375697945 146.0598884579881 7.579991546120767 146.3267411799802 7.979995780799712C146.60683659323217 8.366682365588977 146.806726272627 8.780004250157601 146.92690994236312 9.220011406925432C147.04684375 9.646700913803585 147.10681065381843 10.033312539963076 147.10681065381843 10.379996202663456C147.10681065381843 11.09999882784357 146.92690994236312 11.773302226675073 146.5668586573532 12.400006343997658C146.21980020150397 13.013292866590868 145.74681124763597 13.513291913387068 145.14689234735232 13.900003484386257C144.55971641413004 14.27329746065607 143.89383391964608 14.459994421210824 143.14674624290797 14.459994421210824C142.55982017178493 14.459994421210824 142.02686431409853 14.333289350684439 141.54687922145172 14.080004140681286C141.07988695796558 13.813301335948758 140.67985773707673 13.466692631878153 140.34679155878513 13.040003125C140.01372538049353 12.613288631911924 139.75386879728026 12.139999843524855 139.5667220849469 11.620011828789174C139.39381751227037 11.086706164163814 139.3068655017336 10.559996858958483 139.3068655017336 10.040008844222802C139.3068655017336 9.040010750630403 139.46677724524946 8.09333322901657 139.7868505943804 7.200001265591228C140.10692394351133 6.306669302165886 140.57391620699747 5.526674786957403 141.1868279364418 4.859992733755854C141.65382019992796 4.353322368909852 142.1867760576144 3.8866799123626623 142.78669495789805 3.45999040548451C143.39985654944167 3.0333258848162825 144.01976441766482 2.666678240386347 144.64691828676604 2.3599999983958484C145.28681512292866 2.053329252268327 145.87973788443355 1.833330671126396 146.4269358817768 1.699999257728071C146.51988458269543 1.699999257728071 146.5798514865139 1.7800001046638598 146.60683659323217 1.9399992999144453C146.6338216999505 2.0866708507913816 146.6468145291111 2.193329485095461 146.6468145291111 2.2600001890366084C146.2337924790616 2.393329103813941 145.75980407679666 2.5800010781587717 145.22684821911022 2.8199936244821684C144.70688519058447 3.06001115701549 144.1799260232799 3.3800095475166607 143.64672030349425 3.779988795985681C143.11376444580782 4.179993030664625 142.63377935316103 4.686663395510627 142.20676502555384 5.299999890523686C141.7797506979467 5.899993749437139 141.45393052053316 6.633339010716858 141.2268058723208 7.500010688152918C141.57386432817 7.21999023353071 141.95990127150125 7.006657973196596 142.38691559910842 6.859988920940652C142.81392992671562 6.70000221879503 143.19372031756575 6.619996374617255 143.52678649585735 6.619996374617255ZM141.06689412880493 8.360011047539174C141.03990902208665 8.573343307873289 141.01992005414715 8.79332190004728 141.0069272249865 9.019996796480998C140.99368453372657 9.246671692914715 140.986938257047 9.473296616928584 140.986938257047 9.699996499572226C140.986938257047 10.140003656340058 141.03391233170478 10.599999781047371 141.12686103262337 11.080009859904088C141.21980973354198 11.559994952550884 141.35973250911832 12.006698413578441 141.54687922145172 12.41999531193714C141.74676890084652 12.83329221029584 141.99388251699838 13.173304554946416 142.2867208973118 13.440007359678946C142.57980913972443 13.693292569682097 142.91987145679485 13.819997640208483 143.30690784852305 13.819997640208483C143.93381185552502 13.819997640208483 144.44677874527198 13.526709508116443 144.84680796616084 12.940008312882746C145.24683718704972 12.353307117649045 145.44672686644452 11.620011828789174 145.44672686644452 10.739997515253512C145.44672686644452 10.180006578428944 145.35977485590777 9.65999357748334 145.18687028323126 9.180008484836545C145.02670867761617 8.699998405979828 144.7668520944029 8.313336807400487 144.40680080939302 8.0199987028886C144.0467495243831 7.726660598376712 143.57376057051513 7.579991546120767 142.98683449939213 7.579991546120767C142.70673908614015 7.579991546120767 142.39391173788724 7.626665786259456 142.046853282038 7.719989280326909C141.7137871037464 7.799995124504683 141.38671761583666 8.013327384838796 141.06689412880493 8.360011047539174ZM149.33083319918498 9.759988389600595V8.199999359183629H154.17091192363114V9.759988389600595H149.33083319918498ZM160.29678101078443 1.8200005281317544C161.216773260199 1.8200005281317544 161.98984659525846 2.106669813214833 162.61675060226045 2.6799958902760266C163.25689730052235 3.253329463200198 163.7368823931691 4.020006328519002 164.05670588020084 4.980001500022515C164.38977205849244 5.926679021636347 164.55692980288634 6.966680037317634 164.55692980288634 8.100004547066373C164.55692980288634 9.23332905681511 164.38977205849244 10.280001390546198 164.05670588020084 11.239996562049711C163.7228901156115 12.186699069873468 163.23690833258286 12.9533009765625 162.59676163432096 13.5400021717962C161.969857627319 14.113310758510448 161.2027809826414 14.400002531182457 160.29678101078443 14.400002531182457C159.41676669724873 14.400002531182457 158.6569360534492 14.113310758510448 158.01678935518734 13.5400021717962C157.3768925190247 12.9533009765625 156.88291514882025 12.186699069873468 156.536856141368 11.239996562049711C156.20279051467938 10.280001390546198 156.03688208078168 9.23332905681511 156.03688208078168 8.100004547066373C156.03688208078168 6.966680037317634 156.20279051467938 5.926679021636347 156.536856141368 4.980001500022515C156.8699223196596 4.020006328519002 157.3569035510852 3.253329463200198 157.99680038724784 2.6799958902760266C158.6366972234105 2.106669813214833 159.4027744196911 1.8200005281317544 160.29678101078443 1.8200005281317544ZM160.39672585048183 2.5399981560698848C159.84977771523774 2.5399981560698848 159.3767887613698 2.793333338492886 158.9767595404809 3.300003703338887C158.58972314875268 3.7933314320852842 158.28988862966048 4.459988499076909 158.07675625900575 5.299999890523686C157.8628743020533 6.140011281970461 157.75668290987483 7.073321181274766 157.75668290987483 8.100004547066373C157.75668290987483 9.113320290548451 157.8628743020533 10.04670514848253 158.07675625900575 10.90000920360906C158.28988862966048 11.739995608845911 158.57673031959206 12.413299007677413 158.93678160460195 12.919994358733339C159.30982571877252 13.426689709789265 159.73684004637968 13.679999906002342 160.21682513902647 13.679999906002342C160.80275176175252 13.679999906002342 161.28973299317812 13.419993405529539 161.67676938490632 12.900005390793858C162.06280632823757 12.379992389848253 162.34989788026837 11.686700023077268 162.53679473050252 10.820003359431286C162.73693427199657 9.953306695785303 162.83687911169397 9.013325478431195 162.83687911169397 8.000009734949117C162.83687911169397 6.973326369157511 162.72968827111853 6.053334119742885 162.51680576256305 5.240008000495317C162.31691608316822 4.413339245148145 162.02982453113742 3.7599998280461993 161.65678041696688 3.279989749189481C161.29672913195697 2.7866620204430834 160.8767109431286 2.5399981560698848 160.39672585048183 2.5399981560698848ZM170.4409323779719 12.080007953496487V4.179993030664625C170.4409323779719 3.8999975622523415 170.4077007187725 3.706679256067633 170.34073767617525 3.599988139690652C170.28776691113563 3.4933220095235953 170.1878220714382 3.4400014375450287 170.04090315708302 3.4400014375450287C169.89473382902557 3.4400014375450287 169.66785904291248 3.4933220095235953 169.36077852294218 3.599988139690652C169.05469745136887 3.6933366199680293 168.82082652647694 3.773342464145803 168.66091478296107 3.840005672223973C168.54073111322495 3.74668217815652 168.48076420940652 3.633319743729737 168.48076420940652 3.4999933275733968C168.48076420940652 3.4999933275733968 168.48076420940652 3.4933220095235953 168.48076420940652 3.4800043596339156C168.48076420940652 3.426658801445425 168.49475648696415 3.39332719740634 168.52074214528548 3.3800095475166607C169.05469745136887 3.1399920149833394 169.57491034199387 2.8999994686599426 170.080881092962 2.660006922336545C170.60084412148774 2.406669241292552 171.02785844909494 2.200000803145263 171.36092462738654 2.039999109273685C171.70773322113655 1.8799999140230996 171.8878837946911 1.799999067087311 171.90087662385176 1.799999067087311H171.94085455973072C172.00781760232798 1.799999067087311 172.0547916769858 1.8399994905552055 172.0807773353071 1.9200003374909942C172.1077624420254 1.9999986858057908 172.12775140996487 2.0666693897469384 172.14074423912552 2.1199999562094742C172.14074423912552 2.1199999562094742 172.11475858080422 2.2866704695098616 172.06078836736762 2.6200040002476586C172.00781760232798 2.9400023907488295 171.9808324956097 3.399998515456142 171.9808324956097 3.999992374369597V12.080007953496487C171.9808324956097 12.373296085588526 171.9808324956097 12.646695194580781 171.9808324956097 12.900005390793858C171.99482477316732 13.15329060079701 172.02780657026747 13.36000151550117 172.0807773353071 13.519988217646794C172.1077624420254 13.586701398144813 172.2077072817228 13.64669328817318 172.38086171649857 13.699988873941821C172.55476573757204 13.753309445920388 172.73491631112663 13.793287381799352 172.92081371296382 13.819997640208483C173.12070339235862 13.833290303888239 173.26087603003424 13.84001159435789 173.34083190179214 13.84001159435789C173.3808098376711 13.893307180126532 173.40079880561058 13.986705632823757 173.40079880561058 14.120007062770174C173.41479108316824 14.253308492716588 173.39480211522874 14.346706945413816 173.34083190179214 14.400002531182457C172.94080268090326 14.373292272773325 172.5747547055115 14.353303304833842 172.2409389409222 14.34001064115409C171.90787276263057 14.313300382744956 171.5478214776207 14.300007719065201 171.16078508589246 14.300007719065201C170.78774097172192 14.300007719065201 170.44792851675072 14.313300382744956 170.14084799678042 14.34001064115409C169.83476692520713 14.353303304833842 169.48071233057908 14.373292272773325 169.08093297178945 14.400002531182457C169.02771234465058 14.346706945413816 169.00072723793227 14.253308492716588 169.00072723793227 14.120007062770174C169.01471951548993 13.986705632823757 169.04070517381123 13.893307180126532 169.08093297178945 13.84001159435789C169.16088884354738 13.84001159435789 169.29481492874189 13.833290303888239 169.48071233057908 13.819997640208483C169.6808518720731 13.793287381799352 169.86774872230728 13.753309445920388 170.04090315708302 13.699988873941821C170.21480717815652 13.64669328817318 170.3077558790751 13.586701398144813 170.32074870823578 13.519988217646794C170.37471892167238 13.36000151550117 170.4077007187725 13.15329060079701 170.42069354793318 12.900005390793858C170.43493568759004 12.646695194580781 170.4409323779719 12.373296085588526 170.4409323779719 12.080007953496487Z" fill="black"></path></svg> 