<?xml version="1.0" encoding="UTF-8"?> <svg xmlns="http://www.w3.org/2000/svg" width="19" height="14" viewBox="0 0 19 14" fill="none"><g clip-path="url(#clip0_447_252)"><path d="M3.85609 0.459985C4.18942 0.459985 4.5561 0.559985 4.9561 0.759985C5.3561 0.946652 5.69609 1.22666 5.9761 1.59999C6.26943 1.97332 6.4161 2.42666 6.4161 2.95999C6.4161 3.37332 6.30942 3.75332 6.0961 4.09999C5.8961 4.44666 5.64943 4.74666 5.3561 4.99999C5.0761 5.25332 4.82276 5.45332 4.5961 5.59999C4.96943 5.65332 5.36943 5.80666 5.7961 6.05999C6.22277 6.31332 6.58277 6.66666 6.8761 7.11999C7.18277 7.55999 7.3361 8.09999 7.3361 8.73999C7.3361 9.40666 7.18943 10.0133 6.8961 10.56C6.6161 11.0933 6.23609 11.5533 5.75609 11.94C5.28942 12.3133 4.76276 12.6 4.1761 12.8C3.58943 13 2.98942 13.1 2.37609 13.1C2.12276 13.1 1.80276 13.0667 1.41609 13C1.04276 12.92 0.70276 12.8 0.396094 12.64C0.342761 12.6 0.262761 12.5067 0.156094 12.36C0.0494271 12.2133 -0.00390625 12.06 -0.00390625 11.9C-0.00390625 11.62 0.0760937 11.3933 0.236094 11.22C0.409427 11.0467 0.602761 10.96 0.816094 10.96C1.08276 10.96 1.28942 11.0667 1.43609 11.28C1.59609 11.48 1.75609 11.66 1.91609 11.82C2.10276 12.0067 2.32276 12.14 2.57609 12.22C2.84276 12.2867 3.10276 12.32 3.35609 12.32C3.70276 12.32 4.04943 12.2267 4.3961 12.04C4.7561 11.84 5.0561 11.52 5.2961 11.08C5.5361 10.6267 5.6561 10.0267 5.6561 9.27999C5.6561 8.74666 5.5361 8.27999 5.2961 7.87999C5.0561 7.46666 4.74277 7.13999 4.3561 6.89999C3.98277 6.65999 3.58276 6.53999 3.15609 6.53999C2.94276 6.53999 2.72276 6.57332 2.49609 6.63999C2.28276 6.70666 2.11609 6.75332 1.99609 6.77999C1.91609 6.67332 1.87609 6.54666 1.87609 6.39999C1.87609 6.30666 1.88942 6.23999 1.91609 6.19999C2.43609 6.07999 2.92942 5.89999 3.39609 5.65999C3.86276 5.41999 4.23609 5.11332 4.5161 4.73999C4.80943 4.35332 4.9561 3.87999 4.9561 3.31999C4.9561 2.79999 4.7761 2.36666 4.4161 2.01999C4.0561 1.67332 3.59609 1.49999 3.03609 1.49999C2.62276 1.49999 2.26276 1.59999 1.95609 1.79999C1.64942 1.98666 1.40276 2.18666 1.21609 2.39999C1.04276 2.59999 0.922761 2.72666 0.856094 2.77999C0.802761 2.77999 0.749427 2.73332 0.696094 2.63999C0.642761 2.54666 0.616094 2.45332 0.616094 2.35999C0.816094 2.05332 1.06942 1.75999 1.37609 1.47999C1.69609 1.18666 2.06276 0.946652 2.47609 0.759985C2.88943 0.559985 3.34942 0.459985 3.85609 0.459985ZM14.6406 5.27999C15.3206 5.27999 15.8873 5.40666 16.3406 5.65999C16.8073 5.91332 17.1739 6.23999 17.4406 6.63999C17.7206 7.02666 17.9206 7.43999 18.0406 7.87999C18.1606 8.30666 18.2206 8.69332 18.2206 9.03999C18.2206 9.75999 18.0406 10.4333 17.6806 11.06C17.3339 11.6733 16.8606 12.1733 16.2606 12.56C15.6739 12.9333 15.0073 13.12 14.2606 13.12C13.6739 13.12 13.1406 12.9933 12.6606 12.74C12.1939 12.4733 11.7939 12.1267 11.4606 11.7C11.1273 11.2733 10.8673 10.8 10.6806 10.28C10.5073 9.74666 10.4206 9.21999 10.4206 8.69999C10.4206 7.69999 10.5806 6.75332 10.9006 5.85999C11.2206 4.96666 11.6873 4.18666 12.3006 3.51999C12.7673 3.01332 13.3006 2.54666 13.9006 2.11999C14.5139 1.69332 15.1339 1.32666 15.7606 1.01999C16.4006 0.713319 16.9939 0.493319 17.5406 0.359985C17.6339 0.359985 17.6939 0.439986 17.7206 0.599986C17.7473 0.746652 17.7606 0.853319 17.7606 0.919985C17.3473 1.05332 16.8739 1.23999 16.3406 1.47999C15.8206 1.71999 15.2939 2.03999 14.7606 2.43999C14.2273 2.83999 13.7473 3.34666 13.3206 3.95999C12.8939 4.55999 12.5673 5.29332 12.3406 6.15999C12.6873 5.87999 13.0739 5.66666 13.5006 5.51999C13.9273 5.35999 14.3073 5.27999 14.6406 5.27999ZM12.1806 7.01999C12.1539 7.23332 12.1339 7.45332 12.1206 7.67999C12.1073 7.90666 12.1006 8.13332 12.1006 8.35999C12.1006 8.79999 12.1473 9.25999 12.2406 9.73999C12.3339 10.22 12.4739 10.6667 12.6606 11.08C12.8606 11.4933 13.1073 11.8333 13.4006 12.1C13.6939 12.3533 14.0339 12.48 14.4206 12.48C15.0473 12.48 15.5606 12.1867 15.9606 11.6C16.3606 11.0133 16.5606 10.28 16.5606 9.39999C16.5606 8.83999 16.4739 8.31999 16.3006 7.83999C16.1406 7.35999 15.8806 6.97332 15.5206 6.67999C15.1606 6.38666 14.6873 6.23999 14.1006 6.23999C13.8206 6.23999 13.5073 6.28666 13.1606 6.37999C12.8273 6.45999 12.5006 6.67332 12.1806 7.01999Z" fill="black"></path></g><defs><clipPath id="clip0_447_252"><rect width="19" height="14" fill="white"></rect></clipPath></defs></svg> 