<?xml version="1.0" encoding="UTF-8"?> <svg xmlns="http://www.w3.org/2000/svg" viewBox="0 0 87.369140625 13.32000732421875" fill="none"><path d="M14.359991953125 12.84001853236607C14.426692051339286 12.84001853236607 14.459992175223213 12.880008636160714 14.459992175223213 12.960013806361609C14.459992175223213 13.0400189765625 14.426692051339286 13.080009080357144 14.359991953125 13.080009080357144C14.10669633314732 13.080009080357144 13.70000546484375 13.066728970982142 13.139994236049107 13.0400189765625C12.580007969866072 13.013308982142856 12.173292138950893 13.000028872767858 11.919996518973214 13.000028872767858C11.586695728794643 13.000028872767858 11.193309932477678 13.013308982142856 10.739988905691963 13.0400189765625C10.286692841517857 13.066728970982142 9.933297148995536 13.080009080357144 9.680001529017856 13.080009080357144C9.626706353236608 13.080009080357144 9.599996358816965 13.0400189765625 9.599996358816965 12.960013806361609C9.599996358816965 12.880008636160714 9.626706353236608 12.84001853236607 9.680001529017856 12.84001853236607C10.066697345424107 12.84001853236607 10.346702959821428 12.800028428571428 10.519993409598214 12.720023258370535C10.706688781808037 12.626713016183036 10.799999023995534 12.480032710379465 10.799999023995534 12.280032266183035C10.799999023995534 12.080031821986607 10.686693729910715 11.740016089285714 10.46000825390625 11.260010030691964L8.299993471540178 6.880020272879464H4.679990424107143L3.1399969888392856 10.340012979910714C2.9667065390625003 10.74001386830357 2.879986426339286 11.100024652901785 2.879986426339286 11.42002037109375C2.879986426339286 11.886721357700893 3.0466867466517855 12.240017199776785 3.3799875368303574 12.480007747767857C3.7132883270089287 12.720023258370535 4.179989313616072 12.84001853236607 4.7799906462053565 12.84001853236607C4.846690744419643 12.84001853236607 4.879990868303571 12.880008636160714 4.879990868303571 12.960013806361609C4.879990868303571 13.0400189765625 4.846690744419643 13.080009080357144 4.7799906462053565 13.080009080357144C4.540000098214286 13.080009080357144 4.1932943856026785 13.066728970982142 3.7399983214285712 13.0400189765625C3.2333072310267856 13.013308982142856 2.7932912762276785 13.000028872767858 2.4199978859933036 13.000028872767858C2.0599970864397323 13.000028872767858 1.6399986498883927 13.013308982142856 1.1600000800781252 13.0400189765625C0.7332991823102679 13.066728970982142 0.37999834771205354 13.080009080357144 0.09999847471540178 13.080009080357144C0.03329837650111608 13.080009080357144 0 13.0400189765625 0 12.960013806361609C0 12.880008636160714 0.03329837650111608 12.84001853236607 0.09999847471540178 12.84001853236607C0.4732986048549107 12.84001853236607 0.7866967047991071 12.766728304687499 1.039997317299107 12.620023036272322C1.293297929799107 12.473317767857143 1.5399984277901786 12.21333216796875 1.7799989608258928 11.840016311383927C2.019999493861607 11.453320494977678 2.3067000806919644 10.88671913671875 2.639995878348214 10.140012535714286L6.940005428571428 0.4600110066964286C6.966690460379464 0.42001091785714284 7.026700578683036 0.40000088839285713 7.120010820870536 0.40000088839285713C7.213296100446429 0.40000088839285713 7.2666911266741065 0.42001091785714284 7.279996198660714 0.4600110066964286L12.180007081473214 10.340012979910714C12.646708068080356 11.300025097098214 13.033304034040178 11.960011585379466 13.339994680245535 12.320022369977679C13.6599903984375 12.666728082589286 14.000006131138393 12.84001853236607 14.359991953125 12.84001853236607ZM4.899985920200893 6.380019162388392H8.060002923549106L6.399989251674107 3.02000171484375L4.899985920200893 6.380019162388392ZM21.37880434654018 6.060023444196428C22.472091847098213 6.180018718191964 23.345408814174107 6.546719482700892 23.99880517299107 7.1600258872767855C24.652101681361607 7.773307329241072 24.9788373046875 8.533319002232142 24.9788373046875 9.440010981026786C24.9788373046875 10.133322555803572 24.78540202734375 10.766723862723214 24.39880606138393 11.340015200892855C24.02539035435268 11.9000264296875 23.4988040625 12.346732364397322 22.81879755970982 12.680008191964285C22.15209612890625 13.000028872767858 21.405389527901782 13.160014250558035 20.578802569754465 13.160014250558035C20.192106753348213 13.160014250558035 19.745400818638394 13.140019198660715 19.238809578683036 13.100029094866072C19.065394315848213 13.086724022879464 18.845398819754465 13.073319100446428 18.57879812779018 13.060014028459822C18.312097585379462 13.046708956473214 18.012096919084822 13.0400189765625 17.67879612890625 13.0400189765625L16.238802915736606 13.060014028459822C15.9854074453125 13.073319100446428 15.63880158314732 13.080009080357144 15.198810590959821 13.080009080357144C15.158795524553572 13.080009080357144 15.13880047265625 13.0400189765625 15.13880047265625 12.960013806361609C15.13880047265625 12.880008636160714 15.158795524553572 12.84001853236607 15.198810590959821 12.84001853236607C15.625396660714285 12.84001853236607 15.945392378906249 12.806718408482144 16.158797745535715 12.740018310267857C16.37210326171875 12.660013140066964 16.518808530133928 12.52671279408482 16.598788737723215 12.340017421874999C16.692098979910714 12.15332204966518 16.738804026227676 11.860011363281249 16.738804026227676 11.460010474888394V2.1999998936383927C16.738804026227676 1.8132990847098214 16.692098979910714 1.5267008445870536 16.598788737723215 1.3400004798549108C16.518808530133928 1.1400000356584823 16.37210326171875 1.006709674720982 16.158797745535715 0.9400095765066965C15.958797301339285 0.860009398828125 15.645391712611607 0.8200093099888393 15.218805642857143 0.8200093099888393C15.1920956484375 0.8200093099888393 15.178790576450893 0.7799992361049107 15.178790576450893 0.6999990584263394C15.178790576450893 0.6199988807477678 15.1920956484375 0.5799987919084821 15.218805642857143 0.5799987919084821L16.258797967633928 0.6000088213727679C16.84539437779018 0.6267088307477678 17.318810306919644 0.6400089102120535 17.67879612890625 0.6400089102120535C18.052087022879466 0.6400089102120535 18.445397931361608 0.6199988807477678 18.858803742187497 0.5799987919084821C19.005409160156248 0.5666987124441965 19.178799460379466 0.5532987825334821 19.378799904575892 0.5400011993303572C19.592105420758926 0.5267011198660715 19.83209596875 0.5200011549107143 20.098796511160714 0.5200011549107143C21.285394253906247 0.5200011549107143 22.192086232700895 0.7532992267299107 22.81879755970982 1.2200002133370536C23.45878899609375 1.6732987737723213 23.778784714285713 2.306710065736607 23.778784714285713 3.1200019369419643C23.778784714285713 3.746713263950893 23.565404310267855 4.320029564732143 23.138793277901783 4.840025727120535C22.725387467075894 5.360021889508928 22.13879105691964 5.7667127578125 21.37880434654018 6.060023444196428ZM19.758805741071427 0.9199995470424106C19.332094858258927 0.9199995470424106 19.038809134486606 1.0066996896763392 18.87879879408482 1.1800001244977678C18.732093525669644 1.3533005593191965 18.65880329799107 1.7066987481026785 18.65880329799107 2.239999982477679V6.040028392299107L19.498695328125 6.060023444196428C20.285392032924104 6.060023444196428 20.878803236049105 5.8067278242187506 21.278804124441965 5.300011771205357C21.67880501283482 4.7800156088169645 21.87880545703125 4.113314178013393 21.87880545703125 3.300007329241071C21.87880545703125 2.540020618861607 21.698800064732144 1.9532993956473215 21.33878928013393 1.5400009240513393C20.97880345814732 1.1266999561941966 20.452092353236605 0.9199995470424106 19.758805741071427 0.9199995470424106ZM20.2588068515625 12.700028206473213C22.05878588671875 12.700028206473213 22.95878788560268 11.773316213169643 22.95878788560268 9.920017039620536C22.95878788560268 8.906709746651785 22.692087343191965 8.093328010044642 22.15878610881696 7.48002160546875C21.63878994642857 6.866715200892857 20.872088293526787 6.5600245546875 19.85880596316964 6.5600245546875C19.378799904575892 6.5600245546875 18.978799016183032 6.573329626674107 18.65880329799107 6.600014658482142V11.460010474888394C18.65880329799107 11.766726083705358 18.698793401785714 12.006716631696428 18.778798571986606 12.180032044084822C18.858803742187497 12.353322493861606 19.012099140066965 12.48672269029018 19.238809578683036 12.580007969866072C19.465395204241073 12.660013140066964 19.805385974330356 12.700028206473213 20.2588068515625 12.700028206473213ZM26.758921138392857 13.080009080357144C26.71898095982143 13.080009080357144 26.699010870535716 13.0400189765625 26.699010870535716 12.960013806361609C26.699010870535716 12.880008636160714 26.71898095982143 12.84001853236607 26.758921138392857 12.84001853236607C27.238952159598213 12.84001853236607 27.585682834821426 12.806718408482144 27.798863537946428 12.740018310267857C28.025524051339286 12.673318212053571 28.178794486607142 12.546732808593749 28.25892446986607 12.36001247377232C28.33880482700893 12.160012029575892 28.37899463169643 11.860011363281249 28.37899463169643 11.460010474888394V2.1999998936383927C28.37899463169643 1.7999990052455357 28.33880482700893 1.5067107852120536 28.25892446986607 1.3200104204799108C28.192274296875 1.1333100557477678 28.052234045758926 1.006709674720982 27.83880371651786 0.9400095765066965C27.625623013392858 0.860009398828125 27.298862427455354 0.8200093099888393 26.8590212109375 0.8200093099888393C26.818831406250002 0.8200093099888393 26.798861316964285 0.7799992361049107 26.798861316964285 0.6999990584263394C26.798861316964285 0.6199988807477678 26.818831406250002 0.5799987919084821 26.8590212109375 0.5799987919084821H35.478860624999996C35.612160970982146 0.5799987919084821 35.67881114397321 0.6400089102120535 35.67881114397321 0.7600091767299106L35.719000948660714 3.859993595424107C35.719000948660714 3.9000086618303573 35.67881114397321 3.92671865625 35.59893078683036 3.939998765625C35.53228061383929 3.939998765625 35.49209080915179 3.9200037137276786 35.478860624999996 3.8799886473214285C35.14560976004464 2.0266994588169642 34.15883772321428 1.1000099318638392 32.518794140625005 1.1000099318638392H31.598921902901782C31.11889088169643 1.1000099318638392 30.778900111607143 1.186700089453125 30.578949592633926 1.3600005242745536C30.37899907366071 1.533300959095982 30.27889900111607 1.8199990496651786 30.27889900111607 2.2199999380580357V11.380030267299107C30.27889900111607 11.806716187500001 30.332318989955354 12.12002192578125 30.438909341517856 12.320022369977679C30.545499693080355 12.506717742187499 30.7521901171875 12.640018088169644 31.058980613839285 12.720023258370535C31.379001294642855 12.800028428571428 31.86552259486607 12.84001853236607 32.518794140625005 12.84001853236607C32.545504135044645 12.84001853236607 32.558983945312505 12.880008636160714 32.558983945312505 12.960013806361609C32.558983945312505 13.0400189765625 32.545504135044645 13.080009080357144 32.518794140625005 13.080009080357144C31.972112946428574 13.080009080357144 31.5455019140625 13.073319100446428 31.238961043526785 13.060014028459822L29.278896780133927 13.0400189765625L27.81883362723214 13.060014028459822C27.565712745535713 13.073319100446428 27.21224216517857 13.080009080357144 26.758921138392857 13.080009080357144ZM48.96815668526786 0.5799987919084821C49.008096863839285 0.5799987919084821 49.028066953125 0.6199988807477678 49.028066953125 0.6999990584263394C49.028066953125 0.7799992361049107 49.008096863839285 0.8200093099888393 48.96815668526786 0.8200093099888393C48.60819582589286 0.8200093099888393 48.23475515625 0.9800096653459821 47.848084302455355 1.300010376060268C47.461413448660714 1.620008590513393 47.14813267299107 2.0399995382812497 46.90799234933036 2.559990708147321L42.907983465401784 11.620020815290179C42.6413827734375 12.233327219866071 42.348072087053566 12.673318212053571 42.02805140625 12.940018754464285C41.70803072544643 13.193314374441965 41.29489950334821 13.320024590959822 40.78815848772321 13.320024590959822C40.294897282366065 13.320024590959822 39.88800671316964 13.213309426339286 39.567986032366065 13.000028872767858C39.26144516183036 12.773318434151786 39.1081747265625 12.480032710379465 39.1081747265625 12.12002192578125C39.1081747265625 11.853321383370535 39.194794988839284 11.626710795200893 39.368035513392854 11.440015422991072C39.5415256640625 11.240014978794642 39.78141636160714 11.140014756696429 40.08820685825893 11.140014756696429C40.381517544642854 11.140014756696429 40.59469824776786 11.213329946986606 40.72799859375 11.360010252790179C40.86154856584822 11.506715521205356 40.98161872767857 11.720021037388392 41.08820907924107 12.000026651785715C41.16808943638393 12.186722023995534 41.234739609375 12.326712349888393 41.288159598214285 12.420022592075894C41.35480977120535 12.500027762276787 41.44816993861607 12.540017866071429 41.56799047433035 12.540017866071429C41.701540446428574 12.540017866071429 41.82810088727678 12.473317767857143 41.948171049107145 12.340017421874999C42.08147139508929 12.193312153459821 42.22800192522321 11.940016533482144 42.388012265625 11.580030711495535L42.808133018973216 10.600023542410714L38.42819318638393 2.239999982477679C38.14811268415178 1.7066987481026785 37.894742176339285 1.3400104648995537 37.66808166294643 1.140010020703125C37.44142114955357 0.9267094970424107 37.13488027901786 0.8200093099888393 36.74820942522321 0.8200093099888393C36.72149943080357 0.8200093099888393 36.70801962053571 0.7799992361049107 36.70801962053571 0.6999990584263394C36.70801962053571 0.6199988807477678 36.72149943080357 0.5799987919084821 36.74820942522321 0.5799987919084821L37.40822087611607 0.6000088213727679C37.8081219140625 0.6267088307477678 38.27492275111607 0.6400089102120535 38.80812413504464 0.6400089102120535C39.59469602678572 0.6400089102120535 40.294897282366065 0.6267088307477678 40.9079790234375 0.6000088213727679C41.08146917410714 0.5867087419084822 41.30138978236607 0.5799987919084821 41.56799047433035 0.5799987919084821C41.60818027901785 0.5799987919084821 41.62815036830357 0.6199988807477678 41.62815036830357 0.6999990584263394C41.62815036830357 0.7799992361049107 41.60818027901785 0.8200093099888393 41.56799047433035 0.8200093099888393C40.72799859375 0.8200093099888393 40.30812746651785 1.0333098336495536 40.30812746651785 1.4600107314174107C40.30812746651785 1.6067110073102677 40.368037734375 1.7999990052455357 40.488107896205356 2.0399995382812497L43.74797534598214 8.460028774553571L46.34808097098214 2.53999565625C46.4681511328125 2.2600000268973215 46.52806140066964 2.013309513950893 46.52806140066964 1.8000089902901786C46.52806140066964 1.4933108553013392 46.401500959821426 1.253300337220982 46.14813045200893 1.0799999023995535C45.90799012834822 0.9066994675781249 45.54802926897322 0.8200093099888393 45.067998247767854 0.8200093099888393C45.041537879464286 0.8200093099888393 45.028058069196426 0.7799992361049107 45.028058069196426 0.6999990584263394C45.028058069196426 0.6199988807477678 45.041537879464286 0.5799987919084821 45.067998247767854 0.5799987919084821L45.94817993303572 0.6000088213727679C46.428210954241074 0.6267088307477678 46.86805217075892 0.6400089102120535 47.26820283482142 0.6400089102120535C47.534803526785716 0.6400089102120535 47.82811421316964 0.6267088307477678 48.148134893973214 0.6000088213727679L48.96815668526786 0.5799987919084821ZM56.66437946986608 0.36000079955357145C57.26497990513393 0.36000079955357145 57.88505117745536 0.4133009678571429 58.5250925390625 0.5200011549107143C59.17811445870536 0.626698845703125 59.69109612723214 0.7733092561941964 60.06503604910714 0.9600096209263392C60.1851062109375 1.0000097097656249 60.25799703683035 1.0533098780691963 60.284956657366074 1.120009976283482C60.3248968359375 1.1733101445870535 60.351107578124996 1.273300381640625 60.365086640625 1.420000657533482L60.60497733816964 4.020003935825892C60.60497733816964 4.059994039620535 60.57102818638393 4.086728996651786 60.504877265625 4.1000091060267865C60.43797746651786 4.113314178013393 60.39803728794643 4.0933191261160715 60.38505672991071 4.039998987723214C59.99788662388393 3.000006662946429 59.411015625 2.2067098436383925 58.62494298549107 1.6600086793526785C57.85110202566964 1.113310011328125 56.937969693080355 0.8399993693638392 55.88454748325893 0.8399993693638392C54.49787440848215 0.8399993693638392 53.41125192522321 1.326710385435268 52.62443040736607 2.30001010078125C51.837858515625 3.2732973348214287 51.444447756696434 4.580015164620535 51.444447756696434 6.220008821986608C51.444447756696434 7.446721481584821 51.6578780859375 8.573309106026786 52.08448911830357 9.60002132142857C52.5245799609375 10.62670857421875 53.12443151785714 11.440015422991072 53.88454304129464 12.040016755580357C54.65788474888393 12.640018088169644 55.51784671875 12.940018754464285 56.46442895089285 12.940018754464285C58.26498212611607 12.940018754464285 59.63093623325893 11.820021259486607 60.56503715959821 9.580026269531249C60.578017717633934 9.52673109375 60.61795789620536 9.50671107924107 60.685107321428575 9.520016151227678C60.76498767857143 9.533321223214285 60.80492785714286 9.560031217633929 60.80492785714286 9.60002132142857L60.504877265625 12.160012029575892C60.477917645089285 12.320022369977679 60.44496699776786 12.426712571986608 60.40502681919643 12.480007747767857C60.37806719866071 12.520022814174107 60.30492674665178 12.56672786049107 60.1851062109375 12.620023036272322C59.025093649553575 13.086724022879464 57.790942131696426 13.320024590959822 56.48439904017857 13.320024590959822C54.85783526785714 13.320024590959822 53.50461209263393 13.000028872767858 52.42447988839286 12.36001247377232C51.34459731026786 11.706715965401784 50.54454560825893 10.880029156808035 50.02457440848214 9.880026935825894C49.51783339285714 8.880024714843751 49.264462885044644 7.840032390066964 49.264462885044644 6.760024998883929C49.264462885044644 5.506727157924106 49.60445365513393 4.393319792410714 50.2844351953125 3.420002603236607C50.97789654575893 2.4467003916294643 51.89127850446429 1.6933088032366073 53.02458107142857 1.1600100651227678C54.15788363839285 0.6267088307477678 55.37131618861607 0.36000079955357145 56.66437946986608 0.36000079955357145ZM65.88257268415178 0.9999997247209821C65.06954042410715 0.9999997247209821 64.39654841517857 1.2533103222656248 63.86259815290178 1.7600089014508928C63.342626953125 2.253310046986607 62.9424762890625 3.006696642857143 62.66264541294643 4.020003935825892C62.66264541294643 4.046688967633928 62.622705234375005 4.059994039620535 62.54257525111607 4.059994039620535C62.47667395647321 4.059994039620535 62.4427248046875 4.039998987723214 62.4427248046875 4.0000088839285715C62.49664404575893 3.479987758928571 62.55655431361607 2.813311290736607 62.622705234375005 1.9999994494419642C62.68960503348214 1.1733001595424108 62.722555680803566 0.553308767578125 62.722555680803566 0.1400097967299107C62.722555680803566 0.07330994814174108 62.75650483258928 0.03999983921316964 62.822655753348215 0.03999983921316964C62.90253611049107 0.03999983921316964 62.9424762890625 0.07330994814174108 62.9424762890625 0.1400097967299107C62.9424762890625 0.4333109973214286 63.31666583705357 0.5799987919084821 64.062548671875 0.5799987919084821C65.20958067522321 0.6199988807477678 66.54957366629463 0.6400089102120535 68.08252764508929 0.6400089102120535C68.86959878906251 0.6400089102120535 69.70260113839286 0.6267088307477678 70.58253319754463 0.6000088213727679L71.9424962779018 0.5799987919084821C72.44948691964287 0.5799987919084821 72.81668693638392 0.5467111493303571 73.04259857142857 0.4800110511160714C73.28248926897322 0.4133109529017857 73.43650858258928 0.280000621875 73.50265950334821 0.07999992805245536C73.51663856584821 0.026700009375 73.55657874441964 0 73.6224800390625 0C73.68962946428572 0 73.72258011160714 0.026700009375 73.72258011160714 0.07999992805245536C73.68263993303572 0.49330114553571425 73.64269975446429 1.120009976283482 73.60250994977679 1.9600093456473213C73.56256977120535 2.8000062187499997 73.54259968191964 3.479987758928571 73.54259968191964 4.0000088839285715C73.54259968191964 4.039998987723214 73.50265950334821 4.059994039620535 73.42252952008928 4.059994039620535C73.35662822544643 4.059994039620535 73.316688046875 4.039998987723214 73.30270898437499 4.0000088839285715C73.16965826450893 2.9732966685267854 72.85662711495536 2.2199999380580357 72.36261703125 1.739998871986607C71.86960545200893 1.2467002227120536 71.20260446986607 0.9999997247209821 70.36261258928572 0.9999997247209821C69.98967117187499 0.9999997247209821 69.70959066964285 1.0333098336495536 69.52262070870536 1.1000099318638392C69.34962981026786 1.1667100300781248 69.2295596484375 1.2867102965959822 69.16265984933035 1.4600107314174107C69.10948948660713 1.6200110867745534 69.08252986607144 1.879999182924107 69.08252986607144 2.239999982477679V11.460010474888394C69.08252986607144 11.873316435267856 69.12247004464285 12.1733171015625 69.2026000279018 12.36001247377232C69.28248038504465 12.546732808593749 69.44249072544642 12.673318212053571 69.68263104910714 12.740018310267857C69.92252174665178 12.806718408482144 70.30270232142857 12.84001853236607 70.82267352120535 12.84001853236607C70.86261369977679 12.84001853236607 70.8825837890625 12.880008636160714 70.8825837890625 12.960013806361609C70.8825837890625 13.0400189765625 70.86261369977679 13.080009080357144 70.82267352120535 13.080009080357144C70.3566215625 13.080009080357144 69.98967117187499 13.073319100446428 69.72257122767857 13.060014028459822L68.08252764508929 13.0400189765625L66.52261404575893 13.060014028459822C66.24253354352679 13.073319100446428 65.85661156808037 13.080009080357144 65.36260148437499 13.080009080357144C65.33664036830358 13.080009080357144 65.32266130580358 13.0400189765625 65.32266130580358 12.960013806361609C65.32266130580358 12.880008636160714 65.33664036830358 12.84001853236607 65.36260148437499 12.84001853236607C65.88257268415178 12.84001853236607 66.2625036328125 12.806718408482144 66.50264395647321 12.740018310267857C66.75651371651786 12.673318212053571 66.92251508370536 12.546732808593749 67.00264506696428 12.36001247377232C67.09650448660715 12.160012029575892 67.14268531808035 11.860011363281249 67.14268531808035 11.460010474888394V2.1999998936383927C67.14268531808035 1.8532991735491071 67.10948504464285 1.6000110423549108 67.04258524553572 1.4400106869977678C66.97668395089285 1.280010331640625 66.8566137890625 1.1667100300781248 66.68262438616071 1.1000099318638392C66.50963348772322 1.0333098336495536 66.24253354352679 0.9999997247209821 65.88257268415178 0.9999997247209821ZM87.2695398046875 12.84001853236607C87.33668922991072 12.84001853236607 87.36963987723215 12.880008636160714 87.36963987723215 12.960013806361609C87.36963987723215 13.0400189765625 87.33668922991072 13.080009080357144 87.2695398046875 13.080009080357144C87.01666854910715 13.080009080357144 86.60952835379464 13.066728970982142 86.04961697544643 13.0400189765625C85.48970559709821 13.013308982142856 85.0825654017857 13.000028872767858 84.82969414620536 13.000028872767858C84.49669290736607 13.000028872767858 84.10253327008928 13.013308982142856 83.64971149553571 13.0400189765625C83.19664009486607 13.066728970982142 82.84267026227678 13.080009080357144 82.58954938058035 13.080009080357144C82.53662864397322 13.080009080357144 82.5096690234375 13.0400189765625 82.5096690234375 12.960013806361609C82.5096690234375 12.880008636160714 82.53662864397322 12.84001853236607 82.58954938058035 12.84001853236607C82.97671948660714 12.84001853236607 83.2565503627232 12.800028428571428 83.42954126116072 12.720023258370535C83.61651122209821 12.626713016183036 83.70962176339285 12.480032710379465 83.70962176339285 12.280032266183035C83.70962176339285 12.080031821986607 83.5965411328125 11.740016089285714 83.36963099330357 11.260010030691964L81.2096162109375 6.880020272879464H77.58953827566964L76.049594765625 10.340012979910714C75.8766038671875 10.74001386830357 75.78948435267857 11.100024652901785 75.78948435267857 11.42002037109375C75.78948435267857 11.886721357700893 75.95648422433035 12.240017199776785 76.28948546316964 12.480007747767857C76.62248670200893 12.720023258370535 77.08953716517857 12.84001853236607 77.68963834821429 12.84001853236607C77.75653814732144 12.84001853236607 77.78948879464286 12.880008636160714 77.78948879464286 12.960013806361609C77.78948879464286 13.0400189765625 77.75653814732144 13.080009080357144 77.68963834821429 13.080009080357144C77.44949802455356 13.080009080357144 77.10251772321429 13.066728970982142 76.6496959486607 13.0400189765625C76.14270530691964 13.013308982142856 75.70261446428572 13.000028872767858 75.32967304687499 13.000028872767858C74.9697121875 13.000028872767858 74.54959143415178 13.013308982142856 74.06956041294642 13.0400189765625C73.64269975446429 13.066728970982142 73.28947880022321 13.080009080357144 73.00964792410714 13.080009080357144C72.94249849888392 13.080009080357144 72.9095478515625 13.0400189765625 72.9095478515625 12.960013806361609C72.9095478515625 12.880008636160714 72.94249849888392 12.84001853236607 73.00964792410714 12.84001853236607C73.38258934151786 12.84001853236607 73.69661899553572 12.766728304687499 73.94949025111606 12.620023036272322C74.20261113281249 12.473317767857143 74.44949136160714 12.21333216796875 74.68963168526786 11.840016311383927C74.9295223828125 11.453320494977678 75.21659241629465 10.88671913671875 75.54959365513393 10.140012535714286L79.84965313058036 0.4600110066964286C79.87661275111607 0.42001091785714284 79.93652301897322 0.40000088839285713 80.02963356026785 0.40000088839285713C80.12249447544643 0.40000088839285713 80.17666334263393 0.42001091785714284 80.18964390066964 0.4600110066964286L85.08955493303571 10.340012979910714C85.55660539620536 11.300025097098214 85.94252737165179 11.960011585379466 86.24956749441964 12.320022369977679C86.56958817522322 12.666728082589286 86.90957894531249 12.84001853236607 87.2695398046875 12.84001853236607ZM77.80970851004464 6.380019162388392H80.96972551339285L79.30971184151785 3.02000171484375L77.80970851004464 6.380019162388392Z" fill="black"></path></svg> 