<?xml version="1.0" encoding="UTF-8"?> <svg xmlns="http://www.w3.org/2000/svg" viewBox="0 0 93.986328125 12.7000732421875" fill="none"><path d="M1.9599998854097407 10.319998784491357V2.420000470671958C1.9599998854097407 2.1399987015874333 1.9266722334711603 1.9466693245615858 1.8600019317756815 1.8399998414124834C1.8066721894739028 1.733330358263381 1.7066717362034574 1.6800006159616023 1.560000571964345 1.6800006159616023C1.4133319073616188 1.6800006159616023 1.1866698791244181 1.733330358263381 0.8800019890708112 1.8399998414124834C0.5733315993808178 1.933331264804272 0.3400005412649601 2.013329627711519 0.18000106585044048 2.079999929406998C0.06000002199862865 1.9866710056515957 0 1.87332999298745 0 1.739999388142038C0 1.739999388142038 0 1.733330358263381 0 1.7199997974152261C0 1.6666700551134475 0.013333010491813497 1.6333299049929355 0.03999993134453956 1.6199993441447806C0.5733315993808178 1.379999256150266 1.0933309568234708 1.1399991681557513 1.5999997534179686 0.8999990801612366C2.120001610497008 0.6466709309549535 2.5466795430934175 0.4399984948990193 2.8800060552069477 0.2799992694481383C3.2266806256233376 0.1199990441427028 3.4066794418010304 0.03999893148998504 3.420002503740027 0.03999893148998504H3.4599966859208777C3.5266619883435837 0.03999893148998504 3.5733301996758646 0.07999911279816324 3.6000013199177197 0.15999897548724235C3.6266724401595747 0.2400000879945146 3.64666953125 0.30666789005360706 3.6599925931889956 0.36000013199177194C3.6599925931889956 0.36000013199177194 3.6333214729471406 0.5266658876849235 3.580004228827294 0.8599998987076131C3.5266619883435837 1.1800008492457614 3.4999908681017287 1.6399989348715924 3.4999908681017287 2.239999154857879V10.319998784491357C3.4999908681017287 10.613306118060173 3.4999908681017287 10.886691349630153 3.4999908681017287 11.140004501018117C3.513338926404588 11.39329265604222 3.5466590794340096 11.600012585189495 3.6000013199177197 11.759989313912898C3.6266724401595747 11.82670460906333 3.726682891975565 11.886695882334607 3.900007679001828 11.939988130090592C4.073332466028091 11.99330537421044 4.253331282205784 12.03329955639129 4.440004127534906 12.059995672997008C4.640000034803025 12.07329373857214 4.780004668799867 12.079992764087432 4.859993033161569 12.079992764087432C4.900012211706284 12.133310008207282 4.920009302796709 12.226696423599567 4.920009302796709 12.360002032081118C4.933332364735705 12.493307640562666 4.913335273645279 12.586694055954954 4.859993033161569 12.6400113000748C4.460001218625333 12.61329018710522 4.093329557118516 12.593293096014794 3.7600030450049866 12.579995030439662C3.4266765328914564 12.553298913833943 3.06667890053607 12.54000084825881 2.68001014793883 12.54000084825881C2.306669456553358 12.54000084825881 1.9666714149247837 12.553298913833943 1.6600010252347905 12.579995030439662C1.3533306355447972 12.593293096014794 1.0000020330680683 12.61329018710522 0.6000002199862866 12.6400113000748C0.5466704776845079 12.586694055954954 0.5200018570790392 12.493307640562666 0.5200018570790392 12.360002032081118C0.5333299182908079 12.226696423599567 0.5600010385326629 12.133310008207282 0.6000002199862866 12.079992764087432C0.6800010825299202 12.079992764087432 0.8133316873753325 12.07329373857214 1.0000020330680683 12.059995672997008C1.2000004399725732 12.03329955639129 1.386670785665309 11.99330537421044 1.560000571964345 11.939988130090592C1.733330358263381 11.886695882334607 1.8266717802007149 11.82670460906333 1.8399998414124834 11.759989313912898C1.8933320833506484 11.600012585189495 1.9266697338347738 11.39329265604222 1.9400002946829287 11.140004501018117C1.9533308555310838 10.886691349630153 1.9599998854097407 10.613306118060173 1.9599998854097407 10.319998784491357ZM13.284592535010804 0.03999893148998504C13.617869054396609 0.03999893148998504 13.984590708631151 0.13999888483315326 14.384582523167387 0.3399980416285738C14.784574337703624 0.5266658876849235 15.124574878968584 0.8066701564058344 15.404584146962266 1.1800008492457614C15.697891480531084 1.5533290424493018 15.844570143679356 2.0066705963784077 15.844570143679356 2.540005513941988C15.844570143679356 2.9533203904172205 15.737885662711935 3.333340110226895 15.524591689868682 3.6799896842794215C15.324570786236702 4.026664254695811 15.07788167127244 4.32667061377992 14.784574337703624 4.580008761531749C14.504590066073803 4.833321912919714 14.251176929230384 5.033317820187832 14.024584890812001 5.179996483336104C14.397880588742519 5.233338723819814 14.797872403278756 5.3866664197556515 15.224585330784574 5.64000456750748C15.651173276471077 5.893317718895445 16.011170908826465 6.246666318463265 16.304578227850733 6.700000373483211C16.61118362699468 7.1400113665641625 16.764586312022107 7.68000781509724 16.764586312022107 8.319989719082447C16.764586312022107 8.986667739673372 16.617882652509973 9.593304494265292 16.324575318941157 10.139999968313663C16.04459104731134 10.673297391331449 15.664571327501662 11.133305475502826 15.184591148603722 11.519999224463929C14.717884038917054 11.893294922394448 14.19118565595911 12.180003215903424 13.604570988821477 12.379999123171542C13.017881332592253 12.579995030439662 12.417868614424036 12.680005482255652 11.804582827044548 12.680005482255652C11.55116969020113 12.680005482255652 11.231191236390458 12.646710325590092 10.844572476520943 12.579995030439662C10.471176793134973 12.500006666077958 10.131176251870013 12.379999123171542 9.824570852726064 12.219997398084274C9.771178619514629 12.180003215903424 9.691190255152925 12.086691789602726 9.584580763277094 11.939988130090592C9.477871285945811 11.793309466942322 9.424579038189828 11.640006767370346 9.424579038189828 11.480005042283077C9.424579038189828 11.199995774289395 9.504592398915392 10.973303750415559 9.664569127638796 10.800003959753157C9.837868918301197 10.626704169090758 10.031190796417885 10.539991782849901 10.244584754716588 10.539991782849901C10.511170975315824 10.539991782849901 10.717890904463099 10.646701260181183 10.864569567611369 10.859995233024435C11.024571292698637 11.059991140292553 11.184573017785903 11.239989956470247 11.344574742873172 11.399991681557513C11.531172599110704 11.586689523250497 11.751190593833112 11.719995131732048 12.004578734312666 11.800008492457613C12.271189951275765 11.866698791244183 12.53117713181516 11.899993947909742 12.784590268658578 11.899993947909742C13.131189849983379 11.899993947909742 13.477889416763631 11.806707517972905 13.824588983543881 11.62000967627992C14.184586615899269 11.419988772647939 14.484592974983379 11.100010318837267 14.724583064432347 10.659999325756317C14.964573153881316 10.206690267100234 15.084580696787732 9.606702545295878 15.084580696787732 8.860011163979388C15.084580696787732 8.326663748233877 14.964573153881316 7.860006631274934 14.724583064432347 7.459989820374834C14.484592974983379 7.046674943899601 14.171188564868682 6.719997464573637 13.784569804999167 6.480007375124668C13.411174121613199 6.239992289311835 13.011182307076963 6.120009742769281 12.584569365026596 6.120009742769281C12.371175406727893 6.120009742769281 12.15118240836935 6.153329895798704 11.924590369950964 6.21999519822141C11.711171415288398 6.286660500644116 11.54457065014129 6.333328711976396 11.424588103598737 6.359999832218251C11.344574742873172 6.253340347614694 11.30458056069232 6.126658775556849 11.30458056069232 5.98000510877244C11.30458056069232 5.886668686107879 11.317878626267454 5.820003383685173 11.344574742873172 5.780009201504321C11.864574100315824 5.660001658597905 12.357877341152758 5.480002842420213 12.824584450839428 5.2399877566073805C13.291191575070645 4.999997667158411 13.664587258456615 4.693342275286735 13.944571530086437 4.31999658462849C14.237878863655252 3.93332783203125 14.384582523167387 3.4599966859208777 14.384582523167387 2.9000031462973737C14.384582523167387 2.3799987895819483 14.204583706989693 1.9466693245615858 13.844586074634309 1.5999997534179686C13.484588442278922 1.2533301822743517 13.024580358107546 1.080000395975316 12.464586818484042 1.080000395975316C12.051171956553357 1.080000395975316 11.691174324197974 1.1800008492457614 11.384568925054023 1.379999256150266C11.077888536818483 1.566669601843002 10.83117442549036 1.766670508383893 10.644576569252825 1.9799994761365525C10.471176793134973 2.1800003826774437 10.351169250228557 2.306669456553358 10.284578936897441 2.359999198855136C10.231186703686005 2.359999198855136 10.177869459566157 2.313330987522856 10.124577211810172 2.2199995641310672C10.071184978598737 2.126670640375665 10.04458884744847 2.0333292184383307 10.04458884744847 1.9400002946829287C10.244584754716588 1.6333299049929355 10.49787290974069 1.3400000746966423 10.804578294340093 1.060000805248504C11.124581744514629 0.7666709749522108 11.491178416929854 0.5266658876849235 11.904593278860538 0.3399980416285738C12.317883158971908 0.13999888483315326 12.777891243143284 0.03999893148998504 13.284592535010804 0.03999893148998504ZM20.829070065242686 8.420000170898437C20.922381491543383 8.166662023146609 21.10907933323637 8.139990902904755 21.389088601230053 8.340011806536735L23.149082580826132 9.560009337599734C23.349078488094246 9.69328994971742 23.369075579184674 9.96000115213597 23.209073854097408 10.359992966672207L22.429087316115357 12.219997398084274C22.282383656603223 12.566696964864526 22.02907050521526 12.599992121530086 21.669072872859875 12.320007849900266L20.169091070167056 11.179998683198969C19.915677933323636 10.980002775930851 19.835689568961932 10.773307843147439 19.929075984354224 10.559988873940325L20.829070065242686 8.420000170898437ZM30.096621945644944 0.059999022144074134C31.01673809944315 0.059999022144074134 31.79012559736536 0.34666707150723075 32.41678443941157 0.9200011705244349C33.05669135430519 1.4933302702688664 33.536621540475394 2.259998745584691 33.85657499792221 3.220006596471908C34.19002649185505 4.166668888692653 34.35675223882148 5.206667603577959 34.35675223882148 6.340002741127826C34.35675223882148 7.473337878677693 34.19002649185505 8.520010622714429 33.85657499792221 9.479995976874168C33.52337346762799 10.42670826182264 33.03669426321476 11.193296748774102 32.39678734832114 11.780011401367187C31.770128506274933 12.353303006565824 31.003490026595742 12.6400113000748 30.096621945644944 12.6400113000748C29.216749937666222 12.6400113000748 28.456610512591425 12.353303006565824 27.816703597697806 11.780011401367187C27.176796682804188 11.193296748774102 26.68336846014794 10.42670826182264 26.336668893367683 9.479995976874168C26.00346736307347 8.520010622714429 25.836741616107048 7.473337878677693 25.836741616107048 6.340002741127826C25.836741616107048 5.206667603577959 26.00346736307347 4.166668888692653 26.336668893367683 3.220006596471908C26.670120387300532 2.259998745584691 27.156799591713764 1.4933302702688664 27.796706506607382 0.9200011705244349C28.436613421500997 0.34666707150723075 29.20350186481882 0.059999022144074134 30.096621945644944 0.059999022144074134ZM30.196607401097076 0.7799990361639794C29.650186887051195 0.7799990361639794 29.176755755485374 1.033329685006649 28.776563970038232 1.5400009812375333C28.39012018471576 2.0333292184383307 28.090163818359372 2.7000072390292553 27.876694870969082 3.540010046646443C27.66347588721742 4.379987857899767 27.55674141352227 5.313327088181516 27.55674141352227 6.340002741127826C27.55674141352227 7.353330335771276 27.66347588721742 8.286669566053025 27.876694870969082 9.139995435609208C28.090163818359372 9.979998243226397 28.37662214822972 10.653300300241023 28.736569787857377 11.160001592108545C29.110015463971074 11.666702883976063 29.536703395113033 11.919991039000166 30.016633581283244 11.919991039000166C30.603298241148604 11.919991039000166 31.089977445561836 11.66000385846077 31.476671194522936 11.140004501018117C31.86336494348404 10.620005143575465 32.150073236993016 9.926705995470412 32.33679607504987 9.060007071247506C32.536766985954124 8.193333143388465 32.63675244140625 7.253319883955285 32.63675244140625 6.239992289311835C32.63675244140625 5.213341632729389 32.5300179677111 4.293325464386635 32.316798983959444 3.479993777011303C32.11657810941656 2.653339027696975 31.83011977954621 1.9999990668633645 31.456674103432512 1.519998890874335C31.096726463804853 1.0266706536735373 30.676787550905917 0.7799990361639794 30.196607401097076 0.7799990361639794ZM43.38118948429189 0.219998997485871C43.63465261386303 0.219998997485871 43.90786287088597 0.21333296717087766 44.201320182637964 0.19999990668633644C44.49452753075133 0.17333303582633808 44.668002295960775 0.15999897548724235 44.72124455098903 0.15999897548724235C44.80123291535073 0.15999897548724235 44.84122709753158 0.219998997485871 44.84122709753158 0.3399980416285738C44.84122709753158 0.4733311461103723 44.78123582426031 0.6599989921667221 44.66125327771775 0.8999990801612366C44.5412707311752 1.1266711069439828 44.41453916638962 1.373330226271609 44.28130854699967 1.6399989348715924L39.14130624584441 12.619989212620512C39.10131206366356 12.660008391165226 39.03457177214927 12.680005482255652 38.94133533494016 12.680005482255652C38.79460667906416 12.680005482255652 38.61463285925033 12.646710325590092 38.40116391186004 12.579995030439662C38.18794492810838 12.500006666077958 38.08121045441323 12.413294279837102 38.08121045441323 12.320007849900266C38.41466194834608 11.813306558032746 38.781358606216756 11.199995774289395 39.18130042802526 10.480000509578623C39.58124224983378 9.760005244867852 39.9879330898853 8.999990801612368 40.40137294817985 8.200007172539893C40.82781091568318 7.399998547103556 41.22800270113032 6.61333797997008 41.60119841360539 5.840000474775598C41.98789216256649 5.066662969581117 42.32784271110373 4.366664795960771 42.62130002285571 3.740005953914561C42.92775544381649 3.099999053565492 43.16797050054023 2.593322758061835 43.34119530211103 2.2199995641310672C43.527918140167884 1.8333308115338265 43.62140454101562 1.6399989348715924 43.62140454101562 1.6399989348715924H38.661376059674204C38.274682310713104 1.6399989348715924 37.9812249989611 1.7599989788688497 37.78125408805685 1.9999990668633645C37.58128317715259 2.239999154857879 37.40780841194315 2.6199938783036902 37.261329719705785 3.139993235746343C37.24783168321975 3.220006596471908 37.16784331885805 3.2600007786527594 37.02136462662068 3.2600007786527594C36.981370444439825 3.2600007786527594 36.91463015292553 3.246677716713763 36.82139371571642 3.220006596471908C36.741155387716084 3.193335476230053 36.68116411444482 3.166664355988198 36.64116993226396 3.139993235746343C36.814644697473405 2.6066708163646943 36.974621426196805 2.066669368558843 37.12135008207281 1.519998890874335C37.28132681079621 0.9600003519780584 37.39456033909574 0.5266658876849235 37.46130063061004 0.219998997485871H43.38118948429189ZM48.465699857671204 8.420000170898437C48.55918625851895 8.166662023146609 48.74565913293716 8.139990902904755 49.02586837184175 8.340011806536735L50.785862351437835 9.560009337599734C50.98583326234209 9.69328994971742 51.005830353432515 9.96000115213597 50.845853624709115 10.359992966672207L50.065717108543886 12.219997398084274C49.91898845266789 12.566696964864526 49.665775286735375 12.599992121530086 49.30582764710771 12.320007849900266L47.805795851687165 11.179998683198969C47.55258268575465 10.980002775930851 47.472594321392954 10.773307843147439 47.56583075860206 10.559988873940325L48.465699857671204 8.420000170898437ZM61.753516923620346 9.659994793051862C61.62003634059175 9.979998243226397 61.48005670295877 10.346694901097075 61.33357801072141 10.760009777572307C61.18684935484541 11.160001592108545 61.05336877181682 11.533297290039062 60.93338622527427 11.879996856819314C60.81340367873171 12.226696423599567 60.73341531437001 12.460012483897106 60.69342113218916 12.579995030439662H53.93340448907081C53.893410306889955 12.553298913833943 53.84666710646609 12.513304731653092 53.793424851437834 12.460012483897106C53.75343066925698 12.393297188746674 53.733433578166554 12.34000494099069 53.733433578166554 12.30001075880984C54.28010405585106 11.686699975066489 54.84002260638298 11.04669307471742 55.41343919340093 10.379990057762633C55.98685578041888 9.713312037171708 56.53352625810339 9.053333042096078 57.053450626454456 8.400003079808013C57.57337499480552 7.746673117519946 58.0200600170379 7.146660399351729 58.393505693151596 6.599989921667221C58.79344751496011 6.013325261801861 59.04666068089262 5.499999933510638 59.15339515458776 5.059988940429687C59.273377701130315 4.6200029437126 59.333368974401594 4.159994859541223 59.333368974401594 3.6799896842794215C59.333368974401594 3.01333666005236 59.12689900889295 2.453330622246925 58.7134591505984 1.9999990668633645C58.31351732878989 1.54667001111619 57.80009201504322 1.3200004839698305 57.17343317299701 1.3200004839698305C56.65350880464594 1.3200004839698305 56.200074764170544 1.4333289984520445 55.813381015209444 1.6600010252347905C55.42668726624834 1.8866705523811504 55.11348282704454 2.133329671708777 54.873517733959446 2.4000008799451464C54.633552640874335 2.6666620896359707 54.47357591215093 2.866657996904089 54.393587547789224 2.999988601749501C54.31359918342753 2.999988601749501 54.2268618008228 2.95999441956865 54.133375399975066 2.8800060552069477C54.05338703561336 2.786669632542387 54.013392853432514 2.720004330119681 54.013392853432514 2.68001014793883C54.05338703561336 2.5600026050324134 54.16012150930851 2.359999198855136 54.33359627451795 2.079999929406998C54.520069148936166 1.7866700991107047 54.77353227850731 1.4866712389357546 55.093485735954125 1.1800008492457614C55.41343919340093 0.8599998987076131 55.78013585127161 0.5933311901076297 56.193575709566154 0.37999972271858373C56.62001367706948 0.153332945172249 57.093444808635304 0.03999893148998504 57.61336917698637 0.03999893148998504C58.24002801903258 0.03999893148998504 58.80669558780751 0.19999915679542055 59.31337188331117 0.5199993574426529C59.83354621530086 0.8266697471326463 60.239987091713765 1.226669060578042 60.53344440346576 1.7199997974152261C60.840149788065155 2.21333053425241 60.99337749854554 2.7400014212101067 60.99337749854554 3.2999949608336103C60.99337749854554 3.8599885004571144 60.89339204309342 4.386661887051196 60.69342113218916 4.879990124251995C60.4934502212849 5.373318361452792 60.21999000062333 5.833326445624169 59.87354039748171 6.259989380402261C59.42010635700632 6.820007916389628 58.91343006150266 7.419995638193983 58.35351151097075 8.060002538543053C57.80684103328623 8.686661380589262 57.28666670129655 9.28000006960605 56.79348844227892 9.839993609229554C56.30006021962267 10.386689083277926 55.90686741605718 10.826700076358875 55.61341010430518 11.160001592108545H59.493595666763625C59.8800394520861 11.160001592108545 60.19349385492852 11.039994049202129 60.43345894801363 10.800003959753157C60.686672113946145 10.546690808365193 60.920138152426865 10.166696084919382 61.13335713617852 9.659994793051862C61.16010324551196 9.58000642869016 61.23359255526928 9.540012246509308 61.353575101811835 9.540012246509308C61.39356928399269 9.540012246509308 61.46005961186835 9.553335308448304 61.55354601271609 9.58000642869016C61.6467824499252 9.606702545295878 61.71352274143949 9.633298676446143 61.753516923620346 9.659994793051862ZM68.37805327460107 0.059999022144074134C69.29791946476064 0.059999022144074134 70.07130696268285 0.34666707150723075 70.69796580472907 0.9200011705244349C71.33787271962267 1.4933302702688664 71.81805286943153 2.259998745584691 72.13800632687833 3.220006596471908C72.47120785717254 4.166668888692653 72.63793360413896 5.206667603577959 72.63793360413896 6.340002741127826C72.63793360413896 7.473337878677693 72.47120785717254 8.520010622714429 72.13800632687833 9.479995976874168C71.80480479658411 10.42670826182264 71.31787562853225 11.193296748774102 70.67796871363862 11.780011401367187C70.05130987159241 12.353303006565824 69.28467139191322 12.6400113000748 68.37805327460107 12.6400113000748C67.49793130298372 12.6400113000748 66.73804184154754 12.353303006565824 66.09788496301529 11.780011401367187C65.45797804812167 11.193296748774102 64.96479978910405 10.42670826182264 64.6181002223238 9.479995976874168C64.28464872839095 8.520010622714429 64.11792298142454 7.473337878677693 64.11792298142454 6.340002741127826C64.11792298142454 5.206667603577959 64.28464872839095 4.166668888692653 64.6181002223238 3.220006596471908C64.95130175261802 2.259998745584691 65.43798095703126 1.4933302702688664 66.07788787192487 0.9200011705244349C66.71804475045711 0.34666707150723075 67.4846832301363 0.059999022144074134 68.37805327460107 0.059999022144074134ZM68.47803873005319 0.7799990361639794C67.93136825236869 0.7799990361639794 67.45793712080285 1.033329685006649 67.05799529899436 1.5400009812375333C66.67130155003323 2.0333292184383307 66.37134518367687 2.7000072390292553 66.15787623628657 3.540010046646443C65.94465725253491 4.379987857899767 65.83792277883975 5.313327088181516 65.83792277883975 6.340002741127826C65.83792277883975 7.353330335771276 65.94465725253491 8.286669566053025 66.15787623628657 9.139995435609208C66.37134518367687 9.979998243226397 66.65805347718583 10.653300300241023 67.0180011168135 11.160001592108545C67.39119682928856 11.666702883976063 67.81788476043052 11.919991039000166 68.29806491023936 11.919991039000166C68.88472957010472 11.919991039000166 69.37115881087932 11.66000385846077 69.75810252347905 11.140004501018117C70.14479627244016 10.620005143575465 70.4312546023105 9.926705995470412 70.61797744036734 9.060007071247506C70.81794835127161 8.193333143388465 70.91793380672374 7.253319883955285 70.91793380672374 6.239992289311835C70.91793380672374 5.213341632729389 70.8111993330286 4.293325464386635 70.59798034927692 3.479993777011303C70.39800943837267 2.653339027696975 70.11130114486369 1.9999990668633645 69.73810543238862 1.519998890874335C69.37790782912235 1.0266706536735373 68.95796891622341 0.7799990361639794 68.47803873005319 0.7799990361639794ZM83.04242009848737 9.659994793051862C82.9091894790974 9.979998243226397 82.76920984146443 10.346694901097075 82.62248118558843 10.760009777572307C82.47600249335106 11.160001592108545 82.34252191032247 11.533297290039062 82.22253936377992 11.879996856819314C82.10255681723737 12.226696423599567 82.02256845287566 12.460012483897106 81.98257427069481 12.579995030439662H75.22255762757646C75.18256344539562 12.553298913833943 75.13582024497174 12.513304731653092 75.08257798994349 12.460012483897106C75.04258380776263 12.393297188746674 75.02258671667221 12.34000494099069 75.02258671667221 12.30001075880984C75.56925719435672 11.686699975066489 76.12917574488863 11.04669307471742 76.70259233190659 10.379990057762633C77.27600891892453 9.713312037171708 77.82242943297041 9.053333042096078 78.3426037649601 8.400003079808013C78.86252813331116 7.746673117519946 79.30921315554356 7.146660399351729 79.68240886801861 6.599989921667221C80.08260065346576 6.013325261801861 80.33581381939827 5.499999933510638 80.44254829309342 5.059988940429687C80.56253083963598 4.6200029437126 80.62252211290723 4.159994859541223 80.62252211290723 3.6799896842794215C80.62252211290723 3.01333666005236 80.41580218375996 2.453330622246925 80.00236232546543 1.9999990668633645C79.60242050365692 1.54667001111619 79.08924515354887 1.3200004839698305 78.46258631150266 1.3200004839698305C77.94241197951297 1.3200004839698305 77.48922790267619 1.4333289984520445 77.10253415371508 1.6600010252347905C76.71584040475399 1.8866705523811504 76.40238600191157 2.133329671708777 76.16242090882646 2.4000008799451464C75.92245581574134 2.6666620896359707 75.76247908701795 2.866657996904089 75.68249072265625 2.999988601749501C75.60250235829454 2.999988601749501 75.51576497568983 2.95999441956865 75.42252853848072 2.8800060552069477C75.34254017411901 2.786669632542387 75.30254599193817 2.720004330119681 75.30254599193817 2.68001014793883C75.34254017411901 2.5600026050324134 75.44927464781416 2.359999198855136 75.62249944938497 2.079999929406998C75.80922228744183 1.7866700991107047 76.06243545337433 1.4866712389357546 76.38238891082115 1.1800008492457614C76.70259233190659 0.8599998987076131 77.06928898977726 0.5933311901076297 77.48247888443318 0.37999972271858373C77.90916681557513 0.153332945172249 78.38259794714097 0.03999893148998504 78.90252231549202 0.03999893148998504C79.52918115753823 0.03999893148998504 80.09584872631316 0.19999915679542055 80.60252502181682 0.5199993574426529C81.12244939016787 0.8266697471326463 81.52914023021941 1.226669060578042 81.82259754197142 1.7199997974152261C82.12930292657082 2.21333053425241 82.2825306370512 2.7400014212101067 82.2825306370512 3.2999949608336103C82.2825306370512 3.8599885004571144 82.18254518159907 4.386661887051196 81.98257427069481 4.879990124251995C81.78260335979056 5.373318361452792 81.509143139129 5.833326445624169 81.16244357234874 6.259989380402261C80.70925949551197 6.820007916389628 80.20258320000832 7.419995638193983 79.64241468583776 8.060002538543053C79.09599417179189 8.686661380589262 78.5758198398022 9.28000006960605 78.08239161714594 9.839993609229554C77.58921335812832 10.386689083277926 77.1957705909242 10.826700076358875 76.90256324281083 11.160001592108545H80.78249884163066C81.16919259059175 11.160001592108545 81.48239702979554 11.039994049202129 81.72236212288065 10.800003959753157C81.9758252524518 10.546690808365193 82.20929129093251 10.166696084919382 82.42251027468417 9.659994793051862C82.44925638401763 9.58000642869016 82.5224957301363 9.540012246509308 82.64247827667886 9.540012246509308C82.6824724588597 9.540012246509308 82.749212750374 9.553335308448304 82.84244918758311 9.58000642869016C82.93593558843084 9.606702545295878 83.0024259163065 9.633298676446143 83.04242009848737 9.659994793051862ZM92.26707821850067 0C92.37356272855718 0 92.4470520383145 0.03999993134453956 92.48704622049534 0.1199990441427028C92.5402884755236 0.19999890683178193 92.56703458485704 0.2799992694481383 92.56703458485704 0.36000013199177194V8.060002538543053H93.72711583174036C93.79360615961602 8.060002538543053 93.8535974328873 8.139990902904755 93.90708965155419 8.29999262799202C93.96033190658245 8.459994353079288 93.98707801591588 8.646667198408412 93.98707801591588 8.860011163979388C93.98707801591588 9.006664830763796 93.96708092482547 9.113324315367352 93.9270867426446 9.179989617790058H92.56703458485704V12.599992121530086C92.56703458485704 12.599992121530086 92.52029138443318 12.61329018710522 92.42705494722406 12.6400113000748C92.34706658286237 12.680005482255652 92.11360054438164 12.700002573346078 91.72715675905917 12.700002573346078C91.26047464573638 12.700002573346078 91.02700860725565 12.646710325590092 91.02700860725565 12.54000084825881V9.179989617790058H85.52705866647274C85.46031837495845 9.139995435609208 85.40707611993018 9.08667819148936 85.36708193774933 9.019987892702792C85.34033582841589 8.93999952834109 85.32708775556848 8.873334225918384 85.32708775556848 8.819991985434674L91.68716257687832 0.4999997667158411C91.75365290475398 0.4199989041722074 91.84713930560173 0.32000095053814825 91.96712185214429 0.19999990668633644C92.08710439868683 0.066666052313622 92.18708985413896 0 92.26707821850067 0ZM91.02700860725565 2.3399996081283243L86.6471457311752 8.060002538543053H91.02700860725565V2.3399996081283243Z" fill="#8D0000"></path></svg> 