<?xml version="1.0" encoding="UTF-8"?> <svg xmlns="http://www.w3.org/2000/svg" viewBox="0 0 174.83984375 22.06005859375" fill="none"><path d="M5.420010179129465 6.579997611049108H9.399989450892857V7.999996867745536H5.420010179129465V12.119997877232143H3.9800042488839287V7.999996867745536H0V6.579997611049108H3.9800042488839287V2.4399999188616075H5.420010179129465V6.579997611049108ZM24.24511606417411 1.9799987876674108C24.49850895200893 1.9799987876674108 24.771808604910714 1.973329896484375 25.065040000000003 1.9599996072544643C25.358521166294643 1.9333290379464287 25.531862382812502 1.919998748716518 25.58506364955357 1.919998748716518C25.66499043526786 1.919998748716518 25.70520359933036 1.9799987876674108 25.70520359933036 2.0999988655691966C25.70520359933036 2.2333292327008927 25.645008738839287 2.420000738448661 25.52511856026786 2.6599884056919643C25.40522838169643 2.886680751674107 25.278594380580355 3.133329816964286 25.145216556919646 3.4000105329241075L20.005099990513393 14.380002674665178C19.965111620535716 14.419991044642858 19.898522617187503 14.439997718191965 19.80510818638393 14.439997718191965C19.658517465959825 14.439997718191965 19.47850735825893 14.406703216517858 19.265102840401788 14.339989327566965C19.051823208147322 14.260012587611609 18.94512094921875 14.173292025111607 18.94512094921875 14.080002479910714C19.278515554129466 13.57329163560268 19.645104752232143 12.960003417968752 20.045113337611607 12.239987964285715C20.445121922991074 11.519997487723215 20.85182437667411 10.7599936640625 21.265120790178575 9.960001470424107C21.69180494029018 9.160009276785715 22.091813525669643 8.373329888392858 22.46512156919643 7.5999882823660725C22.851817349330357 6.826671653459822 23.1918059140625 6.126662873325893 23.485112240513395 5.500011896205357C23.79180630357143 4.859998159598214 24.031811454799108 4.35333726953125 24.205102717075892 3.9800042488839287C24.39180669308036 3.593333445870536 24.485121215401787 3.4000105329241075 24.485121215401787 3.4000105329241075H19.52511466517857C19.13851879352679 3.4000105329241075 18.84511255859375 3.5200006199776785 18.645120754464283 3.7600057712053574C18.445103973214287 4.000010922433036 18.2718127109375 4.379987857142858 18.12512208203125 4.900011506696428C18.111809276785714 4.979988246651786 18.031807559709822 5.020001593750001 17.88511693080357 5.020001593750001C17.84510358370536 5.020001593750001 17.778514580357143 5.0066638113839295 17.685100149553573 4.979988246651786C17.605123409598214 4.953337659040178 17.545103388950892 4.9266620943080355 17.505115018973214 4.900011506696428C17.678506189732143 4.366675051897322 17.83850962388393 3.8266697059151786 17.985125321428573 3.27999546875C18.145103778459823 2.720008426339286 18.2585248828125 2.2866703713169647 18.325113886160715 1.9799987876674108H24.24511606417411ZM37.169452154017854 11.020005488839285C37.169452154017854 13.393306505022323 37.589567321428575 15.653311302455357 38.42954788504465 17.799994904017858C39.08294935825893 19.453305443638396 39.96289331473214 20.760008481584823 41.06962952566965 21.720004109375L40.76940453683036 22.059992674107146C38.70279758370536 20.43330774497768 37.2496287109375 18.313299708147323 36.40939837611607 15.699993540736608C35.929587890625 14.219999240513394 35.68955776227679 12.660003223214286 35.68955776227679 11.020005488839285C35.68955776227679 7.52668043359375 36.6761540234375 4.55999796484375 38.64959631696429 2.1200005436941964C38.96955323102679 1.7333297406808035 39.30299779017857 1.3599992177455358 39.64943045200893 0.9999989840401786C40.00960053013393 0.6399987503348215 40.38300848214286 0.3066665882254464 40.76940453683036 0L41.06962952566965 0.42000027265625C39.64293640066965 1.5666699039062502 38.58290740513393 3.3666660770089285 37.889542539062504 5.819993787388394C37.40948228236608 7.500004868861607 37.169452154017854 9.233342102678572 37.169452154017854 11.020005488839285ZM43.809619648437504 13.899992372209821C44.222990993303576 13.766689479910713 44.68981337611607 13.580010481026786 45.20983702566964 13.340005329799109C45.74309854910714 13.10000017857143 46.27636007254465 12.779993310267859 46.809621595982144 12.380009702008929C47.343132890625 11.980001116629465 47.82294337611608 11.480009117745537 48.24980236607143 10.880008728236607C48.68964945870536 10.266695533482142 49.016350195312505 9.526698383370537 49.2296548046875 8.659992300781251C48.89621024553572 8.940010799107144 48.50981419084822 9.160009276785715 48.06971732700893 9.319987733816966C47.643108108258936 9.46670333984375 47.26295633370536 9.540011188616072 46.92976154575893 9.540011188616072C46.24963455357143 9.540011188616072 45.676409637276784 9.413302256138394 45.20983702566964 9.160009276785715C44.75625251674107 8.906666343191965 44.38958838727679 8.586659474888394 44.109594866071426 8.199988671875C43.843088989955355 7.800005063616072 43.64976607700893 7.386658695870536 43.52962612723214 6.959999522879465C43.42297382254464 6.520002567522321 43.36977255580357 6.126662873325893 43.36977255580357 5.780005417410715C43.36977255580357 5.046677158482144 43.543113772321426 4.373318965959822 43.88979620535714 3.7600057712053574C44.24971651227679 3.1466675993303572 44.72977676897322 2.6533195145089286 45.329727204241074 2.279998982421875C45.92967763950893 1.8933306771205358 46.59631698660715 1.7000002710379465 47.329645245535716 1.7000002710379465C47.91635780691965 1.7000002710379465 48.443125279017856 1.833330638169643 48.909697890625004 2.0999988655691966C49.38975814732143 2.3533293106026787 49.79638566964286 2.6933328616071432 50.129830228794646 3.1199920345982144C50.46302501674108 3.5466761847098214 50.71629301897321 4.026661510044644 50.88963423549107 4.55999796484375C51.06297545200893 5.0799966372767855 51.14964606026786 5.599995309709822 51.14964606026786 6.119993982142858C51.14964606026786 7.12000295703125 50.989792488839285 8.066660802455358 50.66983557477679 8.959992495535714C50.36311653459822 9.853299211495536 49.89629415178572 10.633309708705358 49.26961819754464 11.299999010044642C48.81628345982143 11.806709854352679 48.28302193638393 12.273307443080357 47.66983362723215 12.699991593191964C47.056395546875 13.12670072042411 46.42971959263393 13.493289918526786 45.78980576450893 13.800008958705357C45.16312981026786 14.093290308035714 44.57641724888393 14.313288785714287 44.02966808035715 14.460004391741073C43.93625364955358 14.460004391741073 43.87630856026786 14.380002674665178 43.849832812500004 14.219999240513394C43.82310729352679 14.059995806361608 43.809619648437504 13.953293547433036 43.809619648437504 13.899992372209821ZM49.38975814732143 7.800005063616072C49.41623389508929 7.5866754771205365 49.43621559151786 7.366676999441965 49.44970323660714 7.140009630580358C49.46294111049107 6.91334226171875 49.469684933035715 6.686674892857143 49.469684933035715 6.460007523995536C49.469684933035715 6.020010568638393 49.42297771763393 5.560006939732143 49.32981305803572 5.0799966372767855C49.23639862723215 4.600011311941964 49.09627698102679 4.15332048828125 48.909697890625004 3.73999909765625C48.72311880022322 3.32667770703125 48.483088671875 2.993333056361607 48.18960750558036 2.7399901227678574C47.89637611049107 2.4733293885044647 47.55618772879465 2.339999021372768 47.169791674107145 2.339999021372768C46.556353593749996 2.339999021372768 46.043073766741074 2.6333378180803573 45.629702421875 3.2200004252232146C45.229818722098216 3.8066630323660715 45.029751986607145 4.539991291294643 45.029751986607145 5.420010179129465C45.029751986607145 5.966659439174108 45.10967877232143 6.486658111607143 45.26978211495536 6.980006196428572C45.429635686383925 7.459991521763393 45.689647511160715 7.846662324776786 46.049817589285716 8.139993628348213C46.40973789620536 8.433324931919644 46.88305433035715 8.579990583705356 47.469766891741074 8.579990583705356C47.74976041294643 8.579990583705356 48.056229681919646 8.540002213727679 48.389674241071425 8.460000496651787C48.73635667410714 8.366660997209822 49.06980123325893 8.146662519531251 49.38975814732143 7.800005063616072ZM57.39417596540179 12.080009507254465V4.179996053013393C57.39417596540179 3.900002531808036 57.36095639508929 3.706679618861607 57.29426748325893 3.6000023370535716C57.240816445312504 3.493325055245536 57.140907963169646 3.439998902901786 56.994292265625006 3.439998902901786C56.847426796875006 3.439998902901786 56.620884313616074 3.493325055245536 56.3141652734375 3.6000023370535716C56.00744623325893 3.6933418364955357 55.77415992745536 3.7733185764508934 55.61430635602679 3.84000748828125C55.49416640625 3.746667988839286 55.43422131696429 3.6333218158482143 55.43422131696429 3.499993946428572C55.43422131696429 3.499993946428572 55.43422131696429 3.493325055245536 55.43422131696429 3.48001225C55.43422131696429 3.4266611205357145 55.447459190848214 3.393341641741072 55.47418470982143 3.3800038593750004C56.00744623325893 3.1399987081473215 56.527469882812504 2.899993556919643 57.034255658482145 2.6599884056919643C57.55427930803572 2.4066704492187503 57.98088852678571 2.1999997630580355 58.314333085937506 2.039998826618304C58.661015518973215 1.880000387890625 58.84085078683036 1.8000011685267858 58.85433843191965 1.8000011685267858H58.89430182477679C58.960990736607144 1.8000011685267858 59.00744818080358 1.8399995293526787 59.03417369977679 1.919998748716518C59.06089921875 2.000000465792411 59.080880915178575 2.0666693959263394 59.0941187890625 2.1200005436941964C59.0941187890625 2.1200005436941964 59.06739327008928 2.2866703713169647 59.014192003348214 2.620000035714286C58.960990736607144 2.940006904017857 58.93426521763393 3.4000105329241075 58.93426521763393 4.000010922433036V12.080009507254465C58.93426521763393 12.373290856584822 58.93426521763393 12.64669041796875 58.93426521763393 12.900008374441965C58.94750309151786 13.153301353794644 58.98097243303571 13.360012003348213 59.03417369977679 13.519990460379464C59.06089921875 13.586704349330358 59.16080770089286 13.646699392857144 59.334148917410715 13.700000568080357C59.50749013392857 13.753301743303572 59.687575172991075 13.79329011328125 59.87415426339286 13.819990655133928C60.07422099888393 13.833303460379463 60.21409287388393 13.839997328683037 60.294269430803574 13.839997328683037C60.33423282366071 13.89329850390625 60.354214520089286 13.986687957589286 60.354214520089286 14.119990849888394C60.36745239397322 14.2532937421875 60.347470697544644 14.346708172991072 60.294269430803574 14.400009348214287C59.894135959821426 14.373308806361608 59.52747183035714 14.353302132812502 59.19427704241072 14.339989327566965C58.86083248325893 14.313288785714287 58.500912176339284 14.300000957589287 58.11426635044643 14.300000957589287C57.7408583984375 14.300000957589287 57.40091978794643 14.313288785714287 57.094200747767864 14.339989327566965C56.787481707589286 14.353302132812502 56.43430522321429 14.373308806361608 56.03417175223215 14.400009348214287C55.98097048549107 14.346708172991072 55.954244966517855 14.2532937421875 55.954244966517855 14.119990849888394C55.967482840401786 13.986687957589286 55.994208359375 13.89329850390625 56.03417175223215 13.839997328683037C56.11409853794643 13.839997328683037 56.24747636160714 13.833303460379463 56.43430522321429 13.819990655133928C56.634122187500004 13.79329011328125 56.820951049107144 13.753301743303572 56.994292265625006 13.700000568080357C57.16763348214286 13.646699392857144 57.26079814174107 13.586704349330358 57.274285786830355 13.519990460379464C57.32748705357143 13.360012003348213 57.36095639508929 13.153301353794644 57.37419426897321 12.900008374441965C57.38743214285714 12.64669041796875 57.39417596540179 12.373290856584822 57.39417596540179 12.080009507254465ZM68.71880241629465 1.8000011685267858C69.05199720424108 1.8000011685267858 69.41866133370536 1.8999995683035715 69.8187948046875 2.0999988655691966C70.2186785044643 2.2866703713169647 70.55861711495535 2.5666738833705356 70.83861063616071 2.940006904017857C71.13209180245536 3.3133399246651787 71.2787075 3.766674662388393 71.2787075 4.3000111171875C71.2787075 4.7133325078125 71.17205519531251 5.093334419642857 70.95875058593751 5.439991875558036C70.75868385044643 5.78667430859375 70.51215967075893 6.086674503348214 70.2186785044643 6.339992459821429C69.93868498325894 6.593335393415179 69.68541698102679 6.793327197544643 69.4586247265625 6.939992849330357C69.83203267857144 6.993319001674108 70.23216614955356 7.146678521763393 70.65877536830358 7.3999964782366074C71.08538458705357 7.653339411830357 71.44530489397322 8.006665758928571 71.73878606026787 8.460000496651787C72.04550510044643 8.899997452008929 72.19861484933037 9.440002797991072 72.19861484933037 10.07999155747768C72.19861484933037 10.746705835937501 72.05199915178571 11.353300185267857 71.75876775669643 11.899999399553572C71.47877423549107 12.433310877232142 71.09862246093749 12.893289529017856 70.61881197544642 13.280010286272322C70.15223936383929 13.653293352678572 69.62547189174107 13.940005719308036 69.03875933035715 14.1399975234375C68.45204676897322 14.339989327566965 67.85209633370536 14.439997718191965 67.23865825334822 14.439997718191965C66.98539025111607 14.439997718191965 66.66543333705357 14.406703216517858 66.27878751116071 14.339989327566965C65.90537955915178 14.260012587611609 65.56544094866072 14.1399975234375 65.25872190848214 13.979994089285716C65.20552064174107 13.940005719308036 65.12534408482144 13.846691196986608 65.01869178013393 13.700000568080357C64.91203947544643 13.553309939174108 64.8585884375 13.400000373325893 64.8585884375 13.239996939174107C64.8585884375 12.960003417968752 64.93876499441964 12.733311071986607 65.09861856584821 12.559994832589286C65.27220955357143 12.3867035703125 65.46553246651786 12.300007984933037 65.6785873046875 12.300007984933037C65.94534295200894 12.300007984933037 66.15215351004464 12.406710243861607 66.29876920758929 12.619989876116072C66.45862277901786 12.820006657366072 66.61872612165179 12.99999178794643 66.77882946428572 13.159995222098216C66.96540855468751 13.346699198102678 67.18545698660715 13.480002090401786 67.4387249888393 13.56000380747768C67.70548063616071 13.626692719308036 67.9654924609375 13.66001219810268 68.21876046316964 13.66001219810268C68.56544289620535 13.66001219810268 68.91212532924108 13.56669767578125 69.25880776227679 13.379993699776787C69.61872806919644 13.180001895647322 69.91870328683035 12.85999502734375 70.15873341517857 12.419998071986607C70.3987635435268 11.96668831138393 70.51865372209822 11.366687921875 70.51865372209822 10.619996903459823C70.51865372209822 10.086710402901787 70.3987635435268 9.61998792857143 70.15873341517857 9.220004320312501C69.91870328683035 8.806657952566963 69.60549019531251 8.480007170200892 69.21859459821428 8.240002018973215C68.84543641741072 7.999996867745536 68.44530294642857 7.880006780691964 68.01869372767858 7.880006780691964C67.80538911830358 7.880006780691964 67.58534068638393 7.913326259486608 67.358798203125 7.9799901941964295C67.14549359374999 8.046679106026787 66.97864642857144 8.0933363671875 66.85875625 8.120011931919644C66.77882946428572 8.013334650111608 66.73861630022321 7.886675671875 66.73861630022321 7.740010020089286C66.73861630022321 7.646670520647321 66.7521039453125 7.5800065859375 66.77882946428572 7.539993238839286C67.29860334263392 7.420003151785715 67.79215124441964 7.239993044084821 68.25872385602679 6.999987892857144C68.72529646763394 6.760007718750001 69.09870441964287 6.4533386328125 69.37869794084821 6.080005612165179C69.67217910714287 5.693334809151786 69.8187948046875 5.219993397879465 69.8187948046875 4.6600063554687505C69.8187948046875 4.140007683035714 69.63870976562501 3.706679618861607 69.27878945870536 3.359997185825893C68.91861938058037 3.0133397299107143 68.45879059151787 2.839998513392857 67.89880354910714 2.839998513392857C67.48543220424108 2.839998513392857 67.12551189732143 2.940006904017857 66.81879285714285 3.1399987081473215C66.51207381696427 3.32667770703125 66.26529986607143 3.5266695111607143 66.07872077566965 3.73999909765625C65.90537955915178 3.9399909017857144 65.78548938058036 4.066674857142858 65.71880046875 4.120001009486607C65.66534943080357 4.120001009486607 65.6121481640625 4.073318771205357 65.55869712611607 3.9800042488839287C65.505495859375 3.8866647494419646 65.47877034040178 3.7933252500000005 65.47877034040178 3.7000107276785714C65.6785873046875 3.393341641741072 65.932105078125 3.100010338169643 66.23882411830357 2.81999183984375C66.55878103236607 2.5266605362723213 66.92544516183035 2.2866703713169647 67.33881650669643 2.0999988655691966C67.75218785156251 1.8999995683035715 68.21201664062501 1.8000011685267858 68.71880241629465 1.8000011685267858ZM78.62322979352679 11.020005488839285C78.62322979352679 9.233342102678572 78.38319966517857 7.500004868861607 77.90338917968751 5.819993787388394C77.21002431361607 3.353328294642857 76.15648936941965 1.5533296238281251 74.74328388950893 0.42000027265625L75.02327741071429 0C75.7965690625 0.6133306787388393 76.509915625 1.3200008569196429 77.16331709821428 2.1200005436941964C79.1232717466518 4.533322400111607 80.10337395647322 7.500004868861607 80.10337395647322 11.020005488839285C80.10337395647322 12.660003223214286 79.863343828125 14.219999240513394 79.38328357142858 15.699993540736608C78.54330300781251 18.313299708147323 77.08988436383929 20.43330774497768 75.02327741071429 22.059992674107146L74.74328388950893 21.720004109375C75.82329458147322 20.773296309709824 76.69649471540178 19.46669318024554 77.36338383370537 17.799994904017858C78.20336439732144 15.653311302455357 78.62322979352679 13.393306505022323 78.62322979352679 11.020005488839285ZM94.28338482700893 1.7799994904017857C94.8698476171875 1.7799994904017857 95.40335891183037 1.8933306771205358 95.88341916852679 2.1200005436941964C96.37671729910716 2.346670410267857 96.7698571763393 2.6733261880580357 97.06333834263393 3.100010338169643C97.35656973772322 3.5266695111607143 97.50343520647321 4.04666818359375 97.50343520647321 4.6600063554687505C97.50343520647321 5.166667245535715 97.38329525669643 5.606664200892857 97.1432651283482 5.979997221540179C96.90323500000001 6.3533302421875 96.61000360491072 6.6733371104910715 96.263321171875 6.939992849330357C95.92987661272322 7.206673565290179 95.60991969866072 7.433340934151786 95.30320065848215 7.619994955915178C95.21003599888394 7.646670520647321 95.21003599888394 7.686658890625 95.30320065848215 7.740010020089286C95.70333412946428 7.953339606584822 96.09672377790179 8.23333312779018 96.48336960379464 8.579990583705356C96.88325330357142 8.926673016741073 97.20995404017859 9.313318842633928 97.4632220424107 9.740002992745536C97.72997768973215 10.166687142857143 97.86335551339286 10.613303035156251 97.86335551339286 11.080000532366071C97.86335551339286 11.733302097098214 97.690014296875 12.319989681361607 97.3433318638393 12.839988353794643C96.99664943080357 13.360012003348213 96.53657087053571 13.77330841685268 95.96334595424108 14.080002479910714C95.40335891183037 14.373308806361608 94.79666465401786 14.519999435267858 94.14326318080357 14.519999435267858C93.43666044084821 14.519999435267858 92.8032406640625 14.38669654296875 92.24325362165179 14.119990849888394C91.696504453125 13.853310133928572 91.269895234375 13.480002090401786 90.9634259654018 12.99999178794643C90.65670692522322 12.520006462611608 90.50334740513394 11.96668831138393 90.50334740513394 11.340012357142857C90.50334740513394 10.913303229910714 90.59651206473215 10.52670735825893 90.78334092633929 10.17999994810268C90.96992001674109 9.833292537946429 91.20320632254464 9.526698383370537 91.48319984375 9.25999269029018C91.76319336495537 8.993336951450894 92.04343665736609 8.766669582589286 92.32343017857143 8.579990583705356C92.6166615736607 8.393336561941965 92.85669170200893 8.240002018973215 93.04327079241072 8.120011931919644C93.09672183035715 8.07999858482143 93.09672183035715 8.046679106026787 93.04327079241072 8.020003541294644C92.77651514508929 7.860000107142858 92.48328375 7.63333273828125 92.1633268359375 7.340001434709822C91.85660779575893 7.033332348772321 91.5898521484375 6.680006001674107 91.36330966517858 6.279997416294643C91.15000505580358 5.879988830915178 91.04335275111607 5.439991875558036 91.04335275111607 4.9600065502232145C91.04335275111607 4.399994530691965 91.18996844866072 3.879995858258929 91.48319984375 3.4000105329241075C91.78991888392856 2.9200002304687502 92.18980258370536 2.533329427455357 92.68335048549108 2.240000621595982C93.17664861607143 1.9333290379464287 93.70991013950893 1.7799994904017857 94.28338482700893 1.7799994904017857ZM94.18322657366072 13.819990655133928C94.82339017299108 13.819990655133928 95.32992617745536 13.619998851004464 95.70333412946428 13.219990265625002C96.08997995535714 12.820006657366072 96.28330286830358 12.29328913950893 96.28330286830358 11.640012551897321C96.28330286830358 11.240003966517857 96.16990674107143 10.866695922991072 95.9433642578125 10.519988512834821C95.71657200334822 10.159993274553571 95.44981635602679 9.846705251674107 95.14334708705358 9.57999955859375C94.836628046875 9.300006037388393 94.549890703125 9.073338668526786 94.28338482700893 8.899997452008929C94.0166291796875 8.726681212611608 93.8500317857143 8.620003930803572 93.78334287388392 8.579990583705356C93.7298918359375 8.55333999609375 93.68992844308036 8.540002213727679 93.66320292410714 8.540002213727679C93.62323953125001 8.540002213727679 93.59651401227678 8.546671104910715 93.58327613839286 8.560008887276785C93.05001461495536 8.893328560825893 92.65662496651787 9.27333047265625 92.40335696428572 9.699989645647323C92.1633268359375 10.126698772879465 92.04343665736609 10.65329140513393 92.04343665736609 11.279992336495535C92.04343665736609 11.813303814174109 92.14983919084823 12.273307443080357 92.36339357142857 12.660003223214286C92.57669818080358 13.033311266741071 92.84320405691965 13.31999865625 93.16341074218751 13.519990460379464C93.49660553013393 13.720007241629466 93.83654414062501 13.819990655133928 94.18322657366072 13.819990655133928ZM94.18322657366072 2.4599990992745537C93.71665396205357 2.4599990992745537 93.31652049107143 2.6733261880580357 92.983325703125 3.100010338169643C92.6633687890625 3.5266695111607143 92.50326544642857 4.033330401227679 92.50326544642857 4.619993008370536C92.50326544642857 5.1133410931919645 92.6166615736607 5.533331375 92.84320405691965 5.879988830915178C93.08323418526786 6.213333481584822 93.36322770647322 6.486658111607143 93.68343439174107 6.700012675223214C94.00339130580358 6.91334226171875 94.28338482700893 7.093327392299107 94.52341495535714 7.239993044084821C94.549890703125 7.253330826450893 94.58985409598215 7.259999717633929 94.64330513392858 7.259999717633929C94.6565430078125 7.259999717633929 94.66328683035715 7.259999717633929 94.66328683035715 7.259999717633929C94.7032502232143 7.259999717633929 94.73671956473214 7.253330826450893 94.7631953125 7.239993044084821C95.16332878348214 6.973337305245536 95.48328569754464 6.6399926545758925 95.72331582589287 6.240009046316965C95.96334595424108 5.8400004609375005 96.0832361328125 5.373327940848215 96.0832361328125 4.839991486049107C96.0832361328125 4.453320683035714 96.00330934709822 4.079987662388393 95.84320600446429 3.7199924241071427C95.69659030691965 3.359997185825893 95.48328569754464 3.059996991071429 95.20329217633929 2.81999183984375C94.92329865513393 2.580011665736607 94.58336004464286 2.4599990992745537 94.18322657366072 2.4599990992745537ZM107.46780767299107 1.9799987876674108C107.72082590401787 1.9799987876674108 107.99482491629465 1.973329896484375 108.28780654017858 1.9599996072544643C108.58078816406251 1.9333290379464287 108.75487869419644 1.919998748716518 108.80783018973214 1.919998748716518C108.88775697544644 1.919998748716518 108.92772036830358 1.9799987876674108 108.92772036830358 2.0999988655691966C108.92772036830358 2.2333292327008927 108.86777527901786 2.420000738448661 108.74788510044642 2.6599884056919643C108.62774515066964 2.886680751674107 108.50086137834822 3.133329816964286 108.36773332589286 3.4000105329241075L103.22769169084822 14.380002674665178C103.18772829799109 14.419991044642858 103.12078961495536 14.439997718191965 103.0278747265625 14.439997718191965C102.88075948660715 14.439997718191965 102.70092421875 14.406703216517858 102.48786938058036 14.339989327566965C102.27481454241071 14.260012587611609 102.16791246651786 14.173292025111607 102.16791246651786 14.080002479910714C102.50085748325894 13.57329163560268 102.86777138392858 12.960003417968752 103.26790485491071 12.239987964285715C103.6677885546875 11.519997487723215 104.07491561941964 10.7599936640625 104.487787421875 9.960001470424107C104.91489618303571 9.160009276785715 105.3147798828125 8.373329888392858 105.68768829241071 7.5999882823660725C106.07483366071429 6.826671653459822 106.41477227120535 6.126662873325893 106.70775389508928 5.500011896205357C107.01472270647322 4.859998159598214 107.25475283482143 4.35333726953125 107.42784428013394 3.9800042488839287C107.61492291294643 3.593333445870536 107.7078378013393 3.4000105329241075 107.7078378013393 3.4000105329241075H102.74788120535715C102.36073583705357 3.4000105329241075 102.06775421316964 3.5200006199776785 101.86793724888393 3.7600057712053574C101.66787051339286 4.000010922433036 101.49477906808036 4.379987857142858 101.34791359933035 4.900011506696428C101.33492549665179 4.979988246651786 101.25474893973214 5.020001593750001 101.10788347098215 5.020001593750001C101.067920078125 5.020001593750001 101.00073162388394 5.0066638113839295 100.90781673549107 4.979988246651786C100.82788994977679 4.953337659040178 100.76769508928572 4.9266620943080355 100.72773169642856 4.900011506696428C100.90082314174109 4.366675051897322 101.060926484375 3.8266697059151786 101.20779195312501 3.27999546875C101.36789529575894 2.720008426339286 101.48079188058037 2.2866703713169647 101.54773056361607 1.9799987876674108H107.46780767299107ZM114.9729328515625 12.080009507254465V4.179996053013393C114.9729328515625 3.900002531808036 114.93871419642858 3.706679618861607 114.87277459821428 3.6000023370535716C114.81882401785715 3.493325055245536 114.71891553571429 3.439998902901786 114.57279938058036 3.439998902901786C114.42593391183036 3.439998902901786 114.19889188616072 3.493325055245536 113.89292215959821 3.6000023370535716C113.58570357700894 3.6933418364955357 113.35291681361608 3.7733185764508934 113.19281347098214 3.84000748828125C113.07292329241072 3.746667988839286 113.01272843191964 3.6333218158482143 113.01272843191964 3.499993946428572C113.01272843191964 3.499993946428572 113.01272843191964 3.493325055245536 113.01272843191964 3.48001225C113.01272843191964 3.4266611205357145 113.02571653459822 3.393341641741072 113.05269182477679 3.3800038593750004C113.58570357700894 3.1399987081473215 114.10572722656251 2.899993556919643 114.6127627734375 2.6599884056919643C115.13278642299107 2.4066704492187503 115.55889609933035 2.1999997630580355 115.89284020089286 2.039998826618304C116.2387733203125 1.880000387890625 116.418858359375 1.8000011685267858 116.43284554687501 1.8000011685267858H116.47280893973215C116.53874853794643 1.8000011685267858 116.58570552455357 1.8399995293526787 116.6129305859375 1.919998748716518C116.63890679129464 2.000000465792411 116.65888848772322 2.0666693959263394 116.67287567522322 2.1200005436941964C116.67287567522322 2.1200005436941964 116.64590038504465 2.2866703713169647 116.59269911830357 2.620000035714286C116.53874853794643 2.940006904017857 116.5127723325893 3.4000105329241075 116.5127723325893 4.000010922433036V12.080009507254465C116.5127723325893 12.373290856584822 116.5127723325893 12.64669041796875 116.5127723325893 12.900008374441965C116.52576043526786 13.153301353794644 116.558730234375 13.360012003348213 116.6129305859375 13.519990460379464C116.63890679129464 13.586704349330358 116.7388152734375 13.646699392857144 116.91290580357143 13.700000568080357C117.08574747767858 13.753301743303572 117.26583251674107 13.79329011328125 117.45291114955359 13.819990655133928C117.65272811383929 13.833303460379463 117.79284976004465 13.839997328683037 117.87277654575894 13.839997328683037C117.91273993861608 13.89329850390625 117.93272163504464 13.986687957589286 117.93272163504464 14.119990849888394C117.9457097377232 14.2532937421875 117.92572804129465 14.346708172991072 117.87277654575894 14.400009348214287C117.47289284598214 14.373308806361608 117.10572917410714 14.353302132812502 116.77278415736608 14.339989327566965C116.43884005580358 14.313288785714287 116.07891974888393 14.300000957589287 115.69277346540179 14.300000957589287C115.31886597098215 14.300000957589287 114.97892736049107 14.313288785714287 114.67270786272321 14.339989327566965C114.36573905133929 14.353302132812502 114.01281233816965 14.373308806361608 113.61292863839286 14.400009348214287C113.55872828683036 14.346708172991072 113.53275208147322 14.2532937421875 113.53275208147322 14.119990849888394C113.54574018415178 13.986687957589286 113.57271547433037 13.89329850390625 113.61292863839286 13.839997328683037C113.69285542410715 13.839997328683037 113.82573370535715 13.833303460379463 114.01281233816965 13.819990655133928C114.21287907366072 13.79329011328125 114.39870885044644 13.753301743303572 114.57279938058036 13.700000568080357C114.74589082589286 13.646699392857144 114.83880571428573 13.586704349330358 114.85279290178572 13.519990460379464C114.90574439732143 13.360012003348213 114.93871419642858 13.153301353794644 114.95270138392858 12.900008374441965C114.96568948660715 12.64669041796875 114.9729328515625 12.373290856584822 114.9729328515625 12.080009507254465ZM121.59686521763393 9.760009666294643V8.199988671875H126.43693163504464V9.760009666294643H121.59686521763393ZM132.5618211328125 6.620010958147322C133.33586209821428 6.620010958147322 133.98876402901786 6.793327197544643 134.52177578125003 7.140009630580358C135.06877472098213 7.486667086495536 135.48888988839286 7.926664041852679 135.78187151227678 8.460000496651787C136.07585222098214 8.979999169084822 136.2217186049107 9.520004515066965 136.2217186049107 10.07999155747768C136.2217186049107 10.746705835937501 136.07585222098214 11.353300185267857 135.78187151227678 11.899999399553572C135.50187799107144 12.433310877232142 135.12172621651786 12.893289529017856 134.6419157310268 13.280010286272322C134.1758426618304 13.653293352678572 133.6488254185268 13.940005719308036 133.06186308593752 14.1399975234375C132.47589983816965 14.339989327566965 131.87569963169642 14.439997718191965 131.26176200892857 14.439997718191965C131.0087437779018 14.439997718191965 130.6887868638393 14.406703216517858 130.30189126674105 14.339989327566965C129.92873308593752 14.260012587611609 129.58879447544643 14.1399975234375 129.2818256640625 13.979994089285716C129.2288741685268 13.940005719308036 129.14869761160713 13.846691196986608 129.0417955357143 13.700000568080357C128.93589254464285 13.553309939174108 128.88169219308037 13.400000373325893 128.88169219308037 13.239996939174107C128.88169219308037 12.960003417968752 128.96186875 12.733311071986607 129.1217223214286 12.559994832589286C129.29581285156252 12.3867035703125 129.48888599330357 12.300007984933037 129.70169106026788 12.300007984933037C129.96869647879464 12.300007984933037 130.17575680803571 12.406710243861607 130.32187296316965 12.619989876116072C130.4817265345982 12.820006657366072 130.64182987723217 12.99999178794643 130.80193321986607 13.159995222098216C130.9887620814732 13.346699198102678 131.20881051339288 13.480002090401786 131.46182874441965 13.56000380747768C131.72883416294644 13.626692719308036 131.9888459877232 13.66001219810268 132.24186421875 13.66001219810268C132.58879642299107 13.66001219810268 132.93572862723215 13.56669767578125 133.28191151785714 13.379993699776787C133.6418318247768 13.180001895647322 133.94180704241072 12.85999502734375 134.18183717075894 12.419998071986607C134.42186729910713 11.96668831138393 134.54175747767857 11.366687921875 134.54175747767857 10.619996903459823C134.54175747767857 10.206700489955356 134.43585448660716 9.779991362723214 134.22180056361609 9.33999440736607C134.021733828125 8.886659669642858 133.69578240513394 8.5066577578125 133.24169835379465 8.199988671875C132.78886315848217 7.880006780691964 132.1819191294643 7.720003346540179 131.4218653515625 7.720003346540179C131.20881051339288 7.720003346540179 130.9218233984375 7.753322825334822 130.56190309151785 7.82001173716518C130.20173301339287 7.873337889508929 129.9417211886161 7.940001824218751 129.7818676171875 8.020003541294644C129.74190422433037 8.020003541294644 129.70169106026788 7.993327976562501 129.6617276674107 7.940001824218751C129.63575146205358 7.873337889508929 129.62176427455358 7.806673954799107 129.62176427455358 7.740010020089286C129.76887951450894 7.006681761160714 129.91574498325895 6.273328525111607 130.06186113839289 5.540000266183036C130.20872660714286 4.806672007254464 130.34185465959823 4.126669900669643 130.46174483816966 3.499993946428572C130.5958719754464 2.8600051869419643 130.69578045758928 2.339999021372768 130.76172005580358 1.9400004268415179H133.6418318247768C133.90883724330357 1.9400004268415179 134.18183717075894 1.926670137611607 134.4618306919643 1.8999995683035715C134.74182421316965 1.873328998995536 134.9758598325893 1.8466709182477679 135.16193938058038 1.8200003489397323C135.3487682421875 1.7799994904017857 135.44193290178572 1.7600003099888393 135.44193290178572 1.7600003099888393C135.50887158482143 1.8000011685267858 135.56182308035716 1.833330638169643 135.6017864732143 1.8599987097656252C135.65573705357144 1.8866692790736608 135.6817132589286 1.926670137611607 135.6817132589286 1.9799987876674108C135.6817132589286 2.0199996462053575 135.65573705357144 2.126669434877232 135.6017864732143 2.3000006605468752C135.56182308035716 2.4599990992745537 135.49588348214286 2.640006709263393 135.4017197377232 2.839998513392857C135.32179295200893 3.0399903175223213 135.2218844698661 3.213331534040179 135.1017445200893 3.359997185825893C134.83573818638394 3.386672750558036 134.51578127232145 3.413323338169643 134.1418737779018 3.439998902901786C133.76871559709824 3.4666744676339287 133.32886850446428 3.48001225 132.8218329575893 3.48001225H131.18183522321428C131.0616952734375 4.066674857142858 130.94180509486606 4.666675246651787 130.82191491629467 5.27998844140625C130.71576215401785 5.879988830915178 130.601866484375 6.4533386328125 130.4817265345982 6.999987892857144C130.74873195312503 6.893335588169643 131.09591392857143 6.806664979910715 131.52177383370534 6.740001045200893C131.96187069754464 6.659999328125 132.30880290178573 6.620010958147322 132.5618211328125 6.620010958147322ZM143.38690517299108 1.8000011685267858C143.71985018973214 1.8000011685267858 144.0867640904018 1.8999995683035715 144.48689756138393 2.0999988655691966C144.8867812611607 2.2866703713169647 145.2267198716518 2.5666738833705356 145.50671339285714 2.940006904017857C145.79969501674105 3.3133399246651787 145.94681025669644 3.766674662388393 145.94681025669644 4.3000111171875C145.94681025669644 4.7133325078125 145.83990818080358 5.093334419642857 145.62685334263395 5.439991875558036C145.42678660714287 5.78667430859375 145.17976288504465 6.086674503348214 144.8867812611607 6.339992459821429C144.60678773995537 6.593335393415179 144.35376950892856 6.793327197544643 144.12672748325892 6.939992849330357C144.4998856640625 6.993319001674108 144.89976936383928 7.146678521763393 145.326878125 7.3999964782366074C145.75373711495536 7.653339411830357 146.11390719308037 8.006665758928571 146.40688881696428 8.460000496651787C146.71385762834822 8.899997452008929 146.86671760602678 9.440002797991072 146.86671760602678 10.07999155747768C146.86671760602678 10.746705835937501 146.7198521372768 11.353300185267857 146.42687051339286 11.899999399553572C146.14687699218752 12.433310877232142 145.76672521763393 12.893289529017856 145.28691473214286 13.280010286272322C144.819842578125 13.653293352678572 144.29382441964285 13.940005719308036 143.7068620870536 14.1399975234375C143.11989975446429 14.339989327566965 142.51969954799108 14.439997718191965 141.90676101004465 14.439997718191965C141.65374277901788 14.439997718191965 141.33378586495536 14.406703216517858 140.94689026785713 14.339989327566965C140.57373208705357 14.260012587611609 140.23379347656248 14.1399975234375 139.92682466517857 13.979994089285716C139.87387316964288 13.940005719308036 139.7936966127232 13.846691196986608 139.68679453683038 13.700000568080357C139.57989246093751 13.553309939174108 139.52669119419645 13.400000373325893 139.52669119419645 13.239996939174107C139.52669119419645 12.960003417968752 139.60686775111606 12.733311071986607 139.76672132254464 12.559994832589286C139.93981276785715 12.3867035703125 140.13388499441965 12.300007984933037 140.3469398325893 12.300007984933037C140.61369547991072 12.300007984933037 140.81975672433035 12.406710243861607 140.96687196428573 12.619989876116072C141.1267255357143 12.820006657366072 141.28682887834822 12.99999178794643 141.44693222098215 13.159995222098216C141.63376108258927 13.346699198102678 141.85380951450892 13.480002090401786 142.10682774553572 13.56000380747768C142.37383316406252 13.626692719308036 142.6338449888393 13.66001219810268 142.8868632198661 13.66001219810268C143.23379542410717 13.66001219810268 143.5797285435268 13.56669767578125 143.92691051897322 13.379993699776787C144.28683082589288 13.180001895647322 144.5868060435268 12.85999502734375 144.826836171875 12.419998071986607C145.0668663002232 11.96668831138393 145.18675647879465 11.366687921875 145.18675647879465 10.619996903459823C145.18675647879465 10.086710402901787 145.0668663002232 9.61998792857143 144.826836171875 9.220004320312501C144.5868060435268 8.806657952566963 144.2738427232143 8.480007170200892 143.88669735491072 8.240002018973215C143.5137889453125 7.999996867745536 143.11390524553573 7.880006780691964 142.686796484375 7.880006780691964C142.47374164620538 7.880006780691964 142.2536932142857 7.913326259486608 142.02690095982143 7.9799901941964295C141.81384612165178 8.046679106026787 141.64674918526785 8.0933363671875 141.52685900669644 8.120011931919644C141.44693222098215 8.013334650111608 141.40671905691966 7.886675671875 141.40671905691966 7.740010020089286C141.40671905691966 7.646670520647321 141.41970715959823 7.5800065859375 141.44693222098215 7.539993238839286C141.96670609933034 7.420003151785715 142.45975445870536 7.239993044084821 142.92682661272323 6.999987892857144C143.39389876674107 6.760007718750001 143.7668071763393 6.4533386328125 144.04680069754465 6.080005612165179C144.33978232142857 5.693334809151786 144.48689756138393 5.219993397879465 144.48689756138393 4.6600063554687505C144.48689756138393 4.140007683035714 144.30681252232142 3.706679618861607 143.94689221540182 3.359997185825893C143.5867221372768 3.0133397299107143 143.1268933482143 2.839998513392857 142.56690630580357 2.839998513392857C142.15378473214287 2.839998513392857 141.79386442522323 2.940006904017857 141.4868956138393 3.1399987081473215C141.17992680245536 3.32667770703125 140.93390216517855 3.5266695111607143 140.74682353236608 3.73999909765625C140.57373208705357 3.9399909017857144 140.45384190848216 4.066674857142858 140.38690322544645 4.120001009486607C140.33370195870538 4.120001009486607 140.27975137834824 4.073318771205357 140.22679988281251 3.9800042488839287C140.1738483872768 3.8866647494419646 140.14687309709822 3.7933252500000005 140.14687309709822 3.7000107276785714C140.3469398325893 3.393341641741072 140.59970829241072 3.100010338169643 140.906926875 2.81999183984375C141.2268837890625 2.5266605362723213 141.59379768973216 2.2866703713169647 142.00691926339286 2.0999988655691966C142.41979106584822 1.8999995683035715 142.8798696261161 1.8000011685267858 143.38690517299108 1.8000011685267858ZM149.330710546875 9.760009666294643V8.199988671875H154.17077696428572V9.760009666294643H149.330710546875ZM160.61687223214287 6.620010958147322C161.29674945312502 6.620010958147322 161.86273100446428 6.746669936383928 162.31681505580357 6.999987892857144C162.782888125 7.253330826450893 163.14980202566966 7.5800065859375 163.41680744419642 7.9799901941964295C163.6968009654018 8.366660997209822 163.89686770089287 8.780007364955358 164.0167578794643 9.220004320312501C164.13689782924106 9.646688470424108 164.19684291852678 10.03330931919643 164.19684291852678 10.379991752232144C164.19684291852678 11.10000720591518 164.0167578794643 11.773290467075894 163.65683757254465 12.399991398437502C163.30990536830356 13.013304593191965 162.83683870535714 13.513296592075893 162.2368882700893 13.899992372209821C161.6499259375 14.273300415736607 160.98278704799108 14.460004391741073 160.23672045758929 14.460004391741073C159.649758125 14.460004391741073 159.11674637276786 14.333295459263393 158.63668611607144 14.080002479910714C158.16986373325895 13.813296786830358 157.7697302622768 13.466689285156251 157.4367852455357 13.040005135044643C157.10284114397322 12.613296007812501 156.84282931919645 12.140004550781251 156.65674977120537 11.620005878348215C156.4829090122768 11.086694400669643 156.39673794642857 10.560001859933037 156.39673794642857 10.040003187500002C156.39673794642857 9.039994212611608 156.5568412890625 8.0933363671875 156.876798203125 7.200004674107143C157.1967551171875 6.306672981026786 157.66282818638393 5.526662483816964 158.27676580915178 4.859998159598214C158.7428388783482 4.35333726953125 159.2768497154018 3.8866647494419646 159.87680015066965 3.460005576450893C160.4897386886161 3.0333214263392856 161.10992059151786 2.666682273995536 161.7368463169643 2.360000699497768C162.3767601450893 2.0533291158482148 162.96971698660715 1.833330638169643 163.51671592633932 1.7000002710379465C163.6098805859375 1.7000002710379465 163.66982567522322 1.7799994904017857 163.6968009654018 1.9400004268415179C163.72277717075895 2.0866710740513392 163.73676435825894 2.1933308718749998 163.73676435825894 2.2599998020089287C163.32289347098214 2.3933301691406252 162.84982680803571 2.580011665736607 162.31681505580357 2.81999183984375C161.79679140625 3.059996991071429 161.26977416294642 3.3800038593750004 160.73676241071428 3.7800124447544645C160.20275157366072 4.179996053013393 159.7226913169643 4.686681920200893 159.29683141183034 5.299995114955357C158.86972265066964 5.899995504464286 158.54277214285713 6.633323763392857 158.31672920200893 7.500004868861607C158.66291209263392 7.220011347656251 159.04980768973215 7.006681761160714 159.47691645089284 6.859991132254464C159.9027763560268 6.700012675223214 160.2829281305804 6.620010958147322 160.61687223214287 6.620010958147322ZM158.15687563058037 8.359992106026786C158.1299003404018 8.573321692522322 158.10991864397323 8.793320170200893 158.09693054129465 9.020012516183037C158.0826935825893 9.246679885044644 158.0766990736607 9.473297299665179 158.0766990736607 9.699989645647323C158.0766990736607 10.140011578125 158.1229067466518 10.599990229910714 158.2168207198661 11.080000532366071C158.30973560825893 11.56001083482143 158.4498572544643 12.006701658482143 158.63668611607144 12.419998071986607C158.8367528515625 12.833294485491072 159.0827774888393 13.17330802734375 159.37675819754466 13.439988743303571C159.66973982142858 13.693306699776786 160.009928203125 13.819990655133928 160.39682380022322 13.819990655133928C161.02275044084823 13.819990655133928 161.53677958147324 13.526709305803571 161.93691305245537 12.939996744419643C162.33679675223215 12.35330916015625 162.53686348772322 11.620005878348215 162.53686348772322 10.74001196763393C162.53686348772322 10.17999994810268 162.4496933370536 9.660001275669645 162.27685166294643 9.179990973214286C162.11674832031252 8.700005647879465 161.85673649553573 8.313334844866072 161.49681618861607 8.020003541294644C161.13689588169643 7.726672237723214 160.6628301339286 7.5800065859375 160.07686688616073 7.5800065859375C159.79687336495536 7.5800065859375 159.48291095982142 7.626663847098214 159.13672806919644 7.720003346540179C158.80278396763393 7.800005063616072 158.4768325446429 8.013334650111608 158.15687563058037 8.359992106026786ZM171.26087214843753 6.620010958147322C171.94074936941965 6.620010958147322 172.50773000558036 6.746669936383928 172.9608149720982 6.999987892857144C173.42788712611608 7.253330826450893 173.79480102678573 7.5800065859375 174.06080736049108 7.9799901941964295C174.34080088169642 8.366660997209822 174.5408676171875 8.780007364955358 174.66075779575894 9.220004320312501C174.78089774553573 9.646688470424108 174.84084283482144 10.03330931919643 174.84084283482144 10.379991752232144C174.84084283482144 11.10000720591518 174.66075779575894 11.773290467075894 174.30083748883928 12.399991398437502C173.95490436941964 13.013304593191965 173.4808386216518 13.513296592075893 172.88088818638394 13.899992372209821C172.29492493861608 14.273300415736607 171.62778604910716 14.460004391741073 170.88072037388395 14.460004391741073C170.29475712611608 14.460004391741073 169.7607462890625 14.333295459263393 169.28068603236608 14.080002479910714C168.81486273437503 13.813296786830358 168.41472926339284 13.466689285156251 168.08078516183036 13.040005135044643C167.7478401450893 12.613296007812501 167.48782832031253 12.140004550781251 167.3007496875 11.620005878348215C167.12790801339287 11.086694400669643 167.0407378627232 10.560001859933037 167.0407378627232 10.040003187500002C167.0407378627232 9.039994212611608 167.20084120535716 8.0933363671875 167.52079811941965 7.200004674107143C167.84075503348214 6.306672981026786 168.3078271875 5.526662483816964 168.92076572544644 4.859998159598214C169.38783787946429 4.35333726953125 169.92084963169646 3.8866647494419646 170.52080006696428 3.460005576450893C171.13473768973216 3.0333214263392856 171.75491959263394 2.666682273995536 172.38084623325892 2.360000699497768C173.02076006138392 2.0533291158482148 173.61471598772323 1.833330638169643 174.16071584263392 1.7000002710379465C174.25487958705358 1.7000002710379465 174.3148246763393 1.7799994904017857 174.34080088169642 1.9400004268415179C174.36777617187502 2.0866710740513392 174.3807642745536 2.1933308718749998 174.3807642745536 2.2599998020089287C173.9678924720982 2.3933301691406252 173.4948258091518 2.580011665736607 172.9608149720982 2.81999183984375C172.44079132254464 3.059996991071429 171.9147731640625 3.3800038593750004 171.3807623270089 3.7800124447544645C170.8477505747768 4.179996053013393 170.36769031808038 4.686681920200893 169.940831328125 5.299995114955357C169.51472165178572 5.899995504464286 169.1877711439732 6.633323763392857 168.96072911830356 7.500004868861607C169.30791109375 7.220011347656251 169.6948066908482 7.006681761160714 170.1209163671875 6.859991132254464C170.54777535714288 6.700012675223214 170.92792713169644 6.620010958147322 171.26087214843753 6.620010958147322ZM168.800875546875 8.359992106026786C168.77489934151785 8.573321692522322 168.7549176450893 8.793320170200893 168.7409304575893 9.020012516183037C168.72769258370536 9.246679885044644 168.72069898995537 9.473297299665179 168.72069898995537 9.699989645647323C168.72069898995537 10.140011578125 168.76790574776788 10.599990229910714 168.86082063616072 11.080000532366071C168.954734609375 11.56001083482143 169.09485625558037 12.006701658482143 169.28068603236608 12.419998071986607C169.48075276785715 12.833294485491072 169.72777648995537 13.17330802734375 170.0207581138393 13.439988743303571C170.31473882254465 13.693306699776786 170.6549272042411 13.819990655133928 171.04082371651785 13.819990655133928C171.66774944196428 13.819990655133928 172.18077949776787 13.526709305803571 172.58091296875 12.939996744419643C172.9807966685268 12.35330916015625 173.18086340401786 11.620005878348215 173.18086340401786 10.74001196763393C173.18086340401786 10.17999994810268 173.09469233816966 9.660001275669645 172.9208515792411 9.179990973214286C172.76074823660716 8.700005647879465 172.50073641183036 8.313334844866072 172.1408161049107 8.020003541294644C171.7808957979911 7.726672237723214 171.30782913504467 7.5800065859375 170.72086680245536 7.5800065859375C170.44087328125002 7.5800065859375 170.1279099609375 7.626663847098214 169.78072798549107 7.720003346540179C169.44778296875 7.800005063616072 169.1208324609375 8.013334650111608 168.800875546875 8.359992106026786Z" fill="black"></path></svg> 