<?xml version="1.0" encoding="UTF-8"?> <svg xmlns="http://www.w3.org/2000/svg" viewBox="0 0 44.005859375 12.919998168945312" fill="none"><path d="M1.9600035731152896 10.380012605932203V2.480001172316384C1.9600035731152896 2.200002082560911 1.9266635406735524 2.0066721599134887 1.8600033654440327 1.90000145954714C1.8066642859507416 1.793330759180791 1.7066640782794846 1.7400016245144774 1.5600027424302614 1.7400016245144774C1.4133339479608051 1.7400016245144774 1.1866639928716456 1.793330759180791 0.8800028219897599 1.90000145954714C0.5733341924876413 1.9933311745233049 0.34000368953036725 2.0733323351430086 0.18000410311837922 2.1399999689927616C0.06000012460275424 2.0466702540165964 0 1.9333315471618997 0 1.8000012518758828C0 1.8000012518758828 0 1.793330759180791 0 1.7800022048243291C0 1.7266705839512713 0.013333949425097105 1.693330551509534 0.04000008306850283 1.6800019971530722C0.5733341924876413 1.4400010015007063 1.0933342778954802 1.2000000058483404 1.6000033227401131 0.9600014964027189C2.120003408147952 0.7066719463938912 2.5466712923728814 0.5000010383562853 2.8799970305879237 0.3400012033236229C3.2266736990201275 0.17999987656691385 3.4066750673110873 0.09999995905058262 3.4200011354608053 0.09999995905058262H3.460004201977401C3.5266594047934325 0.09999995905058262 3.573325505384887 0.14000004211908545 3.6000025037517656 0.21999995963541666C3.6266546400512003 0.30000062301377123 3.6466686043432204 0.366668256863524 3.659994672492938 0.41999987773658193C3.659994672492938 0.41999987773658193 3.6333425361935032 0.5866677192575919 3.5800134015271894 0.9200009160928672C3.5266594047934325 1.240000586158192 3.5000072684939973 1.7000010442046256 3.5000072684939973 2.3000022902321677V10.380012605932203C3.5000072684939973 10.673310415563208 3.5000072684939973 10.946693709171964 3.5000072684939973 11.200013314353814C3.5133333366437145 11.45330805746822 3.5466733690854517 11.660011286193503 3.6000025037517656 11.819998690192444C3.6266546400512003 11.886703617143361 3.7266747373764124 11.946695785884534 3.900013071592514 12.000000058483405C4.073326543741173 12.053304331082273 4.253327912032133 12.093307397598869 4.439992314397952 12.120009258033193C4.640007646980933 12.133310464115466 4.780005948755297 12.139998360257769 4.860012081788488 12.139998360257769C4.9000151483050844 12.193302632856637 4.9200042505296615 12.286709420241879 4.9200042505296615 12.419994963806497C4.933330318679379 12.55330536943856 4.9133412164548025 12.6467121568238 4.860012081788488 12.699991567355227C4.4600062786899715 12.673289706920905 4.093340508033193 12.653300604696327 3.7600147698181496 12.639999398614053C3.426664169535664 12.613297538179731 3.066661432953743 12.599996332097458 2.6800065600723872 12.599996332097458C2.3066628381002823 12.599996332097458 1.9666641209834042 12.613297538179731 1.6600029501015183 12.639999398614053C1.3533343205993997 12.653300604696327 1.000004562919315 12.673289706920905 0.6000037322342868 12.699991567355227C0.5466646527409957 12.6467121568238 0.5200050578213277 12.55330536943856 0.5200050578213277 12.419994963806497C0.5333336121777895 12.286709420241879 0.5600031519244351 12.193302632856637 0.6000037322342868 12.139998360257769C0.6800048928539901 12.139998360257769 0.8133327019332628 12.133310464115466 1.000004562919315 12.120009258033193C1.2000049782618292 12.093307397598869 1.3866644082141595 12.053304331082273 1.5600027424302614 12.000000058483405C1.7333336180261298 11.946695785884534 1.8266633330022952 11.886703617143361 1.8400043183924788 11.819998690192444C1.8933334530587924 11.660011286193503 1.9266635406735524 11.45330805746822 1.940004526063736 11.200013314353814C1.9533330804201978 10.946693709171964 1.9600035731152896 10.673310415563208 1.9600035731152896 10.380012605932203ZM13.424546798861229 4.9200042505296615C14.104549205508475 4.9200042505296615 14.671255170815677 5.046676484154308 15.12454038444562 5.299996089336158C15.591251114495057 5.553340556585452 15.957842298949506 5.880003260725636 16.22453769641596 6.280009063824153C16.50453429996469 6.6666639367055085 16.70454963254767 7.079995807953743 16.824533970030014 7.520004677568856C16.944543169579802 7.946662616966808 17.004535338320974 8.333342351915608 17.004535338320974 8.679994158280367C17.004535338320974 9.399999631444208 16.824533970030014 10.07328927988171 16.464531233448092 10.700012275997528C16.117829702948445 11.313309755693856 15.644555387093927 11.81331079405014 15.04453425141243 12.199990528998942C14.45783918388065 12.573294471663136 13.79123743158545 12.760008598163841 13.044554960054732 12.760008598163841C12.457835030455508 12.760008598163841 11.924543683792374 12.633311502471752 11.444531747660664 12.379991897289901C10.977845879678673 12.113296499823447 10.577840076580156 11.766694417593573 10.244539200432557 11.340011616128178C9.911238324284957 10.91330395259534 9.651255685028248 10.440004774673376 9.464541558527541 9.91998977202507C9.291252948446328 9.386673563294492 9.20453405720339 8.859995526571328 9.20453405720339 8.340005385990466C9.20453405720339 7.340003309277895 9.364546323269773 6.393330367231639 9.6845459933351 5.5000114219191385C10.004545663400425 4.606667614539195 10.471231531382415 3.826669972634181 11.084553873146188 3.1599936341366526C11.551239741128178 2.6533295617055086 12.084555949858757 2.186671041997705 12.68455222347281 1.760000671566031C13.297849703169138 1.3333303011343574 13.91783507900777 0.9666719890978107 14.544533213056145 0.6600008733889478C15.184532553186793 0.35333473009357347 15.777840930658545 0.13333402459613347 16.324532931673726 0C16.417840270789196 0 16.477832439530367 0.08000091199902895 16.50453429996469 0.24000099565236582C16.53123616039901 0.3866673039150777 16.544537366481286 0.49333303186793787 16.544537366481286 0.5600006657176907C16.131230357300495 0.6933309610037076 15.657831731108757 0.8800003357830155 15.12454038444562 1.1200013314353814C14.60455024386476 1.360002327087747 14.077847345074153 1.6800019971530722 13.544555998411017 2.080000341631356C13.011239789680438 2.480001172316384 12.531252715616173 2.9866801619879944 12.104545052083333 3.6000025037517656C11.677837388550495 4.19999877736582 11.35124927061264 4.933330318679379 11.124532077595338 5.799997127692444C11.471233608094986 5.520000524143715 11.857838756841454 5.306659123411017 12.284546420374294 5.159997787561794C12.711254083907132 5.000010383562853 13.09124592271363 4.9200042505296615 13.424546798861229 4.9200042505296615ZM10.964544673596398 6.6600009026306495C10.937842813162078 6.873342303363348 10.9178537109375 7.09332187610346 10.904552504855225 7.319989344985876C10.891251298772952 7.5466816759357345 10.884538540563206 7.773324282750706 10.884538540563206 7.999991751633122C10.884538540563206 8.440000621248235 10.931254365289547 8.899998593087924 11.02453684233757 9.380010529219634C11.117844181453037 9.859997603283897 11.257842483227401 10.306694369041313 11.444531747660664 10.720001378222104C11.644547080243644 11.133308387402895 11.891253375485523 11.473297159692796 12.184551185116526 11.739992557159251C12.477848994747529 11.993312162341102 12.817837767037428 12.120009258033193 13.20454236405367 12.120009258033193C13.831240498102048 12.120009258033193 14.344542742540607 11.82671144840219 14.744548545639123 11.239991518802967C15.14455434873764 10.653296451271187 15.344544819253178 9.91998977202507 15.344544819253178 9.039996894862288C15.344544819253178 8.48000368776483 15.257850790077683 7.9599886851165245 15.084537317929025 7.480001611052259C14.924549913930086 6.999989674920551 14.664542412605932 6.613334802039195 14.304539676024012 6.320012130340749C13.944536939442091 6.026664596574859 13.471237761520127 5.880003260725636 12.884542693988347 5.880003260725636C12.604546090439618 5.880003260725636 12.291234316516595 5.92666936131709 11.944532786016948 6.0200015625C11.61123190986935 6.100007695533192 11.284544343661722 6.313324234198446 10.964544673596398 6.6600009026306495ZM19.869043300891597 11.55999118886829C19.869043300891597 11.066702908721751 19.989052500441385 10.720001378222104 20.229046037473516 10.520010907706567C20.46903957450565 10.319995575123588 20.755748936264123 10.22000033986582 21.089049812411723 10.22000033986582C21.43575134291137 10.22000033986582 21.729049152542373 10.319995575123588 21.969042689574504 10.520010907706567C22.22243688095869 10.720001378222104 22.349034528381004 11.066702908721751 22.349034528381004 11.55999118886829C22.349034528381004 12.040003125 22.22243688095869 12.386704655499647 21.969042689574504 12.599996332097458C21.729049152542373 12.813312870762712 21.43575134291137 12.919996002162783 21.089049812411723 12.919996002162783C20.755748936264123 12.919996002162783 20.46903957450565 12.813312870762712 20.229046037473516 12.599996332097458C19.989052500441385 12.386704655499647 19.869043300891597 12.040003125 19.869043300891597 11.55999118886829ZM19.869043300891597 3.0000062301377115C19.869043300891597 2.493342157706568 19.989052500441385 2.1399999689927616 20.229046037473516 1.9400020398569917C20.46903957450565 1.7400016245144774 20.755748936264123 1.6400014168432204 21.089049812411723 1.6400014168432204C21.43575134291137 1.6400014168432204 21.729049152542373 1.7400016245144774 21.969042689574504 1.9400020398569917C22.22243688095869 2.1399999689927616 22.349034528381004 2.493342157706568 22.349034528381004 3.0000062301377115C22.349034528381004 3.4799933042019773 22.22243688095869 3.826669972634181 21.969042689574504 4.0400113733668785C21.729049152542373 4.253327912032133 21.43575134291137 4.360011043432204 21.089049812411723 4.360011043432204C20.755748936264123 4.360011043432204 20.46903957450565 4.253327912032133 20.229046037473516 4.0400113733668785C19.989052500441385 3.826669972634181 19.869043300891597 3.4799933042019773 19.869043300891597 3.0000062301377115ZM29.100552701271187 0.12000000058483404C30.020697817355224 0.12000000058483404 30.79390811484816 0.4066663509666314 31.420680835098867 0.9800005434542726C32.06063045109463 1.5533322497351694 32.54071697342867 2.320001337283722 32.86069178142655 3.280002833686441C33.193843485169495 4.226675775732698 33.36066795771539 5.266680918961864 33.36066795771539 6.399993401306498C33.36066795771539 7.533330745718573 33.193843485169495 8.579998923022599 32.86069178142655 9.539997933218572C32.52729145700918 10.486695737332273 32.04074079713983 11.25329272488524 31.400542560469635 11.840012654484463C30.774018460893362 12.413307067664194 30.007272300935732 12.699991567355227 29.100552701271187 12.699991567355227C28.220684134445623 12.699991567355227 27.46065073269774 12.413307067664194 26.820701116701976 11.840012654484463C26.180751500706215 11.25329272488524 25.687239461952686 10.486695737332273 25.340662241790252 9.539997933218572C25.007261917372883 8.579998923022599 24.840636341366523 7.533330745718573 24.840636341366523 6.399993401306498C24.840636341366523 5.266680918961864 25.007261917372883 4.226675775732698 25.340662241790252 3.280002833686441C25.674062566207628 2.320001337283722 26.160613226076975 1.5533322497351694 26.80056284207274 0.9800005434542726C27.440761078742938 0.4066663509666314 28.20725861802613 0.12000000058483404 29.100552701271187 0.12000000058483404ZM29.2007468330685 0.8400022416799082C28.654029969985874 0.8400022416799082 28.18065620586158 1.093331791688736 27.780625540695624 1.6000008365333687C27.39402039194915 2.093331382194562 27.093935237906074 2.7600126931055793 26.88061869924082 3.6000025037517656C26.667302160575563 4.439992314397952 26.560643891242936 5.373339188294492 26.560643891242936 6.399993401306498C26.560643891242936 7.413321546168785 26.667302160575563 8.346668420065324 26.88061869924082 9.200009160928671C27.093935237906074 10.03999897157486 27.38059487552966 10.713313482079803 27.740597612111582 11.220002416578389C28.114025865112993 11.726691351076978 28.540658942443503 11.980010956258827 29.020745464777544 11.980010956258827C29.607241635769775 11.980010956258827 30.09404091631356 11.720003454934675 30.48064606506003 11.200013314353814C30.867251213806497 10.679998311705509 31.153910851430087 9.986694698975988 31.340624977930794 9.12000302789548C31.54076462085099 8.253336218882415 31.64071013197387 7.313326310911017 31.64071013197387 6.299998166048729C31.64071013197387 5.27331909096928 31.534051862641242 4.353323147289901 31.32073532397599 3.540010335010593C31.120595681055793 2.713321730446681 30.833936043432203 2.060001294579802 30.460756411105226 1.580001789481815C30.100753674523304 1.0866712438206214 29.680584734728107 0.8400022416799082 29.2007468330685 0.8400022416799082ZM39.745246877206924 0.12000000058483404C40.66514337261652 0.12000000058483404 41.438353670109464 0.4066663509666314 42.06512639036017 0.9800005434542726C42.70507600635593 1.5533322497351694 43.18516252868997 2.320001337283722 43.50513733668785 3.280002833686441C43.83853766110523 4.226675775732698 44.0051135129767 5.266680918961864 44.0051135129767 6.399993401306498C44.0051135129767 7.533330745718573 43.83853766110523 8.579998923022599 43.50513733668785 9.539997933218572C43.17173701227048 10.486695737332273 42.685186352401125 11.25329272488524 42.04523673640537 11.840012654484463C41.41846401615466 12.413307067664194 40.651966476871465 12.699991567355227 39.745246877206924 12.699991567355227C38.865129689706926 12.699991567355227 38.105096287959036 12.413307067664194 37.46514667196328 11.840012654484463C36.825197055967514 11.25329272488524 36.33193363788841 10.486695737332273 35.985107797051555 9.539997933218572C35.65195609330862 8.579998923022599 35.485131620762715 7.533330745718573 35.485131620762715 6.399993401306498C35.485131620762715 5.266680918961864 35.65195609330862 4.226675775732698 35.985107797051555 3.280002833686441C36.31850812146893 2.320001337283722 36.80505878133828 1.5533322497351694 37.445257018008476 0.9800005434542726C38.08520663400424 0.4066663509666314 38.851952793961864 0.12000000058483404 39.745246877206924 0.12000000058483404ZM39.8451923883298 0.8400022416799082C39.29847552524718 0.8400022416799082 38.82510176112288 1.093331791688736 38.42507109595692 1.6000008365333687C38.03846594721045 2.093331382194562 37.73838079316737 2.7600126931055793 37.52506425450212 3.6000025037517656C37.31174771583686 4.439992314397952 37.20508944650423 5.373339188294492 37.20508944650423 6.399993401306498C37.20508944650423 7.413321546168785 37.31174771583686 8.346668420065324 37.52506425450212 9.200009160928671C37.73838079316737 10.03999897157486 38.02504043079096 10.713313482079803 38.38504316737288 11.220002416578389C38.75847142037429 11.726691351076978 39.185104497704806 11.980010956258827 39.66519102003884 11.980010956258827C40.25193581170551 11.980010956258827 40.73848647157486 11.720003454934675 41.12509162032133 11.200013314353814C41.51194538974223 10.679998311705509 41.79835640669139 9.986694698975988 41.98507053319209 9.12000302789548C42.185210176112285 8.253336218882415 42.285155687235175 7.313326310911017 42.285155687235175 6.299998166048729C42.285155687235175 5.27331909096928 42.17849741790254 4.353323147289901 41.96518087923729 3.540010335010593C41.76504123631709 2.713321730446681 41.4783815986935 2.060001294579802 41.10520196636652 1.580001789481815C40.7451992297846 1.0866712438206214 40.32503028998941 0.8400022416799082 39.8451923883298 0.8400022416799082Z" fill="#8D0000"></path></svg> 