<?xml version="1.0" encoding="UTF-8"?> <svg xmlns="http://www.w3.org/2000/svg" width="45" height="14" viewBox="0 0 45 14" fill="none"><g clip-path="url(#clip0_447_248)"><path d="M2.85454 10.74V2.83998C2.85454 2.55998 2.8212 2.36665 2.75454 2.25998C2.7012 2.15331 2.6012 2.09998 2.45454 2.09998C2.30787 2.09998 2.0812 2.15331 1.77454 2.25998C1.46787 2.35331 1.23454 2.43331 1.07454 2.49998C0.954531 2.40665 0.894531 2.29331 0.894531 2.15998C0.894531 2.15998 0.894531 2.15331 0.894531 2.13998C0.894531 2.08665 0.907865 2.05331 0.934531 2.03998C1.46787 1.79998 1.98787 1.55998 2.49454 1.31998C3.01454 1.06665 3.4412 0.859982 3.77454 0.699983C4.1212 0.539982 4.3012 0.459982 4.31454 0.459982H4.35454C4.4212 0.459982 4.46787 0.499982 4.49454 0.579982C4.5212 0.659983 4.5412 0.72665 4.55454 0.779983C4.55454 0.779983 4.52787 0.946649 4.47454 1.27998C4.4212 1.59998 4.39454 2.05998 4.39454 2.65998V10.74C4.39454 11.0333 4.39454 11.3067 4.39454 11.56C4.40787 11.8133 4.4412 12.02 4.49454 12.18C4.5212 12.2467 4.6212 12.3067 4.79454 12.36C4.96786 12.4133 5.14787 12.4533 5.33454 12.48C5.53453 12.4933 5.67454 12.5 5.75454 12.5C5.79454 12.5533 5.81454 12.6467 5.81454 12.78C5.82787 12.9133 5.80787 13.0067 5.75454 13.06C5.35454 13.0333 4.98787 13.0133 4.65454 13C4.3212 12.9733 3.9612 12.96 3.57454 12.96C3.2012 12.96 2.8612 12.9733 2.55454 13C2.24787 13.0133 1.89454 13.0333 1.49454 13.06C1.4412 13.0067 1.41454 12.9133 1.41454 12.78C1.42787 12.6467 1.45454 12.5533 1.49454 12.5C1.57454 12.5 1.70787 12.4933 1.89454 12.48C2.09454 12.4533 2.2812 12.4133 2.45454 12.36C2.62787 12.3067 2.7212 12.2467 2.73454 12.18C2.78787 12.02 2.8212 11.8133 2.83454 11.56C2.84787 11.3067 2.85454 11.0333 2.85454 10.74ZM16.6391 0.639982C16.8924 0.639982 17.1658 0.633316 17.4591 0.619983C17.7524 0.593316 17.9258 0.579982 17.9791 0.579982C18.0591 0.579982 18.0991 0.639982 18.0991 0.759982C18.0991 0.893315 18.0391 1.07998 17.9191 1.31998C17.7991 1.54665 17.6724 1.79331 17.5391 2.05998L12.3991 13.04C12.3591 13.08 12.2924 13.1 12.1991 13.1C12.0524 13.1 11.8724 13.0667 11.6591 13C11.4458 12.92 11.3391 12.8333 11.3391 12.74C11.6724 12.2333 12.0391 11.62 12.4391 10.9C12.8391 10.18 13.2458 9.41998 13.6591 8.61998C14.0858 7.81998 14.4858 7.03331 14.8591 6.25998C15.2458 5.48665 15.5858 4.78665 15.8791 4.15998C16.1858 3.51998 16.4258 3.01331 16.5991 2.63998C16.7858 2.25331 16.8791 2.05998 16.8791 2.05998H11.9191C11.5324 2.05998 11.2391 2.17998 11.0391 2.41998C10.8391 2.65998 10.6658 3.03998 10.5191 3.55998C10.5058 3.63998 10.4258 3.67998 10.2791 3.67998C10.2391 3.67998 10.1724 3.66665 10.0791 3.63998C9.99907 3.61331 9.93906 3.58665 9.89907 3.55998C10.0724 3.02665 10.2324 2.48665 10.3791 1.93998C10.5391 1.37998 10.6524 0.946649 10.7191 0.639982H16.6391ZM20.7636 11.92C20.7636 11.4267 20.8836 11.08 21.1236 10.88C21.3636 10.68 21.6503 10.58 21.9836 10.58C22.3303 10.58 22.6236 10.68 22.8636 10.88C23.117 11.08 23.2436 11.4267 23.2436 11.92C23.2436 12.4 23.117 12.7467 22.8636 12.96C22.6236 13.1733 22.3303 13.28 21.9836 13.28C21.6503 13.28 21.3636 13.1733 21.1236 12.96C20.8836 12.7467 20.7636 12.4 20.7636 11.92ZM20.7636 3.35998C20.7636 2.85331 20.8836 2.49998 21.1236 2.29998C21.3636 2.09998 21.6503 1.99998 21.9836 1.99998C22.3303 1.99998 22.6236 2.09998 22.8636 2.29998C23.117 2.49998 23.2436 2.85331 23.2436 3.35998C23.2436 3.83998 23.117 4.18665 22.8636 4.39998C22.6236 4.61331 22.3303 4.71998 21.9836 4.71998C21.6503 4.71998 21.3636 4.61331 21.1236 4.39998C20.8836 4.18665 20.7636 3.83998 20.7636 3.35998ZM32.5952 0.419983C32.7018 0.419983 32.7752 0.459983 32.8152 0.539982C32.8685 0.619982 32.8952 0.699982 32.8952 0.779983V8.47998H34.0552C34.1218 8.47998 34.1818 8.55998 34.2352 8.71998C34.2885 8.87998 34.3152 9.06665 34.3152 9.27998C34.3152 9.42665 34.2952 9.53331 34.2552 9.59998H32.8952V13.02C32.8952 13.02 32.8485 13.0333 32.7552 13.06C32.6752 13.1 32.4418 13.12 32.0552 13.12C31.5885 13.12 31.3552 13.0667 31.3552 12.96V9.59998H25.8552C25.7885 9.55998 25.7352 9.50665 25.6952 9.43998C25.6685 9.35998 25.6552 9.29331 25.6552 9.23998L32.0152 0.919982C32.0818 0.839983 32.1752 0.739983 32.2952 0.619983C32.4152 0.486649 32.5152 0.419983 32.5952 0.419983ZM31.3552 2.75998L26.9752 8.47998H31.3552V2.75998ZM40.6397 5.27998C41.413 5.27998 42.0664 5.45331 42.5997 5.79998C43.1464 6.14665 43.5664 6.58665 43.8597 7.11998C44.153 7.63998 44.2997 8.17998 44.2997 8.73998C44.2997 9.40665 44.153 10.0133 43.8597 10.56C43.5797 11.0933 43.1997 11.5533 42.7197 11.94C42.253 12.3133 41.7264 12.6 41.1397 12.8C40.553 13 39.953 13.1 39.3397 13.1C39.0864 13.1 38.7664 13.0667 38.3797 13C38.0064 12.92 37.6664 12.8 37.3597 12.64C37.3064 12.6 37.2264 12.5067 37.1197 12.36C37.013 12.2133 36.9597 12.06 36.9597 11.9C36.9597 11.62 37.0397 11.3933 37.1997 11.22C37.373 11.0467 37.5664 10.96 37.7797 10.96C38.0464 10.96 38.253 11.0667 38.3997 11.28C38.5597 11.48 38.7197 11.66 38.8797 11.82C39.0664 12.0067 39.2864 12.14 39.5397 12.22C39.8064 12.2867 40.0664 12.32 40.3197 12.32C40.6664 12.32 41.013 12.2267 41.3597 12.04C41.7197 11.84 42.0197 11.52 42.2597 11.08C42.4997 10.6267 42.6197 10.0267 42.6197 9.27998C42.6197 8.86665 42.513 8.43998 42.2997 7.99998C42.0997 7.54665 41.773 7.16665 41.3197 6.85998C40.8664 6.53998 40.2597 6.37998 39.4997 6.37998C39.2864 6.37998 38.9997 6.41331 38.6397 6.47998C38.2797 6.53331 38.0197 6.59998 37.8597 6.67998C37.8197 6.67998 37.7797 6.65331 37.7397 6.59998C37.713 6.53331 37.6997 6.46665 37.6997 6.39998C37.8464 5.66665 37.993 4.93331 38.1397 4.19998C38.2864 3.46665 38.4197 2.78665 38.5397 2.15998C38.673 1.51998 38.773 0.999983 38.8397 0.599983H41.7197C41.9864 0.599983 42.2597 0.586649 42.5397 0.559982C42.8197 0.533316 43.053 0.506649 43.2397 0.479982C43.4264 0.439983 43.5197 0.419983 43.5197 0.419983C43.5864 0.459982 43.6397 0.493316 43.6797 0.519983C43.733 0.546649 43.7597 0.586649 43.7597 0.639982C43.7597 0.679983 43.733 0.786649 43.6797 0.959982C43.6397 1.11998 43.573 1.29998 43.4797 1.49998C43.3997 1.69998 43.2997 1.87331 43.1797 2.01998C42.913 2.04665 42.593 2.07331 42.2197 2.09998C41.8464 2.12665 41.4064 2.13998 40.8997 2.13998H39.2597C39.1397 2.72665 39.0197 3.32665 38.8997 3.93998C38.793 4.53998 38.6797 5.11331 38.5597 5.65998C38.8264 5.55331 39.173 5.46665 39.5997 5.39998C40.0397 5.31998 40.3864 5.27998 40.6397 5.27998Z" fill="black"></path></g><defs><clipPath id="clip0_447_248"><rect width="45" height="14" fill="white"></rect></clipPath></defs></svg> 