<?xml version="1.0" encoding="UTF-8"?> <svg xmlns="http://www.w3.org/2000/svg" viewBox="0 0 44.005859375 12.839996337890625" fill="none"><path d="M1.9600035731152896 10.300006472899012V2.400000011696681C1.9600035731152896 2.1200009219412075 1.9266635406735524 1.9266709992937854 1.8600033654440327 1.8200002989274364C1.8066642859507416 1.7133295985610875 1.7066640782794846 1.660000463894774 1.5600027424302614 1.660000463894774C1.4133339479608051 1.660000463894774 1.1866639928716456 1.7133295985610875 0.8800028219897599 1.8200002989274364C0.5733341924876413 1.9133300139036018 0.34000368953036725 1.9933311745233049 0.18000410311837922 2.059998808373058C0.06000012460275424 1.9666690933968927 0 1.8533303865421962 0 1.7200000912561795C0 1.7200000912561795 0 1.7133295985610875 0 1.7000010442046256C0 1.6466694233315677 0.013333949425097105 1.6133293908898305 0.04000008306850283 1.6000008365333687C0.5733341924876413 1.3599998408810028 1.0933342778954802 1.1199988452286371 1.6000033227401131 0.8800003357830155C2.120003408147952 0.6266707857741878 2.5466712923728814 0.41999987773658193 2.8799970305879237 0.2600000427039195C3.2266736990201275 0.09999896456788489 3.4066750673110873 0.019998997327418788 3.4200011354608053 0.019998997327418788H3.460004201977401C3.5266594047934325 0.019998997327418788 3.573325505384887 0.0599991301200565 3.6000025037517656 0.1399990476363877C3.6266546400512003 0.21999995963541666 3.6466686043432204 0.28666709624382064 3.659994672492938 0.3400012033236229C3.659994672492938 0.3400012033236229 3.6333425361935032 0.5066665586378885 3.5800134015271894 0.8399997554731639C3.5266594047934325 1.159999425538489 3.5000072684939973 1.6199998835849223 3.5000072684939973 2.2200011296124647V10.300006472899012C3.5000072684939973 10.593304282530013 3.5000072684939973 10.866712438206214 3.5000072684939973 11.12000718132062C3.5133333366437145 11.37330192443503 3.5466733690854517 11.580005153160311 3.6000025037517656 11.739992557159251C3.6266546400512003 11.806697484110169 3.7266747373764124 11.866689652851342 3.900013071592514 11.91999392545021C4.073326543741173 11.973298198049083 4.253327912032133 12.013301264565678 4.439992314397952 12.040003125C4.640007646980933 12.053304331082273 4.780005948755297 12.059992227224576 4.860012081788488 12.059992227224576C4.9000151483050844 12.113296499823447 4.9200042505296615 12.206703287208688 4.9200042505296615 12.339988830773306C4.933330318679379 12.473299236405367 4.9133412164548025 12.566706023790607 4.860012081788488 12.620010296389477C4.4600062786899715 12.593308435955157 4.093340508033193 12.573294471663136 3.7600147698181496 12.559993265580863C3.426664169535664 12.533291405146539 3.066661432953743 12.519990199064265 2.6800065600723872 12.519990199064265C2.3066628381002823 12.519990199064265 1.9666641209834042 12.533291405146539 1.6600029501015183 12.559993265580863C1.3533343205993997 12.573294471663136 1.000004562919315 12.593308435955157 0.6000037322342868 12.620010296389477C0.5466646527409957 12.566706023790607 0.5200050578213277 12.473299236405367 0.5200050578213277 12.339988830773306C0.5333336121777895 12.206703287208688 0.5600031519244351 12.113296499823447 0.6000037322342868 12.059992227224576C0.6800048928539901 12.059992227224576 0.8133327019332628 12.053304331082273 1.000004562919315 12.040003125C1.2000049782618292 12.013301264565678 1.3866644082141595 11.973298198049083 1.5600027424302614 11.91999392545021C1.7333336180261298 11.866689652851342 1.8266633330022952 11.806697484110169 1.8400043183924788 11.739992557159251C1.8933334530587924 11.580005153160311 1.9266635406735524 11.37330192443503 1.940004526063736 11.12000718132062C1.9533330804201978 10.866712438206214 1.9600035731152896 10.593304282530013 1.9600035731152896 10.300006472899012ZM13.20454236405367 0C13.79123743158545 0 14.324553640316031 0.11333298857918432 14.804540714380297 0.3400012033236229C15.29785385659428 0.5666711584127825 15.691246349752825 0.8933288901394774 15.984544159383828 1.319999260571151C16.27784196901483 1.7466696310028247 16.424553028998943 2.266669716410664 16.424553028998943 2.8799970305879237C16.424553028998943 3.386661103019068 16.304543829449152 3.826669972634181 16.06455029241702 4.19999877736582C15.824531893317443 4.573327582097457 15.53123408368644 4.893327252162782 15.184532553186793 5.159997787561794C14.851256539106638 5.426668322960805 14.531232006973871 5.6533357918432205 14.22453354299082 5.84000019420904C14.131251065942797 5.866677192575919 14.131251065942797 5.906680259092514 14.22453354299082 5.960009393758828C14.624539346089335 6.173325932424082 15.017832390978107 6.45332253597281 15.40453698799435 6.799999204405014C15.804542791092867 7.146675872837218 16.131230357300495 7.533330745718573 16.384549962482343 7.9599886851165245C16.651245359948803 8.38667148658192 16.784555765580862 8.83331852820445 16.784555765580862 9.30000439618644C16.784555765580862 9.953304942399365 16.611242293432202 10.540000009931145 16.26454076293256 11.059990150512006C15.917839232432911 11.580005153160311 15.45784126059322 11.993312162341102 14.884546847413487 12.300010626324152C14.324553640316031 12.593308435955157 13.717844608492232 12.739994633871822 13.064544062279307 12.739994633871822C12.357839795197739 12.739994633871822 11.724553213276836 12.606709090307204 11.164535144111936 12.339988830773306C10.617843143096751 12.073293433306851 10.191234927833687 11.699989490642656 9.884536463850635 11.220002416578389C9.577837999867585 10.739990480446682 9.424538492010946 10.18671003155897 9.424538492010946 9.560011897510593C9.424538492010946 9.133329096045196 9.517845831126413 8.746674223163842 9.704535095559674 8.39999755473164C9.891249222060381 8.053320886299435 10.124554862950212 7.746672146451271 10.40455146649894 7.480001611052259C10.684548070047668 7.213331075653249 10.964544673596398 6.986663606770834 11.244541277145126 6.799999204405014C11.537839086776131 6.613334802039195 11.777832623808264 6.460010432115113 11.964546750308969 6.340001232565324C12.017851022907838 6.299998166048729 12.017851022907838 6.266658133606992 11.964546750308969 6.240005997307557C11.697851352842514 6.079993731241172 11.404553543211511 5.853326262358757 11.084553873146188 5.56000359066031C10.777855409163136 5.253329988744703 10.51123459789901 4.899990286237641 10.284542266949153 4.500009345206569C10.071250590351342 4.100003542108051 9.96454259688383 3.659994672492938 9.96454259688383 3.180007598428672C9.96454259688383 2.6199895292637714 10.11125365686794 2.09999938868291 10.40455146649894 1.6199998835849223C10.711249930481992 1.140000378486935 11.111230871513065 0.753330588365113 11.604544013727049 0.4600004580464336C12.097832293873587 0.15333307164768717 12.631247950873941 0 13.20454236405367 0ZM13.104547128795906 12.040003125C13.744546468926554 12.040003125 14.25123540342514 11.83998779241702 14.624539346089335 11.440006851385947C15.01124394310558 11.04000104828743 15.204546517478814 10.513298149496821 15.204546517478814 9.859997603283897C15.204546517478814 9.459991800185382 15.09125007613877 9.086662995453743 14.864532883121468 8.740011189088984C14.63784055217161 8.380008452507063 14.37124460297493 8.066671816516596 14.06454613899188 7.800001281117585C13.757847675008827 7.520004677568856 13.471237761520127 7.293337208686441 13.20454236405367 7.1199988744703395C12.937846966587218 6.946660540254237 12.771246252648305 6.840002270921611 12.704541325697386 6.799999204405014C12.651237053098518 6.773322206038136 12.611233986581922 6.759996137888418 12.5845321261476 6.759996137888418C12.544553921698446 6.759996137888418 12.517852061264126 6.766659171963276 12.504550855181849 6.780010102180437C11.97123464645127 7.1133358403954805 11.577842153292726 7.493327679201978 11.32454741017832 7.920010480667372C11.084553873146188 8.346668420065324 10.964544673596398 8.873321594721045 10.964544673596398 9.499994866701977C10.964544673596398 10.033311075432556 11.071252667063913 10.493309047272245 11.284544343661722 10.879988782221046C11.497836020259534 11.25329272488524 11.764556279793432 11.540002086643716 12.084555949858757 11.739992557159251C12.417831963938912 11.940007889742231 12.757845598296258 12.040003125 13.104547128795906 12.040003125ZM13.104547128795906 0.6799999204405014C12.637836398746469 0.6799999204405014 12.237855457715396 0.8933288901394774 11.904554581567796 1.319999260571151C11.584554911502472 1.7466696310028247 11.424542645436087 2.253331217227225 11.424542645436087 2.839993964071328C11.424542645436087 3.3333319683527542 11.537839086776131 3.7533268736758476 11.764556279793432 4.100003542108051C12.004549816825564 4.433329280323093 12.284546420374294 4.706662849796963 12.604546090439618 4.9200042505296615C12.924545760504943 5.133320789194916 13.20454236405367 5.313322157485876 13.444535901085805 5.460008355402543C13.471237761520127 5.47333442355226 13.511240828036723 5.479997457627118 13.564545100635593 5.479997457627118C13.577846306717866 5.479997457627118 13.58453420286017 5.479997457627118 13.58453420286017 5.479997457627118C13.624537269376766 5.479997457627118 13.657852439751059 5.47333442355226 13.68455430018538 5.460008355402543C14.084535241216456 5.193337820003531 14.40453491128178 4.860012081788488 14.644553310381356 4.4600062786899715C14.884546847413487 4.060000475591456 15.004556046963277 3.5933394696769065 15.004556046963277 3.0599983988788844C15.004556046963277 2.6733186639300848 14.924549913930086 2.2999998040254237 14.764537647863701 1.9399995536502472C14.617851449947034 1.5799993032750705 14.40453491128178 1.2800011664680437 14.12453830773305 1.040000170815678C13.844541704184323 0.7999991751633122 13.504552931894422 0.6799999204405014 13.104547128795906 0.6799999204405014ZM19.869043300891597 11.480009917902542C19.869043300891597 10.98669677568856 19.989052500441385 10.639995245188913 20.229046037473516 10.440004774673376C20.46903957450565 10.239989442090394 20.755748936264123 10.139994206832625 21.089049812411723 10.139994206832625C21.43575134291137 10.139994206832625 21.729049152542373 10.239989442090394 21.969042689574504 10.440004774673376C22.22243688095869 10.639995245188913 22.349034528381004 10.98669677568856 22.349034528381004 11.480009917902542C22.349034528381004 11.95999699196681 22.22243688095869 12.306698522466455 21.969042689574504 12.519990199064265C21.729049152542373 12.73330673772952 21.43575134291137 12.83998986912959 21.089049812411723 12.83998986912959C20.755748936264123 12.83998986912959 20.46903957450565 12.73330673772952 20.229046037473516 12.519990199064265C19.989052500441385 12.306698522466455 19.869043300891597 11.95999699196681 19.869043300891597 11.480009917902542ZM19.869043300891597 2.92000009710452C19.869043300891597 2.413331052259887 19.989052500441385 2.059998808373058 20.229046037473516 1.8600008792372882C20.46903957450565 1.660000463894774 20.755748936264123 1.560000256223517 21.089049812411723 1.560000256223517C21.43575134291137 1.560000256223517 21.729049152542373 1.660000463894774 21.969042689574504 1.8600008792372882C22.22243688095869 2.059998808373058 22.349034528381004 2.413331052259887 22.349034528381004 2.92000009710452C22.349034528381004 3.4000120332362287 22.22243688095869 3.746663839600989 21.969042689574504 3.960005240333686C21.729049152542373 4.173321778998941 21.43575134291137 4.280004910399011 21.089049812411723 4.280004910399011C20.755748936264123 4.280004910399011 20.46903957450565 4.173321778998941 20.229046037473516 3.960005240333686C19.989052500441385 3.746663839600989 19.869043300891597 3.4000120332362287 19.869043300891597 2.92000009710452ZM29.100552701271187 0.03999908858580509C30.020697817355224 0.03999908858580509 30.79390811484816 0.3266651903469279 31.420680835098867 0.8999993828345692C32.06063045109463 1.4733310891154663 32.54071697342867 2.2400001766640183 32.86069178142655 3.199996700653249C33.193843485169495 4.146669642699505 33.36066795771539 5.186674785928672 33.36066795771539 6.320012130340749C33.36066795771539 7.453324612685381 33.193843485169495 8.499992789989408 32.86069178142655 9.459991800185382C32.52729145700918 10.406689604299082 32.04074079713983 11.173311453919492 31.400542560469635 11.760006521451272C30.774018460893362 12.333300934631003 30.007272300935732 12.620010296389477 29.100552701271187 12.620010296389477C28.220684134445623 12.620010296389477 27.46065073269774 12.333300934631003 26.820701116701976 11.760006521451272C26.180751500706215 11.173311453919492 25.687239461952686 10.406689604299082 25.340662241790252 9.459991800185382C25.007261917372883 8.499992789989408 24.840636341366523 7.453324612685381 24.840636341366523 6.320012130340749C24.840636341366523 5.186674785928672 25.007261917372883 4.146669642699505 25.340662241790252 3.199996700653249C25.674062566207628 2.2400001766640183 26.160613226076975 1.4733310891154663 26.80056284207274 0.8999993828345692C27.440761078742938 0.3266651903469279 28.20725861802613 0.03999908858580509 29.100552701271187 0.03999908858580509ZM29.2007468330685 0.7600010810602048C28.654029969985874 0.7600010810602048 28.18065620586158 1.0133306310690324 27.780625540695624 1.5199996759136654C27.39402039194915 2.0133302215748587 27.093935237906074 2.6800065600723872 26.88061869924082 3.519996370718573C26.667302160575563 4.360011043432204 26.560643891242936 5.2933330552613 26.560643891242936 6.320012130340749C26.560643891242936 7.333340275203036 26.667302160575563 8.266662287032133 26.88061869924082 9.12000302789548C27.093935237906074 9.959992838541666 27.38059487552966 10.633307349046609 27.740597612111582 11.139996283545198C28.114025865112993 11.646710080111228 28.540658942443503 11.900004823225636 29.020745464777544 11.900004823225636C29.607241635769775 11.900004823225636 30.09404091631356 11.639997321901483 30.48064606506003 11.12000718132062C30.867251213806497 10.599992178672316 31.153910851430087 9.906688565942797 31.340624977930794 9.039996894862288C31.54076462085099 8.173330085849223 31.64071013197387 7.233320177877825 31.64071013197387 6.2199920330155365C31.64071013197387 5.193337820003531 31.534051862641242 4.273341876324152 31.32073532397599 3.460004201977401C31.120595681055793 2.633340459480932 30.833936043432203 1.9800001339600988 30.460756411105226 1.5000006288621115C30.100753674523304 1.0066700832009179 29.680584734728107 0.7600010810602048 29.2007468330685 0.7600010810602048ZM39.745246877206924 0.03999908858580509C40.66514337261652 0.03999908858580509 41.438353670109464 0.3266651903469279 42.06512639036017 0.8999993828345692C42.70507600635593 1.4733310891154663 43.18516252868997 2.2400001766640183 43.50513733668785 3.199996700653249C43.83853766110523 4.146669642699505 44.0051135129767 5.186674785928672 44.0051135129767 6.320012130340749C44.0051135129767 7.453324612685381 43.83853766110523 8.499992789989408 43.50513733668785 9.459991800185382C43.17173701227048 10.406689604299082 42.685186352401125 11.173311453919492 42.04523673640537 11.760006521451272C41.41846401615466 12.333300934631003 40.651966476871465 12.620010296389477 39.745246877206924 12.620010296389477C38.865129689706926 12.620010296389477 38.105096287959036 12.333300934631003 37.46514667196328 11.760006521451272C36.825197055967514 11.173311453919492 36.33193363788841 10.406689604299082 35.985107797051555 9.459991800185382C35.65195609330862 8.499992789989408 35.485131620762715 7.453324612685381 35.485131620762715 6.320012130340749C35.485131620762715 5.186674785928672 35.65195609330862 4.146669642699505 35.985107797051555 3.199996700653249C36.31850812146893 2.2400001766640183 36.80505878133828 1.4733310891154663 37.445257018008476 0.8999993828345692C38.08520663400424 0.3266651903469279 38.851952793961864 0.03999908858580509 39.745246877206924 0.03999908858580509ZM39.8451923883298 0.7600010810602048C39.29847552524718 0.7600010810602048 38.82510176112288 1.0133306310690324 38.42507109595692 1.5199996759136654C38.03846594721045 2.0133302215748587 37.73838079316737 2.6800065600723872 37.52506425450212 3.519996370718573C37.31174771583686 4.360011043432204 37.20508944650423 5.2933330552613 37.20508944650423 6.320012130340749C37.20508944650423 7.333340275203036 37.31174771583686 8.266662287032133 37.52506425450212 9.12000302789548C37.73838079316737 9.959992838541666 38.02504043079096 10.633307349046609 38.38504316737288 11.139996283545198C38.75847142037429 11.646710080111228 39.185104497704806 11.900004823225636 39.66519102003884 11.900004823225636C40.25193581170551 11.900004823225636 40.73848647157486 11.639997321901483 41.12509162032133 11.12000718132062C41.51194538974223 10.599992178672316 41.79835640669139 9.906688565942797 41.98507053319209 9.039996894862288C42.185210176112285 8.173330085849223 42.285155687235175 7.233320177877825 42.285155687235175 6.2199920330155365C42.285155687235175 5.193337820003531 42.17849741790254 4.273341876324152 41.96518087923729 3.460004201977401C41.76504123631709 2.633340459480932 41.4783815986935 1.9800001339600988 41.10520196636652 1.5000006288621115C40.7451992297846 1.0066700832009179 40.32503028998941 0.7600010810602048 39.8451923883298 0.7600010810602048Z" fill="#8D0000"></path></svg> 